M48
INCH
T1C00.020
T2C00.030
T3C00.040
T4C00.100
%
T001
X17278Y18096
X17278Y18596
X17308Y18056
X17423Y18331
X17463Y18251
X17598Y18336
X17633Y18021
X17648Y18226
X17673Y18131
X17673Y18521
X17713Y17911
X17713Y18166
X17733Y18216
X17748Y18521
X17753Y17946
X17808Y18021
X17808Y18161
X17828Y18521
X17883Y18056
X17903Y17911
X17923Y17981
X17943Y17641
X17958Y17761
X17998Y18256
X17998Y18371
X18008Y17801
X18033Y17871
X18083Y18196
X18083Y18251
X18083Y18371
X18143Y18276
X18283Y17486
X18303Y18276
X18384Y17465
X18438Y18356
X18453Y18111
X18455Y18226
X18523Y18311
X18693Y18276
T002
X18578Y17677
X18578Y17747
X18578Y17817
T003
X17504Y17525
X17672Y17525
T004
X17303Y17436
X18638Y17431
M30
