%FSLAX23Y23*%
%MOIN*%
G04 EasyPC Gerber Version 13.0.2 Build 2807 *
%ADD126R,0.02100X0.02100*%
%ADD118R,0.02800X0.10000*%
%ADD119R,0.10000X0.02800*%
%ADD122R,0.11000X0.03800*%
%ADD133R,0.04000X0.07000*%
%ADD128R,0.04200X0.09000*%
%ADD117R,0.05000X0.09000*%
%ADD124R,0.05150X0.05937*%
%ADD120R,0.05500X0.10000*%
%ADD132R,0.06000X0.07000*%
%ADD18R,0.06000X0.08000*%
%ADD135R,0.06000X0.11000*%
%ADD134R,0.06000X0.12000*%
%ADD19R,0.06300X0.11500*%
%ADD121R,0.07000X0.14000*%
%ADD125R,0.07500X0.07500*%
%ADD129R,0.10000X0.11000*%
%ADD130R,0.10000X0.12000*%
%ADD136C,0.06000*%
%ADD131C,0.08000*%
%ADD10C,0.14000*%
%ADD15R,0.08000X0.06000*%
%ADD123R,0.09000X0.06000*%
%ADD127R,0.15000X0.13000*%
X0Y0D02*
D02*
D10*
X17303Y17436D03*
X18638Y17431D03*
D02*
D15*
X17882Y17550D03*
Y17618D03*
X18107Y18510D03*
Y18578D03*
X18142Y17550D03*
Y17618D03*
X18319Y17837D03*
Y17906D03*
Y18002D03*
Y18071D03*
X18438Y18505D03*
Y18573D03*
X18517Y18505D03*
Y18573D03*
D02*
D18*
X17876Y17404D03*
X17945D03*
X18146Y18236D03*
X18215D03*
X18451Y17907D03*
X18519D03*
X18601Y18517D03*
Y18617D03*
X18669Y18517D03*
Y18617D03*
D02*
D19*
X17276Y18460D03*
Y18656D03*
X17355Y18460D03*
Y18656D03*
X17434Y18460D03*
Y18656D03*
X17513Y18460D03*
Y18656D03*
X17591Y18460D03*
Y18656D03*
X17670Y18460D03*
Y18656D03*
X17749Y18460D03*
Y18656D03*
X17828Y18460D03*
Y18656D03*
X17906Y18460D03*
Y18656D03*
X17985Y18460D03*
Y18656D03*
D02*
D117*
X17508Y17724D03*
X17533Y17724D03*
X17620D03*
X17645Y17724D03*
X18291Y17548D03*
X18336D03*
D03*
X18381D03*
X18426D03*
D02*
D118*
X17628Y17836D03*
Y18296D03*
X17648Y17836D03*
Y18296D03*
X17668Y17836D03*
Y18296D03*
X17688Y17836D03*
Y18296D03*
X17708Y17836D03*
Y18296D03*
X17728Y17836D03*
Y18296D03*
X17748Y17836D03*
Y18296D03*
X17768Y17836D03*
Y18296D03*
X17788Y17836D03*
Y18296D03*
X17808Y17836D03*
Y18296D03*
X17828Y17836D03*
Y18296D03*
X17848Y17836D03*
Y18296D03*
X17868Y17836D03*
Y18296D03*
X17888Y17836D03*
Y18296D03*
X17908Y17836D03*
Y18296D03*
X17928Y17836D03*
Y18296D03*
D02*
D119*
X17548Y17916D03*
Y17936D03*
Y17956D03*
Y17976D03*
Y17996D03*
Y18016D03*
Y18036D03*
Y18056D03*
Y18076D03*
Y18096D03*
Y18116D03*
Y18136D03*
Y18156D03*
Y18176D03*
Y18196D03*
Y18216D03*
X18008Y17916D03*
Y17936D03*
Y17956D03*
Y17976D03*
Y17996D03*
Y18016D03*
Y18036D03*
Y18056D03*
Y18076D03*
Y18096D03*
Y18116D03*
Y18136D03*
Y18156D03*
Y18176D03*
Y18196D03*
Y18216D03*
D02*
D120*
X18123Y17856D03*
X18223Y18056D03*
D02*
D121*
X18123D03*
X18223Y17856D03*
D02*
D122*
X17369Y18055D03*
Y18094D03*
Y18133D03*
Y18172D03*
Y18211D03*
Y18250D03*
Y18289D03*
Y18328D03*
D02*
D123*
X17258Y18005D03*
Y18376D03*
D02*
D124*
X18623Y18228D03*
Y18444D03*
X18694Y18228D03*
Y18444D03*
D02*
D125*
X18578Y17677D03*
Y17747D03*
Y17817D03*
D02*
D126*
X18718Y17677D03*
Y17747D03*
Y17817D03*
D02*
D127*
X18453Y18056D03*
X18643D03*
D02*
D128*
X17523Y17632D03*
X17555D03*
X17587D03*
X17619D03*
X17651D03*
D02*
D129*
X17402Y17612D03*
X17777D03*
D02*
D130*
X17403Y17408D03*
X17778D03*
D02*
D131*
X17504Y17525D03*
X17672D03*
D02*
D132*
X18016Y17404D03*
X18085D03*
D02*
D133*
X17975Y17524D03*
Y17639D03*
X18012Y17639D03*
X18050Y17524D03*
Y17639D03*
D02*
D134*
X18163Y17434D03*
X18208D03*
X18463D03*
D02*
D135*
X18553Y17434D03*
D02*
D136*
X17278Y18096D03*
Y18596D03*
X17308Y18056D03*
X17423Y18331D03*
X17463Y18251D03*
X17598Y18336D03*
X17633Y18021D03*
X17648Y18226D03*
X17673Y18131D03*
Y18521D03*
X17713Y17911D03*
Y18166D03*
X17733Y18216D03*
X17748Y18521D03*
X17753Y17946D03*
X17808Y18021D03*
Y18161D03*
X17828Y18521D03*
X17883Y18056D03*
X17903Y17911D03*
X17923Y17981D03*
X17943Y17641D03*
X17958Y17761D03*
X17998Y18256D03*
Y18371D03*
X18008Y17801D03*
X18033Y17871D03*
X18083Y18196D03*
Y18251D03*
Y18371D03*
X18143Y18276D03*
X18283Y17486D03*
X18303Y18276D03*
X18384Y17465D03*
X18438Y18356D03*
X18453Y18111D03*
X18455Y18226D03*
X18523Y18311D03*
X18693Y18276D03*
X0Y0D02*
M02*
