%FSLAX23Y23*%
%MOIN*%
G04 EasyPC Gerber Version 13.0.2 Build 2807 *
%ADD144R,0.00200X0.05000*%
%ADD137R,0.01000X0.05000*%
%ADD141R,0.01150X0.01937*%
%ADD138R,0.01500X0.06000*%
%ADD145R,0.02000X0.03000*%
%ADD28R,0.02000X0.04000*%
%ADD147R,0.02000X0.07000*%
%ADD146R,0.02000X0.08000*%
%ADD29R,0.02300X0.07500*%
%ADD139R,0.03000X0.10000*%
%ADD142R,0.03500X0.03500*%
%ADD25R,0.04000X0.02000*%
%ADD140R,0.05000X0.02000*%
%ADD132R,0.06000X0.07000*%
%ADD18R,0.06000X0.08000*%
%ADD148C,0.02000*%
%ADD115C,0.04000*%
%ADD20C,0.10000*%
%ADD143R,0.11000X0.09000*%
X0Y0D02*
D02*
D18*
X17403Y17408D03*
X17778D03*
D02*
D20*
X17303Y17436D03*
X18638Y17431D03*
D02*
D25*
X17882Y17550D03*
Y17618D03*
X18107Y18510D03*
Y18578D03*
X18142Y17550D03*
Y17618D03*
X18319Y17837D03*
Y17906D03*
Y18002D03*
Y18071D03*
X18438Y18505D03*
Y18573D03*
X18517Y18505D03*
Y18573D03*
D02*
D28*
X17876Y17404D03*
X17945D03*
X18146Y18236D03*
X18215D03*
X18451Y17907D03*
X18519D03*
X18601Y18517D03*
Y18617D03*
X18669Y18517D03*
Y18617D03*
D02*
D29*
X17276Y18460D03*
Y18656D03*
X17355Y18460D03*
Y18656D03*
X17434Y18460D03*
Y18656D03*
X17513Y18460D03*
Y18656D03*
X17591Y18460D03*
Y18656D03*
X17670Y18460D03*
Y18656D03*
X17749Y18460D03*
Y18656D03*
X17828Y18460D03*
Y18656D03*
X17906Y18460D03*
Y18656D03*
X17985Y18460D03*
Y18656D03*
D02*
D115*
X17504Y17525D03*
X17672D03*
D02*
D132*
X17402Y17612D03*
X17777D03*
D02*
D137*
X17508Y17724D03*
X17533Y17724D03*
X17620D03*
X17645Y17724D03*
X18291Y17548D03*
X18336D03*
D03*
X18381D03*
X18426D03*
D02*
D138*
X18123Y17856D03*
X18223Y18056D03*
D02*
D139*
X18123D03*
X18223Y17856D03*
D02*
D140*
X17258Y18005D03*
Y18376D03*
D02*
D141*
X18623Y18228D03*
Y18444D03*
X18694Y18228D03*
Y18444D03*
D02*
D142*
X18578Y17677D03*
Y17747D03*
Y17817D03*
D02*
D143*
X18453Y18056D03*
X18643D03*
D02*
D144*
X17523Y17632D03*
X17555D03*
X17587D03*
X17619D03*
X17651D03*
D02*
D145*
X18016Y17404D03*
X18085D03*
D02*
D146*
X18163Y17434D03*
X18208D03*
X18463D03*
D02*
D147*
X18553Y17434D03*
D02*
D148*
X17278Y18096D03*
Y18596D03*
X17308Y18056D03*
X17423Y18331D03*
X17463Y18251D03*
X17598Y18336D03*
X17633Y18021D03*
X17648Y18226D03*
X17673Y18131D03*
Y18521D03*
X17713Y17911D03*
Y18166D03*
X17733Y18216D03*
X17748Y18521D03*
X17753Y17946D03*
X17808Y18021D03*
Y18161D03*
X17828Y18521D03*
X17883Y18056D03*
X17903Y17911D03*
X17923Y17981D03*
X17943Y17641D03*
X17958Y17761D03*
X17998Y18256D03*
Y18371D03*
X18008Y17801D03*
X18033Y17871D03*
X18083Y18196D03*
Y18251D03*
Y18371D03*
X18143Y18276D03*
X18283Y17486D03*
X18303Y18276D03*
X18384Y17465D03*
X18438Y18356D03*
X18453Y18111D03*
X18455Y18226D03*
X18523Y18311D03*
X18693Y18276D03*
X0Y0D02*
M02*
