%FSLAX23Y23*%
%MOIN*%
G04 EasyPC Gerber Version 13.0.2 Build 2807 *
%ADD150R,0.03500X0.04000*%
%ADD154R,0.03700X0.09500*%
%ADD153R,0.04000X0.04800*%
%ADD90R,0.04000X0.06000*%
%ADD79R,0.06000X0.04000*%
%ADD91R,0.04300X0.09500*%
%ADD151R,0.15000X0.05000*%
%ADD152R,0.11000X0.13000*%
%ADD75C,0.00500*%
%ADD83C,0.01100*%
%ADD74C,0.01200*%
%ADD82C,0.04500*%
%ADD78C,0.09900*%
%ADD20C,0.10000*%
%ADD76C,0.12000*%
X0Y0D02*
D02*
D20*
X18414Y18182D03*
D02*
D74*
X17255Y17540D02*
Y17340D01*
X17455*
X17255Y17540D02*
Y17340D01*
X17455*
X17384Y17608D02*
X17408D01*
X17455Y18690D02*
X17255D01*
Y18490*
X17455Y18690D02*
X17255D01*
Y18490*
X17489Y17990D02*
X17465D01*
X17505Y17973D02*
Y17949D01*
Y18006D02*
Y18030D01*
X17559Y17725D02*
X17535D01*
X17628Y17744D02*
Y17768D01*
X17697Y17725D02*
X17721D01*
X17939Y18481D02*
Y18505D01*
X17994Y17480D02*
X17970D01*
X18017Y18481D02*
Y18505D01*
X18033Y18440D02*
X18057D01*
X18117Y18493D02*
X18093D01*
X18141Y18479D02*
Y18455D01*
X18159Y17725D02*
X18135D01*
X18165Y18493D02*
X18189D01*
X18175Y17708D02*
Y17684D01*
Y17741D02*
Y17765D01*
X18231Y18430D02*
X18207D01*
X18280Y18371D02*
Y18347D01*
Y18489D02*
Y18513D01*
X18380Y18413D02*
Y18389D01*
Y18446D02*
Y18470D01*
X18480Y18371D02*
Y18347D01*
Y18489D02*
Y18513D01*
X18529Y18430D02*
X18553D01*
X18545Y17340D02*
X18745D01*
Y17540*
X18545Y17340D02*
X18745D01*
Y17540*
X18746Y18489D02*
Y18689D01*
X18546*
X18746Y18489D02*
Y18689D01*
X18546*
D02*
D75*
X17300Y17765D02*
Y17805D01*
X17310Y17815*
Y17820*
X17300Y17830*
Y17850*
X17295Y17855*
X17280*
X17275Y17850*
Y17770*
X17285Y17760*
X17300Y17765*
X17283Y17762D02*
X17291D01*
X17280Y17765D02*
X17300D01*
X17277Y17768D02*
X17300D01*
X17275Y17771D02*
X17300D01*
X17275Y17774D02*
X17300D01*
X17275Y17777D02*
X17300D01*
X17275Y17780D02*
X17300D01*
X17275Y17783D02*
X17300D01*
X17275Y17786D02*
X17300D01*
X17275Y17789D02*
X17300D01*
X17275Y17792D02*
X17300D01*
X17275Y17795D02*
X17300D01*
X17275Y17798D02*
X17300D01*
X17275Y17801D02*
X17300D01*
X17275Y17804D02*
X17300D01*
X17275Y17807D02*
X17302D01*
X17275Y17810D02*
X17305D01*
X17275Y17813D02*
X17308D01*
X17275Y17816D02*
X17310D01*
X17275Y17819D02*
X17310D01*
X17275Y17822D02*
X17308D01*
X17275Y17825D02*
X17305D01*
X17275Y17828D02*
X17302D01*
X17275Y17831D02*
X17300D01*
X17275Y17834D02*
X17300D01*
X17275Y17837D02*
X17300D01*
X17275Y17840D02*
X17300D01*
X17275Y17843D02*
X17300D01*
X17275Y17846D02*
X17300D01*
X17275Y17849D02*
X17300D01*
X17277Y17852D02*
X17298D01*
X17399Y17646D02*
X17405D01*
Y17588*
X17413Y17593*
X17423Y17596*
X17433Y17596*
X17444Y17594*
X17453Y17590*
X17461Y17583*
X17467Y17575*
X17470Y17565*
X17472Y17555*
X17472Y17553*
X17507*
X17495Y17565*
X17491Y17571*
X17488Y17577*
X17487Y17585*
Y17643*
X17469Y17661*
X17399*
Y17646*
X17472Y17553D02*
X17507D01*
X17472Y17556D02*
X17504D01*
X17471Y17559D02*
X17501D01*
X17471Y17562D02*
X17498D01*
X17470Y17565D02*
X17495D01*
X17469Y17568D02*
X17492D01*
X17468Y17571D02*
X17490D01*
X17467Y17574D02*
X17489D01*
X17465Y17577D02*
X17488D01*
X17463Y17580D02*
X17487D01*
X17460Y17583D02*
X17487D01*
X17457Y17586D02*
X17487D01*
X17405Y17589D02*
X17407D01*
X17453D02*
X17487D01*
X17405Y17592D02*
X17412D01*
X17448D02*
X17487D01*
X17405Y17595D02*
X17421D01*
X17439D02*
X17487D01*
X17405Y17598D02*
X17487D01*
X17405Y17601D02*
X17487D01*
X17405Y17604D02*
X17487D01*
X17405Y17607D02*
X17487D01*
X17405Y17610D02*
X17487D01*
X17405Y17613D02*
X17487D01*
X17405Y17616D02*
X17487D01*
X17405Y17619D02*
X17487D01*
X17405Y17622D02*
X17487D01*
X17405Y17625D02*
X17487D01*
X17405Y17628D02*
X17487D01*
X17405Y17631D02*
X17487D01*
X17405Y17634D02*
X17487D01*
X17405Y17637D02*
X17487D01*
X17405Y17640D02*
X17487D01*
X17405Y17643D02*
X17487D01*
X17399Y17646D02*
X17484D01*
X17399Y17649D02*
X17481D01*
X17399Y17652D02*
X17478D01*
X17399Y17655D02*
X17475D01*
X17399Y17658D02*
X17472D01*
X17399Y17717D02*
X17481D01*
X17488Y17716*
X17495Y17713*
X17500Y17709*
X17535Y17675*
X17539Y17669*
X17542Y17663*
X17548Y17672*
X17555Y17679*
X17563Y17685*
X17538*
Y17764*
X17717*
Y17685*
X17642*
X17652Y17677*
X17661Y17666*
X17668Y17654*
X17673Y17641*
X17674Y17627*
X17674Y17614*
X17670Y17600*
X17664Y17588*
X17931*
X17940Y17594*
X17950Y17598*
X17960Y17600*
X17971Y17598*
X17981Y17594*
X17989Y17587*
X17995Y17579*
X17999Y17569*
X18000Y17558*
X17998Y17548*
X18126*
X18135Y17554*
X18145Y17559*
X18156Y17560*
X18167Y17558*
X18177Y17553*
X18185Y17546*
X18191Y17536*
X18195Y17526*
X18195Y17515*
X18192Y17504*
X18205*
Y17704*
X18198Y17696*
X18189Y17691*
X18179Y17688*
X18169Y17688*
X18159Y17691*
X18150Y17697*
X18144Y17705*
X18139Y17714*
X18138Y17725*
X18139Y17735*
X18144Y17745*
X18150Y17752*
X18159Y17758*
X18169Y17761*
X18179Y17761*
X18189Y17759*
X18198Y17753*
X18205Y17746*
Y17810*
X18206Y17817*
X18209Y17825*
X18214Y17831*
X18279Y17896*
X18280Y17897*
X17725*
Y17877*
X17530*
Y17962*
X17521Y17956*
X17511Y17953*
X17500Y17953*
X17490Y17956*
X17481Y17962*
X17474Y17970*
X17470Y17979*
X17468Y17990*
X17470Y18000*
X17474Y18010*
X17481Y18018*
X17490Y18024*
X17500Y18026*
X17511Y18026*
X17521Y18023*
X17530Y18017*
Y18072*
X17557*
X17549Y18079*
X17544Y18087*
X17541Y18097*
X17540Y18107*
X17542Y18117*
X17430*
X17423Y18118*
X17416Y18120*
X17410Y18125*
X17403Y18132*
Y18037*
X17405Y18035*
X17409Y18029*
X17412Y18022*
X17413Y18015*
Y17870*
X17413Y17864*
Y17810*
X17399*
Y17718*
X17399*
Y17717*
X17530Y17872D02*
X17725D01*
Y17777*
X17530*
Y17872*
X18193Y17507D02*
X18205D01*
X18194Y17510D02*
X18205D01*
X18194Y17513D02*
X18205D01*
X18195Y17516D02*
X18205D01*
X18195Y17519D02*
X18205D01*
X18195Y17522D02*
X18205D01*
X18195Y17525D02*
X18205D01*
X18194Y17528D02*
X18205D01*
X18193Y17531D02*
X18205D01*
X18192Y17534D02*
X18205D01*
X18191Y17537D02*
X18205D01*
X18189Y17540D02*
X18205D01*
X18187Y17543D02*
X18205D01*
X18185Y17546D02*
X18205D01*
X17999Y17549D02*
X18128D01*
X18182D02*
X18205D01*
X17999Y17552D02*
X18131D01*
X18179D02*
X18205D01*
X18000Y17555D02*
X18136D01*
X18174D02*
X18205D01*
X18000Y17558D02*
X18144D01*
X18166D02*
X18205D01*
X18000Y17561D02*
X18205D01*
X18000Y17564D02*
X18205D01*
X17999Y17567D02*
X18205D01*
X17999Y17570D02*
X18205D01*
X17998Y17573D02*
X18205D01*
X17997Y17576D02*
X18205D01*
X17995Y17579D02*
X18205D01*
X17993Y17582D02*
X18205D01*
X17991Y17585D02*
X18205D01*
X17664Y17588D02*
X17932D01*
X17988D02*
X18205D01*
X17666Y17591D02*
X17935D01*
X17985D02*
X18205D01*
X17668Y17594D02*
X17940D01*
X17980D02*
X18205D01*
X17669Y17597D02*
X17946D01*
X17974D02*
X18205D01*
X17670Y17600D02*
X18205D01*
X17671Y17603D02*
X18205D01*
X17672Y17606D02*
X18205D01*
X17673Y17609D02*
X18205D01*
X17673Y17612D02*
X18205D01*
X17674Y17615D02*
X18205D01*
X17674Y17618D02*
X18205D01*
X17674Y17621D02*
X18205D01*
X17675Y17624D02*
X18205D01*
X17674Y17627D02*
X18205D01*
X17674Y17630D02*
X18205D01*
X17674Y17633D02*
X18205D01*
X17674Y17636D02*
X18205D01*
X17673Y17639D02*
X18205D01*
X17672Y17642D02*
X18205D01*
X17672Y17645D02*
X18205D01*
X17671Y17648D02*
X18205D01*
X17670Y17651D02*
X18205D01*
X17668Y17654D02*
X18205D01*
X17667Y17657D02*
X18205D01*
X17665Y17660D02*
X18205D01*
X17663Y17663D02*
X18205D01*
X17541Y17666D02*
X17544D01*
X17661D02*
X18205D01*
X17539Y17669D02*
X17546D01*
X17659D02*
X18205D01*
X17537Y17672D02*
X17548D01*
X17657D02*
X18205D01*
X17534Y17675D02*
X17551D01*
X17654D02*
X18205D01*
X17531Y17678D02*
X17554D01*
X17651D02*
X18205D01*
X17528Y17681D02*
X17558D01*
X17647D02*
X18205D01*
X17525Y17684D02*
X17562D01*
X17643D02*
X18205D01*
X17522Y17687D02*
X17538D01*
X17717D02*
X18205D01*
X17519Y17690D02*
X17538D01*
X17717D02*
X18162D01*
X18188D02*
X18205D01*
X17516Y17693D02*
X17538D01*
X17717D02*
X18156D01*
X18194D02*
X18205D01*
X17513Y17696D02*
X17538D01*
X17717D02*
X18152D01*
X18198D02*
X18205D01*
X17510Y17699D02*
X17538D01*
X17717D02*
X18148D01*
X18202D02*
X18205D01*
X17507Y17702D02*
X17538D01*
X17717D02*
X18146D01*
X18204D02*
X18205D01*
X17504Y17705D02*
X17538D01*
X17717D02*
X18144D01*
X17501Y17708D02*
X17538D01*
X17717D02*
X18142D01*
X17498Y17711D02*
X17538D01*
X17717D02*
X18141D01*
X17493Y17714D02*
X17538D01*
X17717D02*
X18140D01*
X17399Y17717D02*
X17538D01*
X17717D02*
X18139D01*
X17399Y17720D02*
X17538D01*
X17717D02*
X18138D01*
X17399Y17723D02*
X17538D01*
X17717D02*
X18138D01*
X17399Y17726D02*
X17538D01*
X17717D02*
X18138D01*
X17399Y17729D02*
X17538D01*
X17717D02*
X18138D01*
X17399Y17732D02*
X17538D01*
X17717D02*
X18139D01*
X17399Y17735D02*
X17538D01*
X17717D02*
X18139D01*
X17399Y17738D02*
X17538D01*
X17717D02*
X18140D01*
X17399Y17741D02*
X17538D01*
X17717D02*
X18142D01*
X17399Y17744D02*
X17538D01*
X17717D02*
X18143D01*
X17399Y17747D02*
X17538D01*
X17717D02*
X18146D01*
X18204D02*
X18205D01*
X17399Y17750D02*
X17538D01*
X17717D02*
X18148D01*
X18202D02*
X18205D01*
X17399Y17753D02*
X17538D01*
X17717D02*
X18151D01*
X18199D02*
X18205D01*
X17399Y17756D02*
X17538D01*
X17717D02*
X18155D01*
X18195D02*
X18205D01*
X17399Y17759D02*
X17538D01*
X17717D02*
X18161D01*
X18189D02*
X18205D01*
X17399Y17762D02*
X17538D01*
X17717D02*
X18205D01*
X17399Y17765D02*
X18205D01*
X17399Y17768D02*
X18205D01*
X17399Y17771D02*
X18205D01*
X17399Y17774D02*
X18205D01*
X17399Y17777D02*
X18205D01*
X17399Y17780D02*
X17530D01*
X17725D02*
X18205D01*
X17399Y17783D02*
X17530D01*
X17725D02*
X18205D01*
X17399Y17786D02*
X17530D01*
X17725D02*
X18205D01*
X17399Y17789D02*
X17530D01*
X17725D02*
X18205D01*
X17399Y17792D02*
X17530D01*
X17725D02*
X18205D01*
X17399Y17795D02*
X17530D01*
X17725D02*
X18205D01*
X17399Y17798D02*
X17530D01*
X17725D02*
X18205D01*
X17399Y17801D02*
X17530D01*
X17725D02*
X18205D01*
X17399Y17804D02*
X17530D01*
X17725D02*
X18205D01*
X17399Y17807D02*
X17530D01*
X17725D02*
X18205D01*
X17399Y17810D02*
X17530D01*
X17725D02*
X18205D01*
X17413Y17813D02*
X17530D01*
X17725D02*
X18206D01*
X17413Y17816D02*
X17530D01*
X17725D02*
X18206D01*
X17413Y17819D02*
X17530D01*
X17725D02*
X18207D01*
X17413Y17822D02*
X17530D01*
X17725D02*
X18208D01*
X17413Y17825D02*
X17530D01*
X17725D02*
X18210D01*
X17413Y17828D02*
X17530D01*
X17725D02*
X18212D01*
X17413Y17831D02*
X17530D01*
X17725D02*
X18215D01*
X17413Y17834D02*
X17530D01*
X17725D02*
X18218D01*
X17413Y17837D02*
X17530D01*
X17725D02*
X18221D01*
X17413Y17840D02*
X17530D01*
X17725D02*
X18224D01*
X17413Y17843D02*
X17530D01*
X17725D02*
X18227D01*
X17413Y17846D02*
X17530D01*
X17725D02*
X18230D01*
X17413Y17849D02*
X17530D01*
X17725D02*
X18233D01*
X17413Y17852D02*
X17530D01*
X17725D02*
X18236D01*
X17413Y17855D02*
X17530D01*
X17725D02*
X18239D01*
X17413Y17858D02*
X17530D01*
X17725D02*
X18242D01*
X17413Y17861D02*
X17530D01*
X17725D02*
X18245D01*
X17413Y17864D02*
X17530D01*
X17725D02*
X18248D01*
X17413Y17867D02*
X17530D01*
X17725D02*
X18251D01*
X17413Y17870D02*
X17530D01*
X17725D02*
X18254D01*
X17413Y17873D02*
X18257D01*
X17413Y17876D02*
X18260D01*
X17413Y17879D02*
X17530D01*
X17725D02*
X18263D01*
X17413Y17882D02*
X17530D01*
X17725D02*
X18266D01*
X17413Y17885D02*
X17530D01*
X17725D02*
X18269D01*
X17413Y17888D02*
X17530D01*
X17725D02*
X18272D01*
X17413Y17891D02*
X17530D01*
X17725D02*
X18275D01*
X17413Y17894D02*
X17530D01*
X17725D02*
X18278D01*
X17413Y17897D02*
X17530D01*
X17413Y17900D02*
X17530D01*
X17413Y17903D02*
X17530D01*
X17413Y17906D02*
X17530D01*
X17413Y17909D02*
X17530D01*
X17413Y17912D02*
X17530D01*
X17413Y17915D02*
X17530D01*
X17413Y17918D02*
X17530D01*
X17413Y17921D02*
X17530D01*
X17413Y17924D02*
X17530D01*
X17413Y17927D02*
X17530D01*
X17413Y17930D02*
X17530D01*
X17413Y17933D02*
X17530D01*
X17413Y17936D02*
X17530D01*
X17413Y17939D02*
X17530D01*
X17413Y17942D02*
X17530D01*
X17413Y17945D02*
X17530D01*
X17413Y17948D02*
X17530D01*
X17413Y17951D02*
X17530D01*
X17413Y17954D02*
X17495D01*
X17515D02*
X17530D01*
X17413Y17957D02*
X17488D01*
X17522D02*
X17530D01*
X17413Y17960D02*
X17483D01*
X17527D02*
X17530D01*
X17413Y17963D02*
X17479D01*
X17413Y17966D02*
X17477D01*
X17413Y17969D02*
X17474D01*
X17413Y17972D02*
X17472D01*
X17413Y17975D02*
X17471D01*
X17413Y17978D02*
X17470D01*
X17413Y17981D02*
X17469D01*
X17413Y17984D02*
X17468D01*
X17413Y17987D02*
X17468D01*
X17413Y17990D02*
X17468D01*
X17413Y17993D02*
X17468D01*
X17413Y17996D02*
X17469D01*
X17413Y17999D02*
X17469D01*
X17413Y18002D02*
X17470D01*
X17413Y18005D02*
X17471D01*
X17413Y18008D02*
X17473D01*
X17413Y18011D02*
X17475D01*
X17413Y18014D02*
X17477D01*
X17413Y18017D02*
X17480D01*
X17530D02*
X17530D01*
X17412Y18020D02*
X17484D01*
X17526D02*
X17530D01*
X17412Y18023D02*
X17489D01*
X17521D02*
X17530D01*
X17411Y18026D02*
X17498D01*
X17512D02*
X17530D01*
X17409Y18029D02*
X17530D01*
X17407Y18032D02*
X17530D01*
X17404Y18035D02*
X17530D01*
X17403Y18038D02*
X17530D01*
X17403Y18041D02*
X17530D01*
X17403Y18044D02*
X17530D01*
X17403Y18047D02*
X17530D01*
X17403Y18050D02*
X17530D01*
X17403Y18053D02*
X17530D01*
X17403Y18056D02*
X17530D01*
X17403Y18059D02*
X17530D01*
X17403Y18062D02*
X17530D01*
X17403Y18065D02*
X17530D01*
X17403Y18068D02*
X17530D01*
X17403Y18071D02*
X17530D01*
X17403Y18074D02*
X17554D01*
X17403Y18077D02*
X17551D01*
X17403Y18080D02*
X17548D01*
X17403Y18083D02*
X17546D01*
X17403Y18086D02*
X17545D01*
X17403Y18089D02*
X17543D01*
X17403Y18092D02*
X17542D01*
X17403Y18095D02*
X17541D01*
X17403Y18098D02*
X17541D01*
X17403Y18101D02*
X17540D01*
X17403Y18104D02*
X17540D01*
X17403Y18107D02*
X17540D01*
X17403Y18110D02*
X17540D01*
X17403Y18113D02*
X17541D01*
X17403Y18116D02*
X17542D01*
X17403Y18119D02*
X17419D01*
X17403Y18122D02*
X17414D01*
X17403Y18125D02*
X17410D01*
X17403Y18128D02*
X17407D01*
X17403Y18131D02*
X17404D01*
X17846Y17497D02*
X17854Y17490D01*
X17859Y17482*
X17862Y17472*
X17862Y17462*
X17861Y17453*
X17985*
X17978Y17461*
X17974Y17471*
X17973Y17481*
X17975Y17492*
X17920*
X17912Y17493*
X17904Y17497*
X17846*
X17861Y17455D02*
X17983D01*
X17862Y17458D02*
X17980D01*
X17862Y17461D02*
X17978D01*
X17862Y17464D02*
X17977D01*
X17862Y17467D02*
X17975D01*
X17862Y17470D02*
X17974D01*
X17862Y17473D02*
X17974D01*
X17861Y17476D02*
X17973D01*
X17860Y17479D02*
X17973D01*
X17859Y17482D02*
X17973D01*
X17857Y17485D02*
X17973D01*
X17855Y17488D02*
X17974D01*
X17853Y17491D02*
X17975D01*
X17850Y17494D02*
X17910D01*
X17851Y18510D02*
X17901D01*
Y18401*
X17903Y18399*
Y18502*
X17975*
Y18378*
X17970*
Y18329*
X18005Y18365*
X18011Y18369*
X18018Y18372*
X18025Y18373*
X18076*
X18085Y18379*
X18094Y18383*
X18105Y18385*
X18115Y18383*
X18125Y18379*
X18133Y18373*
X18140Y18365*
X18144Y18355*
X18145Y18345*
X18144Y18334*
X18140Y18325*
X18133Y18316*
X18125Y18310*
X18115Y18306*
X18105Y18305*
X18094Y18306*
X18085Y18310*
X18076Y18317*
X18037*
X18029Y18309*
X18038Y18305*
X18047Y18299*
X18054Y18291*
X18058Y18282*
X18060Y18271*
X18059Y18261*
X18055Y18251*
X18049Y18243*
X18041Y18236*
X18032Y18232*
X18021Y18230*
X18025Y18220*
X18027Y18209*
X18025Y18198*
X18036*
X18045Y18204*
X18054Y18208*
X18065Y18210*
X18075Y18208*
X18085Y18204*
X18093Y18198*
X18100Y18190*
X18104Y18180*
X18105Y18170*
X18104Y18159*
X18100Y18150*
X18093Y18141*
X18085Y18135*
X18075Y18131*
X18065Y18130*
X18054Y18131*
X18045Y18135*
X18036Y18142*
X17940*
X17945Y18133*
X17949Y18123*
X17950Y18113*
X17948Y18103*
X18305*
X18312Y18111*
X18321Y18117*
X18331Y18120*
X18342Y18121*
X18353Y18119*
X18363Y18115*
X18371Y18108*
X18377Y18099*
X18381Y18089*
X18382Y18078*
X18380Y18068*
X18375Y18058*
X18381*
X18390Y18064*
X18399Y18068*
X18410Y18070*
X18420Y18068*
X18430Y18064*
X18438Y18058*
X18445Y18050*
X18449Y18040*
X18450Y18030*
X18450Y18026*
X18460Y18030*
X18471Y18031*
X18481Y18030*
X18491Y18026*
X18500Y18019*
X18506Y18010*
X18510Y18000*
X18512Y17990*
X18510Y17979*
X18506Y17968*
X18498Y17959*
X18489Y17953*
X18479Y17949*
X18467Y17948*
X18472Y17939*
X18475Y17929*
X18474Y17918*
X18471Y17908*
X18509Y17946*
X18515Y17950*
X18522Y17953*
X18530Y17954*
X18567*
Y17972*
X18720*
Y17977*
X18567*
Y18072*
X18720*
Y18601*
X18714Y18600*
X18558*
Y18533*
X18403*
Y18600*
X18381*
X18375Y18600*
X18369Y18600*
X18358*
Y18532*
X18203*
Y18600*
X18200*
X18193Y18593*
Y18519*
X18185*
Y18458*
X18096*
Y18519*
X18088*
Y18589*
X18061*
Y18567*
X17888*
Y18565*
X17887Y18557*
X17884Y18551*
X17880Y18545*
X17851Y18516*
Y18510*
X18053Y18502D02*
Y18378D01*
X17981*
Y18502*
X18053*
X18350Y18409D02*
Y18350D01*
X18211*
Y18509*
X18350*
Y18451*
X18356Y18458*
X18365Y18464*
X18375Y18466*
X18385Y18466*
X18395Y18463*
X18404Y18458*
X18411Y18450*
Y18510*
X18550*
Y18351*
X18411*
Y18409*
X18404Y18402*
X18395Y18396*
X18385Y18393*
X18375Y18393*
X18365Y18396*
X18356Y18401*
X18350Y18409*
X18378Y18245D02*
X18198D01*
X18193Y18246*
X18189Y18248*
X18186Y18252*
X18185Y18257*
Y18322*
X18186Y18327*
X18189Y18331*
X18193Y18334*
X18198Y18335*
X18453*
X18457Y18334*
X18461Y18331*
X18464Y18327*
X18465Y18322*
Y18257*
X18464Y18252*
X18461Y18248*
X18457Y18246*
X18453Y18245*
X18449*
X18460Y18238*
X18469Y18229*
X18477Y18218*
X18482Y18207*
X18485Y18194*
X18486Y18182*
X18485Y18167*
X18481Y18154*
X18474Y18141*
X18465Y18130*
X18454Y18121*
X18442Y18115*
X18428Y18110*
X18414Y18109*
X18400Y18110*
X18386Y18115*
X18374Y18121*
X18363Y18130*
X18354Y18141*
X18347Y18154*
X18343Y18167*
X18341Y18182*
X18343Y18194*
X18346Y18207*
X18351Y18218*
X18359Y18229*
X18368Y18238*
X18378Y18245*
X18472Y17910D02*
X18473D01*
X18473Y17913D02*
X18476D01*
X18474Y17916D02*
X18479D01*
X18475Y17919D02*
X18482D01*
X18475Y17922D02*
X18485D01*
X18475Y17925D02*
X18488D01*
X18475Y17928D02*
X18491D01*
X18475Y17931D02*
X18494D01*
X18474Y17934D02*
X18497D01*
X18473Y17937D02*
X18500D01*
X18472Y17940D02*
X18503D01*
X18471Y17943D02*
X18506D01*
X18469Y17946D02*
X18509D01*
X18477Y17949D02*
X18513D01*
X18487Y17952D02*
X18518D01*
X18492Y17955D02*
X18567D01*
X18497Y17958D02*
X18567D01*
X18500Y17961D02*
X18567D01*
X18502Y17964D02*
X18567D01*
X18505Y17967D02*
X18567D01*
X18506Y17970D02*
X18567D01*
X18508Y17973D02*
X18720D01*
X18509Y17976D02*
X18720D01*
X18510Y17979D02*
X18567D01*
X18511Y17982D02*
X18567D01*
X18511Y17985D02*
X18567D01*
X18512Y17988D02*
X18567D01*
X18512Y17991D02*
X18567D01*
X18511Y17994D02*
X18567D01*
X18511Y17997D02*
X18567D01*
X18510Y18000D02*
X18567D01*
X18509Y18003D02*
X18567D01*
X18508Y18006D02*
X18567D01*
X18507Y18009D02*
X18567D01*
X18505Y18012D02*
X18567D01*
X18503Y18015D02*
X18567D01*
X18501Y18018D02*
X18567D01*
X18498Y18021D02*
X18567D01*
X18494Y18024D02*
X18567D01*
X18450Y18027D02*
X18451D01*
X18489D02*
X18567D01*
X18450Y18030D02*
X18459D01*
X18481D02*
X18567D01*
X18450Y18033D02*
X18567D01*
X18450Y18036D02*
X18567D01*
X18449Y18039D02*
X18567D01*
X18448Y18042D02*
X18567D01*
X18447Y18045D02*
X18567D01*
X18446Y18048D02*
X18567D01*
X18444Y18051D02*
X18567D01*
X18442Y18054D02*
X18567D01*
X18440Y18057D02*
X18567D01*
X18376Y18060D02*
X18384D01*
X18436D02*
X18567D01*
X18378Y18063D02*
X18387D01*
X18433D02*
X18567D01*
X18379Y18066D02*
X18393D01*
X18427D02*
X18567D01*
X18380Y18069D02*
X18401D01*
X18419D02*
X18567D01*
X18381Y18072D02*
X18567D01*
X18381Y18075D02*
X18720D01*
X18382Y18078D02*
X18720D01*
X18382Y18081D02*
X18720D01*
X18381Y18084D02*
X18720D01*
X18381Y18087D02*
X18720D01*
X18380Y18090D02*
X18720D01*
X18379Y18093D02*
X18720D01*
X18378Y18096D02*
X18720D01*
X18377Y18099D02*
X18720D01*
X18375Y18102D02*
X18720D01*
X17949Y18105D02*
X18307D01*
X18373D02*
X18720D01*
X17949Y18108D02*
X18309D01*
X18371D02*
X18720D01*
X17950Y18111D02*
X18312D01*
X18368D02*
X18398D01*
X18429D02*
X18720D01*
X17950Y18114D02*
X18316D01*
X18364D02*
X18388D01*
X18440D02*
X18720D01*
X17950Y18117D02*
X18321D01*
X18359D02*
X18381D01*
X18446D02*
X18720D01*
X17950Y18120D02*
X18329D01*
X18351D02*
X18376D01*
X18452D02*
X18720D01*
X17949Y18123D02*
X18372D01*
X18456D02*
X18720D01*
X17948Y18126D02*
X18368D01*
X18460D02*
X18720D01*
X17947Y18129D02*
X18364D01*
X18464D02*
X18720D01*
X17946Y18132D02*
X18053D01*
X18077D02*
X18361D01*
X18467D02*
X18720D01*
X17945Y18135D02*
X18046D01*
X18084D02*
X18359D01*
X18469D02*
X18720D01*
X17943Y18138D02*
X18041D01*
X18089D02*
X18356D01*
X18472D02*
X18720D01*
X17940Y18141D02*
X18037D01*
X18093D02*
X18354D01*
X18474D02*
X18720D01*
X18095Y18144D02*
X18352D01*
X18476D02*
X18720D01*
X18098Y18147D02*
X18350D01*
X18478D02*
X18720D01*
X18100Y18150D02*
X18349D01*
X18479D02*
X18720D01*
X18101Y18153D02*
X18347D01*
X18480D02*
X18720D01*
X18102Y18156D02*
X18346D01*
X18482D02*
X18720D01*
X18103Y18159D02*
X18345D01*
X18483D02*
X18720D01*
X18104Y18162D02*
X18344D01*
X18484D02*
X18720D01*
X18105Y18165D02*
X18343D01*
X18484D02*
X18720D01*
X18105Y18168D02*
X18343D01*
X18485D02*
X18720D01*
X18105Y18171D02*
X18342D01*
X18486D02*
X18720D01*
X18105Y18174D02*
X18342D01*
X18486D02*
X18720D01*
X18104Y18177D02*
X18342D01*
X18486D02*
X18720D01*
X18104Y18180D02*
X18341D01*
X18486D02*
X18720D01*
X18103Y18183D02*
X18341D01*
X18486D02*
X18720D01*
X18102Y18186D02*
X18342D01*
X18486D02*
X18720D01*
X18100Y18189D02*
X18342D01*
X18486D02*
X18720D01*
X18098Y18192D02*
X18342D01*
X18486D02*
X18720D01*
X18096Y18195D02*
X18343D01*
X18485D02*
X18720D01*
X18025Y18198D02*
X18036D01*
X18094D02*
X18343D01*
X18485D02*
X18720D01*
X18026Y18201D02*
X18040D01*
X18090D02*
X18344D01*
X18484D02*
X18720D01*
X18026Y18204D02*
X18044D01*
X18086D02*
X18345D01*
X18483D02*
X18720D01*
X18026Y18207D02*
X18050D01*
X18080D02*
X18346D01*
X18482D02*
X18720D01*
X18027Y18210D02*
X18347D01*
X18481D02*
X18720D01*
X18026Y18213D02*
X18348D01*
X18479D02*
X18720D01*
X18026Y18216D02*
X18350D01*
X18478D02*
X18720D01*
X18026Y18219D02*
X18352D01*
X18476D02*
X18720D01*
X18025Y18222D02*
X18354D01*
X18474D02*
X18720D01*
X18024Y18225D02*
X18356D01*
X18472D02*
X18720D01*
X18022Y18228D02*
X18358D01*
X18470D02*
X18720D01*
X18029Y18231D02*
X18361D01*
X18467D02*
X18720D01*
X18037Y18234D02*
X18364D01*
X18464D02*
X18720D01*
X18043Y18237D02*
X18367D01*
X18461D02*
X18720D01*
X18046Y18240D02*
X18371D01*
X18457D02*
X18720D01*
X18050Y18243D02*
X18375D01*
X18453D02*
X18720D01*
X18052Y18246D02*
X18193D01*
X18457D02*
X18720D01*
X18054Y18249D02*
X18188D01*
X18462D02*
X18720D01*
X18056Y18252D02*
X18186D01*
X18464D02*
X18720D01*
X18057Y18255D02*
X18185D01*
X18465D02*
X18720D01*
X18058Y18258D02*
X18185D01*
X18465D02*
X18720D01*
X18059Y18261D02*
X18185D01*
X18465D02*
X18720D01*
X18060Y18264D02*
X18185D01*
X18465D02*
X18720D01*
X18060Y18267D02*
X18185D01*
X18465D02*
X18720D01*
X18060Y18270D02*
X18185D01*
X18465D02*
X18720D01*
X18060Y18273D02*
X18185D01*
X18465D02*
X18720D01*
X18060Y18276D02*
X18185D01*
X18465D02*
X18720D01*
X18059Y18279D02*
X18185D01*
X18465D02*
X18720D01*
X18058Y18282D02*
X18185D01*
X18465D02*
X18720D01*
X18057Y18285D02*
X18185D01*
X18465D02*
X18720D01*
X18056Y18288D02*
X18185D01*
X18465D02*
X18720D01*
X18054Y18291D02*
X18185D01*
X18465D02*
X18720D01*
X18052Y18294D02*
X18185D01*
X18465D02*
X18720D01*
X18050Y18297D02*
X18185D01*
X18465D02*
X18720D01*
X18046Y18300D02*
X18185D01*
X18465D02*
X18720D01*
X18043Y18303D02*
X18185D01*
X18465D02*
X18720D01*
X18037Y18306D02*
X18096D01*
X18114D02*
X18185D01*
X18465D02*
X18720D01*
X18029Y18309D02*
X18088D01*
X18122D02*
X18185D01*
X18465D02*
X18720D01*
X18032Y18312D02*
X18082D01*
X18128D02*
X18185D01*
X18465D02*
X18720D01*
X18035Y18315D02*
X18079D01*
X18131D02*
X18185D01*
X18465D02*
X18720D01*
X18135Y18318D02*
X18185D01*
X18465D02*
X18720D01*
X18137Y18321D02*
X18185D01*
X18465D02*
X18720D01*
X18139Y18324D02*
X18185D01*
X18465D02*
X18720D01*
X18141Y18327D02*
X18186D01*
X18464D02*
X18720D01*
X17970Y18330D02*
X17970D01*
X18142D02*
X18188D01*
X18463D02*
X18720D01*
X17970Y18333D02*
X17973D01*
X18143D02*
X18191D01*
X18459D02*
X18720D01*
X17970Y18336D02*
X17976D01*
X18144D02*
X18720D01*
X17970Y18339D02*
X17979D01*
X18145D02*
X18720D01*
X17970Y18342D02*
X17982D01*
X18145D02*
X18720D01*
X17970Y18345D02*
X17985D01*
X18145D02*
X18720D01*
X17970Y18348D02*
X17988D01*
X18145D02*
X18720D01*
X17970Y18351D02*
X17991D01*
X18145D02*
X18211D01*
X18350D02*
X18720D01*
X17970Y18354D02*
X17994D01*
X18144D02*
X18211D01*
X18350D02*
X18411D01*
X18550D02*
X18720D01*
X17970Y18357D02*
X17997D01*
X18143D02*
X18211D01*
X18350D02*
X18411D01*
X18550D02*
X18720D01*
X17970Y18360D02*
X18000D01*
X18142D02*
X18211D01*
X18350D02*
X18411D01*
X18550D02*
X18720D01*
X17970Y18363D02*
X18003D01*
X18141D02*
X18211D01*
X18350D02*
X18411D01*
X18550D02*
X18720D01*
X17970Y18366D02*
X18006D01*
X18139D02*
X18211D01*
X18350D02*
X18411D01*
X18550D02*
X18720D01*
X17970Y18369D02*
X18011D01*
X18137D02*
X18211D01*
X18350D02*
X18411D01*
X18550D02*
X18720D01*
X17970Y18372D02*
X18018D01*
X18135D02*
X18211D01*
X18350D02*
X18411D01*
X18550D02*
X18720D01*
X17970Y18375D02*
X18079D01*
X18131D02*
X18211D01*
X18350D02*
X18411D01*
X18550D02*
X18720D01*
X17975Y18378D02*
X17981D01*
X18053D02*
X18082D01*
X18128D02*
X18211D01*
X18350D02*
X18411D01*
X18550D02*
X18720D01*
X17975Y18381D02*
X17981D01*
X18053D02*
X18088D01*
X18122D02*
X18211D01*
X18350D02*
X18411D01*
X18550D02*
X18720D01*
X17975Y18384D02*
X17981D01*
X18053D02*
X18096D01*
X18114D02*
X18211D01*
X18350D02*
X18411D01*
X18550D02*
X18720D01*
X17975Y18387D02*
X17981D01*
X18053D02*
X18211D01*
X18350D02*
X18411D01*
X18550D02*
X18720D01*
X17975Y18390D02*
X17981D01*
X18053D02*
X18211D01*
X18350D02*
X18411D01*
X18550D02*
X18720D01*
X17975Y18393D02*
X17981D01*
X18053D02*
X18211D01*
X18350D02*
X18411D01*
X18550D02*
X18720D01*
X17975Y18396D02*
X17981D01*
X18053D02*
X18211D01*
X18350D02*
X18365D01*
X18395D02*
X18411D01*
X18550D02*
X18720D01*
X17975Y18399D02*
X17981D01*
X18053D02*
X18211D01*
X18350D02*
X18360D01*
X18400D02*
X18411D01*
X18550D02*
X18720D01*
X17901Y18402D02*
X17903D01*
X17975D02*
X17981D01*
X18053D02*
X18211D01*
X18350D02*
X18356D01*
X18404D02*
X18411D01*
X18550D02*
X18720D01*
X17901Y18405D02*
X17903D01*
X17975D02*
X17981D01*
X18053D02*
X18211D01*
X18350D02*
X18353D01*
X18407D02*
X18411D01*
X18550D02*
X18720D01*
X17901Y18408D02*
X17903D01*
X17975D02*
X17981D01*
X18053D02*
X18211D01*
X18350D02*
X18350D01*
X18410D02*
X18411D01*
X18550D02*
X18720D01*
X17901Y18411D02*
X17903D01*
X17975D02*
X17981D01*
X18053D02*
X18211D01*
X18550D02*
X18720D01*
X17901Y18414D02*
X17903D01*
X17975D02*
X17981D01*
X18053D02*
X18211D01*
X18550D02*
X18720D01*
X17901Y18417D02*
X17903D01*
X17975D02*
X17981D01*
X18053D02*
X18211D01*
X18550D02*
X18720D01*
X17901Y18420D02*
X17903D01*
X17975D02*
X17981D01*
X18053D02*
X18211D01*
X18550D02*
X18720D01*
X17901Y18423D02*
X17903D01*
X17975D02*
X17981D01*
X18053D02*
X18211D01*
X18550D02*
X18720D01*
X17901Y18426D02*
X17903D01*
X17975D02*
X17981D01*
X18053D02*
X18211D01*
X18550D02*
X18720D01*
X17901Y18429D02*
X17903D01*
X17975D02*
X17981D01*
X18053D02*
X18211D01*
X18550D02*
X18720D01*
X17901Y18432D02*
X17903D01*
X17975D02*
X17981D01*
X18053D02*
X18211D01*
X18550D02*
X18720D01*
X17901Y18435D02*
X17903D01*
X17975D02*
X17981D01*
X18053D02*
X18211D01*
X18550D02*
X18720D01*
X17901Y18438D02*
X17903D01*
X17975D02*
X17981D01*
X18053D02*
X18211D01*
X18550D02*
X18720D01*
X17901Y18441D02*
X17903D01*
X17975D02*
X17981D01*
X18053D02*
X18211D01*
X18550D02*
X18720D01*
X17901Y18444D02*
X17903D01*
X17975D02*
X17981D01*
X18053D02*
X18211D01*
X18550D02*
X18720D01*
X17901Y18447D02*
X17903D01*
X17975D02*
X17981D01*
X18053D02*
X18211D01*
X18550D02*
X18720D01*
X17901Y18450D02*
X17903D01*
X17975D02*
X17981D01*
X18053D02*
X18211D01*
X18550D02*
X18720D01*
X17901Y18453D02*
X17903D01*
X17975D02*
X17981D01*
X18053D02*
X18211D01*
X18350D02*
X18351D01*
X18409D02*
X18411D01*
X18550D02*
X18720D01*
X17901Y18456D02*
X17903D01*
X17975D02*
X17981D01*
X18053D02*
X18211D01*
X18350D02*
X18354D01*
X18406D02*
X18411D01*
X18550D02*
X18720D01*
X17901Y18459D02*
X17903D01*
X17975D02*
X17981D01*
X18053D02*
X18096D01*
X18185D02*
X18211D01*
X18350D02*
X18357D01*
X18403D02*
X18411D01*
X18550D02*
X18720D01*
X17901Y18462D02*
X17903D01*
X17975D02*
X17981D01*
X18053D02*
X18096D01*
X18185D02*
X18211D01*
X18350D02*
X18361D01*
X18399D02*
X18411D01*
X18550D02*
X18720D01*
X17901Y18465D02*
X17903D01*
X17975D02*
X17981D01*
X18053D02*
X18096D01*
X18185D02*
X18211D01*
X18350D02*
X18368D01*
X18392D02*
X18411D01*
X18550D02*
X18720D01*
X17901Y18468D02*
X17903D01*
X17975D02*
X17981D01*
X18053D02*
X18096D01*
X18185D02*
X18211D01*
X18350D02*
X18411D01*
X18550D02*
X18720D01*
X17901Y18471D02*
X17903D01*
X17975D02*
X17981D01*
X18053D02*
X18096D01*
X18185D02*
X18211D01*
X18350D02*
X18411D01*
X18550D02*
X18720D01*
X17901Y18474D02*
X17903D01*
X17975D02*
X17981D01*
X18053D02*
X18096D01*
X18185D02*
X18211D01*
X18350D02*
X18411D01*
X18550D02*
X18720D01*
X17901Y18477D02*
X17903D01*
X17975D02*
X17981D01*
X18053D02*
X18096D01*
X18185D02*
X18211D01*
X18350D02*
X18411D01*
X18550D02*
X18720D01*
X17901Y18480D02*
X17903D01*
X17975D02*
X17981D01*
X18053D02*
X18096D01*
X18185D02*
X18211D01*
X18350D02*
X18411D01*
X18550D02*
X18720D01*
X17901Y18483D02*
X17903D01*
X17975D02*
X17981D01*
X18053D02*
X18096D01*
X18185D02*
X18211D01*
X18350D02*
X18411D01*
X18550D02*
X18720D01*
X17901Y18486D02*
X17903D01*
X17975D02*
X17981D01*
X18053D02*
X18096D01*
X18185D02*
X18211D01*
X18350D02*
X18411D01*
X18550D02*
X18720D01*
X17901Y18489D02*
X17903D01*
X17975D02*
X17981D01*
X18053D02*
X18096D01*
X18185D02*
X18211D01*
X18350D02*
X18411D01*
X18550D02*
X18720D01*
X17901Y18492D02*
X17903D01*
X17975D02*
X17981D01*
X18053D02*
X18096D01*
X18185D02*
X18211D01*
X18350D02*
X18411D01*
X18550D02*
X18720D01*
X17901Y18495D02*
X17903D01*
X17975D02*
X17981D01*
X18053D02*
X18096D01*
X18185D02*
X18211D01*
X18350D02*
X18411D01*
X18550D02*
X18720D01*
X17901Y18498D02*
X17903D01*
X17975D02*
X17981D01*
X18053D02*
X18096D01*
X18185D02*
X18211D01*
X18350D02*
X18411D01*
X18550D02*
X18720D01*
X17901Y18501D02*
X17903D01*
X17975D02*
X17981D01*
X18053D02*
X18096D01*
X18185D02*
X18211D01*
X18350D02*
X18411D01*
X18550D02*
X18720D01*
X17901Y18504D02*
X18096D01*
X18185D02*
X18211D01*
X18350D02*
X18411D01*
X18550D02*
X18720D01*
X17901Y18507D02*
X18096D01*
X18185D02*
X18211D01*
X18350D02*
X18411D01*
X18550D02*
X18720D01*
X17851Y18510D02*
X18096D01*
X18185D02*
X18411D01*
X18550D02*
X18720D01*
X17851Y18513D02*
X18096D01*
X18185D02*
X18720D01*
X17851Y18516D02*
X18096D01*
X18185D02*
X18720D01*
X17854Y18519D02*
X18096D01*
X18185D02*
X18720D01*
X17857Y18522D02*
X18088D01*
X18193D02*
X18720D01*
X17860Y18525D02*
X18088D01*
X18193D02*
X18720D01*
X17863Y18528D02*
X18088D01*
X18193D02*
X18720D01*
X17866Y18531D02*
X18088D01*
X18193D02*
X18720D01*
X17869Y18534D02*
X18088D01*
X18193D02*
X18203D01*
X18358D02*
X18403D01*
X18558D02*
X18720D01*
X17872Y18537D02*
X18088D01*
X18193D02*
X18203D01*
X18358D02*
X18403D01*
X18558D02*
X18720D01*
X17875Y18540D02*
X18088D01*
X18193D02*
X18203D01*
X18358D02*
X18403D01*
X18558D02*
X18720D01*
X17878Y18543D02*
X18088D01*
X18193D02*
X18203D01*
X18358D02*
X18403D01*
X18558D02*
X18720D01*
X17881Y18546D02*
X18088D01*
X18193D02*
X18203D01*
X18358D02*
X18403D01*
X18558D02*
X18720D01*
X17883Y18549D02*
X18088D01*
X18193D02*
X18203D01*
X18358D02*
X18403D01*
X18558D02*
X18720D01*
X17885Y18552D02*
X18088D01*
X18193D02*
X18203D01*
X18358D02*
X18403D01*
X18558D02*
X18720D01*
X17886Y18555D02*
X18088D01*
X18193D02*
X18203D01*
X18358D02*
X18403D01*
X18558D02*
X18720D01*
X17887Y18558D02*
X18088D01*
X18193D02*
X18203D01*
X18358D02*
X18403D01*
X18558D02*
X18720D01*
X17888Y18561D02*
X18088D01*
X18193D02*
X18203D01*
X18358D02*
X18403D01*
X18558D02*
X18720D01*
X17888Y18564D02*
X18088D01*
X18193D02*
X18203D01*
X18358D02*
X18403D01*
X18558D02*
X18720D01*
X18061Y18567D02*
X18088D01*
X18193D02*
X18203D01*
X18358D02*
X18403D01*
X18558D02*
X18720D01*
X18061Y18570D02*
X18088D01*
X18193D02*
X18203D01*
X18358D02*
X18403D01*
X18558D02*
X18720D01*
X18061Y18573D02*
X18088D01*
X18193D02*
X18203D01*
X18358D02*
X18403D01*
X18558D02*
X18720D01*
X18061Y18576D02*
X18088D01*
X18193D02*
X18203D01*
X18358D02*
X18403D01*
X18558D02*
X18720D01*
X18061Y18579D02*
X18088D01*
X18193D02*
X18203D01*
X18358D02*
X18403D01*
X18558D02*
X18720D01*
X18061Y18582D02*
X18088D01*
X18193D02*
X18203D01*
X18358D02*
X18403D01*
X18558D02*
X18720D01*
X18061Y18585D02*
X18088D01*
X18193D02*
X18203D01*
X18358D02*
X18403D01*
X18558D02*
X18720D01*
X18061Y18588D02*
X18088D01*
X18193D02*
X18203D01*
X18358D02*
X18403D01*
X18558D02*
X18720D01*
X18193Y18591D02*
X18203D01*
X18358D02*
X18403D01*
X18558D02*
X18720D01*
X18194Y18594D02*
X18203D01*
X18358D02*
X18403D01*
X18558D02*
X18720D01*
X18197Y18597D02*
X18203D01*
X18358D02*
X18403D01*
X18558D02*
X18720D01*
X18200Y18600D02*
X18203D01*
X18358D02*
X18403D01*
X18558D02*
X18720D01*
X18450Y18278D02*
X18447Y18272D01*
X18441Y18269*
X18428*
X18422Y18272*
X18419Y18278*
X18422Y18285*
X18428Y18288*
X18441*
X18447Y18291*
X18450Y18297*
X18447Y18303*
X18441Y18307*
X18428*
X18422Y18303*
X18419Y18297*
X18397Y18272D02*
X18391Y18269D01*
X18384*
X18378Y18272*
X18375Y18278*
Y18297*
X18378Y18303*
X18384Y18307*
X18391*
X18397Y18303*
X18400Y18297*
Y18278*
X18397Y18272*
X18378Y18303*
X18341Y18269D02*
X18334Y18272D01*
X18328Y18278*
X18325Y18288*
Y18297*
X18328Y18303*
X18334Y18307*
X18341*
X18347Y18303*
X18350Y18297*
X18347Y18291*
X18341Y18288*
X18334*
X18328Y18291*
X18325Y18297*
X18300Y18269D02*
X18275Y18307D01*
X18300*
X18244Y18269D02*
X18231D01*
X18238D02*
Y18307D01*
X18244Y18300*
X18727Y18664D02*
Y18670D01*
X18719Y18679*
X17944*
X17930Y18665*
Y18618*
X17939Y18609*
X18101*
X18123Y18586*
Y18564*
X18130Y18558*
X18160*
X18167Y18565*
Y18595*
X18192Y18620*
X18714*
X18732Y18639*
X18727Y18664*
X18129Y18559D02*
X18161D01*
X18126Y18562D02*
X18164D01*
X18123Y18565D02*
X18167D01*
X18123Y18568D02*
X18167D01*
X18123Y18571D02*
X18167D01*
X18123Y18574D02*
X18167D01*
X18123Y18577D02*
X18167D01*
X18123Y18580D02*
X18167D01*
X18123Y18583D02*
X18167D01*
X18123Y18586D02*
X18167D01*
X18121Y18589D02*
X18167D01*
X18118Y18592D02*
X18167D01*
X18115Y18595D02*
X18167D01*
X18112Y18598D02*
X18170D01*
X18109Y18601D02*
X18173D01*
X18106Y18604D02*
X18176D01*
X18103Y18607D02*
X18179D01*
X17938Y18610D02*
X18182D01*
X17935Y18613D02*
X18185D01*
X17932Y18616D02*
X18188D01*
X17930Y18619D02*
X18191D01*
X17930Y18622D02*
X18715D01*
X17930Y18625D02*
X18718D01*
X17930Y18628D02*
X18721D01*
X17930Y18631D02*
X18724D01*
X17930Y18634D02*
X18727D01*
X17930Y18637D02*
X18730D01*
X17930Y18640D02*
X18732D01*
X17930Y18643D02*
X18732D01*
X17930Y18646D02*
X18731D01*
X17930Y18649D02*
X18730D01*
X17930Y18652D02*
X18730D01*
X17930Y18655D02*
X18729D01*
X17930Y18658D02*
X18729D01*
X17930Y18661D02*
X18728D01*
X17930Y18664D02*
X18727D01*
X17932Y18667D02*
X18727D01*
X17935Y18670D02*
X18727D01*
X17938Y18673D02*
X18725D01*
X17941Y18676D02*
X18722D01*
D02*
D76*
X17335Y17420D03*
X18670Y17415D03*
D02*
D78*
X17602Y17625D03*
D02*
D79*
X18141Y18493D03*
Y18562D03*
X18234Y17393D03*
Y17462D03*
X18314Y17393D03*
Y17462D03*
X18434Y17393D03*
Y17462D03*
X18514Y17393D03*
Y17462D03*
D02*
D82*
X17290Y17520D03*
X17310Y17970D03*
X17355Y18225D03*
X17375Y18570D03*
X17430Y17555D03*
X17448Y17402D03*
X17455Y18570D03*
X17465Y18395D03*
X17505Y17990D03*
X17510Y17400D03*
X17560Y18570D03*
X17580Y18105D03*
X17585Y17450D03*
X17625Y18635D03*
X17660Y18350D03*
X17710Y17465D03*
X17741Y18347D03*
X17823Y17465D03*
Y18327D03*
X17865Y18030D03*
Y18285D03*
X17910Y18115D03*
X17960Y17560D03*
Y17990D03*
X17985Y18210D03*
X18010Y17480D03*
X18020Y18270D03*
X18065Y18170D03*
X18095Y17465D03*
X18105Y18345D03*
X18155Y17520D03*
X18175Y17725D03*
X18340Y18080D03*
X18375Y18640D03*
X18380Y18430D03*
X18410Y18030D03*
X18435Y17675D03*
Y17925D03*
X18470Y17990D03*
X18475Y17395D03*
X18515Y17520D03*
X18705Y17570D03*
X18715Y18645D03*
D02*
D83*
X17288Y17689D02*
Y17602D01*
X17290Y17600*
Y17608*
X17288Y17770D02*
Y17847D01*
X17280Y17855*
X17290Y17857*
X17283*
X17270Y17870*
Y18030*
X17280Y18040*
X17291Y18038*
X17290Y17857D02*
Y17815D01*
X17505*
Y17972*
X17291Y18118D02*
Y18153D01*
X17270Y18175*
Y18615*
X17290Y18635*
X17310*
X17309Y18637*
X17308Y17520D02*
X17330D01*
Y17521*
X17309Y18440D02*
X17305Y18430D01*
X17310Y18425*
Y18200*
X17330Y18180*
X17395*
X17430Y18145*
X17740*
X17780Y18105*
X17896*
X17330Y17944D02*
Y17950D01*
X17322Y17957*
X17355Y18242D02*
Y18340D01*
X17390Y18375*
Y18430*
X17385Y18435*
X17387Y18440*
X17357Y17770D02*
Y17767D01*
X17285Y17695*
X17288Y17689*
X17360Y18038D02*
Y18115D01*
X17360Y18115*
X17360Y18118*
X17370Y17608D02*
Y17550D01*
X17420Y17500*
X17885*
X17900Y17485*
X17993*
X17370Y17857D02*
X17372D01*
X17385Y17870*
Y18015*
X17365Y18035*
X17360Y18038*
X17387Y18637D02*
Y18582D01*
X17387Y18582*
X17465Y18412D02*
Y18440D01*
X17466*
Y18637D02*
Y18583D01*
X17505Y17972D02*
Y17750D01*
X17530Y17725*
X17628*
X17522Y17387D02*
X17525Y17385D01*
X18240*
X18245Y17390*
X18234Y17393*
X17545Y18579D02*
X17545Y18580D01*
X17545Y18637*
X17597Y17437D02*
X17610Y17425D01*
X18055*
X18083Y17452*
X17598Y18105D02*
X17735D01*
X17765Y18075*
X18323*
X17628Y17925D02*
X18418D01*
X17660Y18367D02*
Y18520D01*
X17705Y18565*
Y18640*
X17702Y18637*
X17781D02*
Y18556D01*
X17741Y18517*
Y18364*
X17805Y17465D02*
X17727D01*
X17860Y18637D02*
Y18565D01*
X17823Y18527*
Y18345*
X17880D02*
Y18380D01*
X17860Y18400*
X17860Y18440*
X17883Y18285D02*
X17900D01*
X17930Y18315*
Y18345*
X17939Y18440D02*
X18017D01*
X17942Y17560D02*
X17540D01*
X17515Y17585*
Y17655*
X17481Y17689*
X17357*
X17970Y18200D02*
X17965Y18195D01*
X17650*
X17605Y18240*
Y18365*
X17630Y18390*
Y18445*
X17635Y18450*
X17624Y18440*
X17977Y17990D02*
X18453D01*
X18003Y18270D02*
X17985D01*
X17935Y18220*
X17723*
X17698Y18245*
Y18420*
X17700Y18422*
Y18430*
X17702Y18440*
X18017Y18637D02*
X18017D01*
X18015Y18635*
X17940*
X17939Y18636*
Y18637*
X18048Y18170D02*
X17585D01*
X17545Y18210*
Y18435*
X17550Y18440*
X17545*
X18088Y18345D02*
X18025D01*
X17925Y18245*
X17798*
X17780Y18262*
Y18440*
X17785Y18445*
X17781Y18440*
X18138Y17520D02*
X17920D01*
X17915Y17525*
X17455*
X17440Y17540*
X18141Y18493D02*
Y18435D01*
X18140Y18435*
X18290*
X18280Y18430*
X18141Y18493D02*
Y18435D01*
X18140Y18435*
X18020*
X18015Y18440*
X18017*
X18141Y18562D02*
Y18639D01*
X18140Y18640*
X18280*
Y18620*
X18141Y18562D02*
Y18639D01*
X18140Y18640*
X18020*
X18015Y18635*
X18017Y18637*
X18158Y17725D02*
X17628D01*
X18314Y17393D02*
X18320Y17380D01*
Y17370*
X18305Y17355*
X17458*
X17448Y17365*
Y17385*
X18358Y18640D02*
X18280D01*
Y18620*
X18363Y18430D02*
X18280D01*
X18392Y18030D02*
X17883D01*
X18435Y17657D02*
X18434Y17462D01*
X18458Y17395D02*
X18435D01*
X18434Y17393*
X18480Y18430D02*
Y18430D01*
X18280*
X18480Y18620D02*
Y18644D01*
X18480Y18645*
X18698*
X18480Y18620D02*
Y18640D01*
X18291*
X18290Y18639*
Y18620*
X18280*
X18514Y17393D02*
X18427D01*
X18425Y17395*
X18434Y17393*
X18514Y17462D02*
Y17669D01*
X18570Y17725*
X18665*
X18515Y17502D02*
X18514Y17462D01*
X18665Y17825D02*
X18365D01*
X18315Y17775*
Y17465*
X18320Y17460*
X18314Y17462*
X18665Y17925D02*
X18530D01*
X18480Y17875*
X18300*
X18235Y17810*
Y17460*
X18234Y17462*
X18705Y17587D02*
Y17685D01*
X18665Y17725*
D02*
D90*
X17288Y17689D03*
X17288Y17770D03*
X17291Y18038D03*
Y18118D03*
X17357Y17689D03*
X17357Y17770D03*
X17360Y18038D03*
Y18118D03*
D02*
D91*
X17309Y18440D03*
Y18637D03*
X17387Y18440D03*
Y18637D03*
X17466Y18440D03*
Y18637D03*
X17545Y18440D03*
Y18637D03*
X17624D03*
X17702D03*
X17781D03*
X17860D03*
X17939Y18440D03*
Y18637D03*
X18017Y18440D03*
Y18637D03*
D02*
D150*
X17880Y18345D03*
X17930D03*
D02*
D151*
X17628Y17725D03*
Y17825D03*
Y17925D03*
Y18025D03*
X18665Y17725D03*
Y17825D03*
Y17925D03*
Y18025D03*
D02*
D152*
X18280Y18430D03*
Y18620D03*
X18480Y18430D03*
Y18620D03*
D02*
D153*
X17290Y17608D03*
Y17857D03*
X17330Y17521D03*
Y17944D03*
X17370Y17608D03*
Y17857D03*
D02*
D154*
X17624Y18440D03*
X17702D03*
X17781D03*
X17860D03*
X0Y0D02*
M02*
