%FSLAX23Y23*%
%MOIN*%
G04 EasyPC Gerber Version 13.0.2 Build 2807 *
%ADD75C,0.00500*%
%ADD74C,0.01200*%
X0Y0D02*
D02*
D74*
X17255Y17540D02*
Y17340D01*
X17455*
X17269Y18617D02*
X18057D01*
Y18459*
X17269*
Y18617*
X17335Y17470D02*
X17323Y17468D01*
X17312Y17464*
X17302Y17457*
X17294Y17448*
X17288Y17437*
X17285Y17426*
Y17414*
X17288Y17402*
X17294Y17391*
X17302Y17382*
X17312Y17375*
X17323Y17371*
X17335Y17370*
X17347Y17371*
X17358Y17375*
X17368Y17382*
X17376Y17391*
X17382Y17402*
X17385Y17414*
Y17426*
X17382Y17437*
X17376Y17448*
X17368Y17457*
X17358Y17464*
X17347Y17468*
X17335Y17470*
X17455Y18690D02*
X17255D01*
Y18490*
X17578Y18237D02*
X17477Y18137D01*
X17790Y17525D02*
Y18237D01*
X18090Y17637D02*
X18089Y17623D01*
X18084Y17609*
X18077Y17597*
X18067Y17586*
X18056Y17578*
X18043Y17572*
X18029Y17569*
X18014Y17569*
X18000Y17572*
X17987Y17578*
X17976Y17586*
X17966Y17597*
X17959Y17609*
X17955Y17623*
X17953Y17637*
X17954Y17862*
X17955Y17876*
X17959Y17890*
X17967Y17902*
X17976Y17913*
X17988Y17921*
X18001Y17927*
X18015Y17930*
X18029Y17930*
X18043Y17927*
X18056Y17921*
X18068Y17913*
X18077Y17902*
X18085Y17890*
X18089Y17876*
X18091Y17862*
X18090Y17637*
X18415D02*
X18414Y17623D01*
X18409Y17609*
X18402Y17597*
X18392Y17586*
X18381Y17578*
X18368Y17572*
X18354Y17569*
X18339Y17569*
X18325Y17572*
X18312Y17578*
X18301Y17586*
X18291Y17597*
X18284Y17609*
X18280Y17623*
X18278Y17637*
X18279Y17862*
X18280Y17876*
X18284Y17890*
X18292Y17902*
X18301Y17913*
X18313Y17921*
X18326Y17927*
X18340Y17930*
X18354Y17930*
X18368Y17927*
X18381Y17921*
X18393Y17913*
X18402Y17902*
X18410Y17890*
X18414Y17876*
X18416Y17862*
X18415Y17637*
X18453Y17525D02*
Y18237D01*
X18545Y17340D02*
X18745D01*
Y17540*
X18670Y17465D02*
X18658Y17463D01*
X18647Y17459*
X18637Y17452*
X18629Y17443*
X18623Y17432*
X18620Y17421*
Y17409*
X18623Y17397*
X18629Y17386*
X18637Y17377*
X18647Y17370*
X18658Y17366*
X18670Y17365*
X18682Y17366*
X18693Y17370*
X18703Y17377*
X18711Y17386*
X18717Y17397*
X18720Y17409*
Y17421*
X18717Y17432*
X18711Y17443*
X18703Y17452*
X18693Y17459*
X18682Y17463*
X18670Y17465*
X18690Y17525D02*
Y17625D01*
X18602*
Y18125*
X18690*
Y18237*
X17477*
Y18075*
X17690*
Y17675*
X17477*
Y17525*
X18690*
X18746Y18489D02*
Y18689D01*
X18546*
D02*
D75*
X17260Y17490D02*
Y17640D01*
X17400*
Y17490*
X17261*
X17263Y17802D02*
X17382D01*
Y17739*
X17263*
Y17802*
X17358Y18165D02*
Y18203D01*
X17336*
X17330Y18199*
X17327Y18193*
X17330Y18187*
X17336Y18184*
X17358*
X17336D02*
X17327Y18165D01*
X17299D02*
X17292Y18168D01*
X17286Y18174*
X17283Y18184*
Y18193*
X17286Y18199*
X17292Y18203*
X17299*
X17305Y18199*
X17308Y18193*
X17305Y18187*
X17299Y18184*
X17292*
X17286Y18187*
X17283Y18193*
X17344Y17559D02*
Y17597D01*
X17360D02*
X17329D01*
X17304Y17559D02*
X17291D01*
X17298D02*
Y17597D01*
X17304Y17590*
X17360Y17749D02*
Y17787D01*
X17338*
X17332Y17783*
X17329Y17777*
X17332Y17771*
X17338Y17768*
X17360*
X17338D02*
X17329Y17749D01*
X17310Y17758D02*
X17307Y17765D01*
X17301Y17768*
X17294*
X17288Y17765*
X17285Y17758*
X17288Y17752*
X17294Y17749*
X17301*
X17307Y17752*
X17310Y17758*
Y17768*
X17307Y17777*
X17301Y17783*
X17294Y17787*
X17360Y18022D02*
Y18059D01*
X17339*
X17332Y18056*
X17329Y18050*
X17332Y18043*
X17339Y18040*
X17360*
X17339D02*
X17329Y18022D01*
X17301Y18040D02*
X17295D01*
X17289Y18043*
X17285Y18050*
X17289Y18056*
X17295Y18059*
X17301*
X17307Y18056*
X17310Y18050*
X17307Y18043*
X17301Y18040*
X17307Y18037*
X17310Y18031*
X17307Y18025*
X17301Y18022*
X17295*
X17289Y18025*
X17285Y18031*
X17289Y18037*
X17295Y18040*
X17362Y17672D02*
Y17710D01*
X17340*
X17334Y17707*
X17331Y17701*
X17334Y17694*
X17340Y17691*
X17362*
X17340D02*
X17331Y17672D01*
X17312Y17676D02*
X17306Y17672D01*
X17296*
X17290Y17676*
X17287Y17682*
Y17685*
X17290Y17691*
X17296Y17694*
X17312*
Y17710*
X17287*
X17354Y17882D02*
Y17919D01*
X17370D02*
X17338D01*
X17295Y17882D02*
X17320D01*
X17298Y17904*
X17295Y17910*
X17298Y17916*
X17304Y17919*
X17313*
X17320Y17916*
X17382Y17658D02*
X17263D01*
Y17720*
X17382*
Y17658*
X17385Y18007D02*
X17266D01*
Y18069*
X17385*
Y18007*
Y18087D02*
X17266D01*
Y18149*
X17385*
Y18087*
X17400Y17975D02*
Y17825D01*
X17260*
Y17975*
X17399*
X17855Y18320D02*
X17955D01*
Y18370*
X17855*
Y18320*
X17865Y17925D02*
Y17825D01*
X17815Y17875*
X17865Y17925*
X17864Y17826D02*
X17865D01*
X17861Y17829D02*
X17865D01*
X17858Y17832D02*
X17865D01*
X17855Y17835D02*
X17865D01*
X17852Y17838D02*
X17865D01*
X17849Y17841D02*
X17865D01*
X17846Y17844D02*
X17865D01*
X17843Y17847D02*
X17865D01*
X17840Y17850D02*
X17865D01*
X17837Y17853D02*
X17865D01*
X17834Y17856D02*
X17865D01*
X17831Y17859D02*
X17865D01*
X17828Y17862D02*
X17865D01*
X17825Y17865D02*
X17865D01*
X17822Y17868D02*
X17865D01*
X17819Y17871D02*
X17865D01*
X17816Y17874D02*
X17865D01*
X17817Y17877D02*
X17865D01*
X17820Y17880D02*
X17865D01*
X17823Y17883D02*
X17865D01*
X17826Y17886D02*
X17865D01*
X17829Y17889D02*
X17865D01*
X17832Y17892D02*
X17865D01*
X17835Y17895D02*
X17865D01*
X17838Y17898D02*
X17865D01*
X17841Y17901D02*
X17865D01*
X17844Y17904D02*
X17865D01*
X17847Y17907D02*
X17865D01*
X17850Y17910D02*
X17865D01*
X17853Y17913D02*
X17865D01*
X17856Y17916D02*
X17865D01*
X17859Y17919D02*
X17865D01*
X17862Y17922D02*
X17865D01*
X18040Y18335D02*
X18037Y18332D01*
X18031Y18329*
X18024Y18332*
X18021Y18335*
Y18367*
X18015*
X18021D02*
X18034D01*
X17965Y18329D02*
X17990D01*
X17968Y18351*
X17965Y18357*
X17968Y18363*
X17974Y18367*
X17984*
X17990Y18363*
X18172Y18587D02*
Y18468D01*
X18109*
Y18587*
X18172*
X18149Y18422D02*
X18152Y18419D01*
X18158Y18416*
X18168*
X18174Y18419*
X18177Y18422*
X18180Y18429*
Y18441*
X18177Y18447*
X18174Y18451*
X18168Y18454*
X18158*
X18152Y18451*
X18149Y18447*
X18105Y18416D02*
X18130D01*
X18108Y18438*
X18105Y18444*
X18108Y18451*
X18115Y18454*
X18124*
X18130Y18451*
X18203Y17368D02*
Y17487D01*
X18266*
Y17368*
X18203*
X18214Y17395D02*
X18252D01*
Y17417*
X18249Y17423*
X18243Y17426*
X18236Y17423*
X18233Y17417*
Y17395*
Y17417D02*
X18214Y17426D01*
Y17470D02*
Y17445D01*
X18236Y17467*
X18243Y17470*
X18249Y17467*
X18252Y17460*
Y17451*
X18249Y17445*
X18205Y18273D02*
X18202Y18267D01*
X18196Y18264*
X18183*
X18177Y18267*
X18174Y18273*
X18177Y18280*
X18183Y18283*
X18196*
X18202Y18286*
X18205Y18292*
X18202Y18298*
X18196Y18302*
X18183*
X18177Y18298*
X18174Y18292*
X18146Y18264D02*
X18133D01*
X18139D02*
Y18302D01*
X18146D02*
X18133D01*
X18105Y18264D02*
Y18302D01*
X18089Y18283*
X18074Y18302*
Y18264*
X18049D02*
X18036D01*
X18043D02*
Y18302D01*
X18049Y18295*
X18283Y17368D02*
Y17487D01*
X18346*
Y17368*
X18283*
X18294Y17395D02*
X18332D01*
Y17417*
X18329Y17423*
X18323Y17426*
X18316Y17423*
X18313Y17417*
Y17395*
Y17417D02*
X18294Y17426D01*
Y17451D02*
Y17463D01*
Y17457D02*
X18332D01*
X18326Y17451*
X18284Y18334D02*
X18287Y18337D01*
X18293Y18340*
X18302*
X18309Y18337*
X18312Y18334*
X18315Y18328*
Y18315*
X18312Y18309*
X18309Y18306*
X18302Y18303*
X18293*
X18287Y18306*
X18284Y18309*
X18262Y18337D02*
X18256Y18340D01*
X18249*
X18243Y18337*
X18240Y18331*
X18243Y18325*
X18249Y18322*
X18256*
X18249D02*
X18243Y18318D01*
X18240Y18312*
X18243Y18306*
X18249Y18303*
X18256*
X18262Y18306*
X18360Y18690D02*
Y18640D01*
X18200*
Y18690*
X18360*
X18200Y18642D02*
X18360D01*
X18200Y18645D02*
X18360D01*
X18200Y18648D02*
X18360D01*
X18200Y18651D02*
X18360D01*
X18200Y18654D02*
X18360D01*
X18200Y18657D02*
X18360D01*
X18200Y18660D02*
X18360D01*
X18200Y18663D02*
X18360D01*
X18200Y18666D02*
X18360D01*
X18200Y18669D02*
X18360D01*
X18200Y18672D02*
X18360D01*
X18200Y18675D02*
X18360D01*
X18200Y18678D02*
X18360D01*
X18200Y18681D02*
X18360D01*
X18200Y18684D02*
X18360D01*
X18200Y18687D02*
X18360D01*
Y18690D02*
Y18360D01*
X18200*
Y18690*
X18360*
X18403Y17368D02*
Y17487D01*
X18466*
Y17368*
X18403*
X18414Y17400D02*
X18452D01*
Y17422*
X18449Y17428*
X18442Y17431*
X18436Y17428*
X18433Y17422*
Y17400*
Y17422D02*
X18414Y17431D01*
X18418Y17453D02*
X18414Y17459D01*
Y17465*
X18418Y17472*
X18424Y17475*
X18430Y17472*
X18433Y17465*
Y17459*
Y17465D02*
X18436Y17472D01*
X18442Y17475*
X18449Y17472*
X18452Y17465*
Y17459*
X18449Y17453*
X18483Y17368D02*
Y17487D01*
X18546*
Y17368*
X18483*
X18494Y17400D02*
X18532D01*
Y17422*
X18529Y17428*
X18523Y17431*
X18516Y17428*
X18513Y17422*
Y17400*
Y17422D02*
X18494Y17431D01*
Y17465D02*
X18532D01*
X18507Y17450*
Y17475*
X18484Y18312D02*
X18487Y18309D01*
X18493Y18306*
X18502*
X18509Y18309*
X18512Y18312*
X18515Y18318*
Y18331*
X18512Y18337*
X18509Y18340*
X18502Y18343*
X18493*
X18487Y18340*
X18484Y18337*
X18449Y18306D02*
Y18343D01*
X18465Y18318*
X18440*
X18560Y18690D02*
Y18640D01*
X18400*
Y18690*
X18560*
X18400Y18642D02*
X18560D01*
X18400Y18645D02*
X18560D01*
X18400Y18648D02*
X18560D01*
X18400Y18651D02*
X18560D01*
X18400Y18654D02*
X18560D01*
X18400Y18657D02*
X18560D01*
X18400Y18660D02*
X18560D01*
X18400Y18663D02*
X18560D01*
X18400Y18666D02*
X18560D01*
X18400Y18669D02*
X18560D01*
X18400Y18672D02*
X18560D01*
X18400Y18675D02*
X18560D01*
X18400Y18678D02*
X18560D01*
X18400Y18681D02*
X18560D01*
X18400Y18684D02*
X18560D01*
X18400Y18687D02*
X18560D01*
Y18690D02*
Y18360D01*
X18400*
Y18690*
X18560*
X0Y0D02*
M02*
