M48
INCH
T1C00.024
T2C00.090
T3C00.100
%
T001
X17290Y17520
X17310Y17970
X17355Y18225
X17375Y18570
X17430Y17555
X17448Y17402
X17455Y18570
X17465Y18395
X17505Y17990
X17510Y17400
X17560Y18570
X17580Y18105
X17585Y17450
X17625Y18635
X17660Y18350
X17710Y17465
X17741Y18347
X17823Y17465
X17823Y18327
X17865Y18030
X17865Y18285
X17910Y18115
X17960Y17560
X17960Y17990
X17985Y18210
X18010Y17480
X18020Y18270
X18065Y18170
X18095Y17465
X18105Y18345
X18155Y17520
X18175Y17725
X18340Y18080
X18375Y18640
X18380Y18430
X18410Y18030
X18435Y17675
X18435Y17925
X18470Y17990
X18475Y17395
X18515Y17520
X18705Y17570
X18715Y18645
T002
X17603Y17625
X18414Y18182
T003
X17335Y17420
X18670Y17415
M30
