%FSLAX23Y23*%
%MOIN*%
G04 EasyPC Gerber Version 13.0.2 Build 2807 *
%ADD105R,0.00100X0.00100*%
%ADD97R,0.00800X0.08000*%
%ADD112R,0.02000X0.05000*%
%ADD107R,0.02200X0.07000*%
%ADD96R,0.03000X0.07000*%
%ADD103R,0.03150X0.03937*%
%ADD99R,0.03500X0.08000*%
%ADD98R,0.08000X0.00800*%
%ADD101R,0.09000X0.01800*%
%ADD111R,0.04000X0.05000*%
%ADD90R,0.04000X0.06000*%
%ADD79R,0.06000X0.04000*%
%ADD114R,0.04000X0.09000*%
%ADD113R,0.04000X0.10000*%
%ADD91R,0.04300X0.09500*%
%ADD102R,0.07000X0.04000*%
%ADD100R,0.05000X0.12000*%
%ADD104R,0.05500X0.05500*%
%ADD108R,0.08000X0.09000*%
%ADD109R,0.08000X0.10000*%
%ADD75C,0.00500*%
%ADD95C,0.00800*%
%ADD116C,0.00900*%
%ADD92C,0.01000*%
%ADD73C,0.02500*%
%ADD115C,0.04000*%
%ADD110C,0.06000*%
%ADD76C,0.12000*%
%ADD106R,0.13000X0.11000*%
X0Y0D02*
D02*
D73*
X18336Y17548D02*
Y17499D01*
X18369Y17466*
X18384Y17465*
D02*
D75*
X17248Y17494D02*
X17260Y17504D01*
X17274Y17511*
X17289Y17515*
X17305Y17516*
X17321Y17514*
X17335Y17509*
X17349Y17501*
X17361Y17491*
X17370Y17478*
X17462*
Y17381*
X17718*
Y17438*
X17713Y17436*
X17583*
X17577Y17438*
X17572Y17441*
X17562Y17451*
X17558Y17456*
X17557Y17462*
Y17516*
X17553Y17520*
X17551Y17508*
X17546Y17498*
X17538Y17489*
X17529Y17482*
X17519Y17477*
X17507Y17475*
X17496Y17476*
X17485Y17479*
X17475Y17485*
X17466Y17493*
X17460Y17502*
X17456Y17513*
X17454Y17525*
X17456Y17537*
X17460Y17548*
X17343*
Y17677*
X17462*
Y17551*
X17470Y17560*
X17479Y17568*
X17491Y17572*
X17503Y17574*
X17503Y17576*
Y17577*
X17493*
Y17670*
X17474*
Y17779*
X17543*
Y17778*
X17567*
Y17686*
X17611*
Y17777*
X17604*
Y17893*
X17488*
Y18085*
X17430Y18144*
X17304*
Y18336*
X17248*
Y18113*
X17253Y18120*
X17261Y18126*
X17270Y18130*
X17279Y18130*
X17289Y18129*
X17297Y18124*
X17304Y18118*
Y18123*
X17433*
Y18027*
X17325*
X17319Y18024*
X17312Y18023*
Y17966*
X17248*
Y17494*
X17462Y17383D02*
X17718D01*
X17462Y17386D02*
X17718D01*
X17462Y17389D02*
X17718D01*
X17462Y17392D02*
X17718D01*
X17462Y17395D02*
X17718D01*
X17462Y17398D02*
X17718D01*
X17462Y17401D02*
X17718D01*
X17462Y17404D02*
X17718D01*
X17462Y17407D02*
X17718D01*
X17462Y17410D02*
X17718D01*
X17462Y17413D02*
X17718D01*
X17462Y17416D02*
X17718D01*
X17462Y17419D02*
X17718D01*
X17462Y17422D02*
X17718D01*
X17462Y17425D02*
X17718D01*
X17462Y17428D02*
X17718D01*
X17462Y17431D02*
X17718D01*
X17462Y17434D02*
X17718D01*
X17462Y17437D02*
X17579D01*
X17716D02*
X17718D01*
X17462Y17440D02*
X17573D01*
X17462Y17443D02*
X17570D01*
X17462Y17446D02*
X17567D01*
X17462Y17449D02*
X17564D01*
X17462Y17452D02*
X17561D01*
X17462Y17455D02*
X17559D01*
X17462Y17458D02*
X17558D01*
X17462Y17461D02*
X17557D01*
X17462Y17464D02*
X17557D01*
X17462Y17467D02*
X17557D01*
X17462Y17470D02*
X17557D01*
X17462Y17473D02*
X17557D01*
X17462Y17476D02*
X17495D01*
X17513D02*
X17557D01*
X17370Y17479D02*
X17485D01*
X17523D02*
X17557D01*
X17368Y17482D02*
X17479D01*
X17529D02*
X17557D01*
X17366Y17485D02*
X17474D01*
X17534D02*
X17557D01*
X17363Y17488D02*
X17471D01*
X17537D02*
X17557D01*
X17361Y17491D02*
X17468D01*
X17540D02*
X17557D01*
X17358Y17494D02*
X17465D01*
X17543D02*
X17557D01*
X17248Y17497D02*
X17251D01*
X17354D02*
X17463D01*
X17545D02*
X17557D01*
X17248Y17500D02*
X17255D01*
X17351D02*
X17461D01*
X17547D02*
X17557D01*
X17248Y17503D02*
X17259D01*
X17346D02*
X17459D01*
X17548D02*
X17557D01*
X17248Y17506D02*
X17264D01*
X17341D02*
X17458D01*
X17550D02*
X17557D01*
X17248Y17509D02*
X17270D01*
X17335D02*
X17457D01*
X17551D02*
X17557D01*
X17248Y17512D02*
X17277D01*
X17328D02*
X17456D01*
X17552D02*
X17557D01*
X17248Y17515D02*
X17289D01*
X17316D02*
X17455D01*
X17552D02*
X17557D01*
X17248Y17518D02*
X17455D01*
X17553D02*
X17555D01*
X17248Y17521D02*
X17455D01*
X17248Y17524D02*
X17454D01*
X17248Y17527D02*
X17454D01*
X17248Y17530D02*
X17455D01*
X17248Y17533D02*
X17455D01*
X17248Y17536D02*
X17456D01*
X17248Y17539D02*
X17457D01*
X17248Y17542D02*
X17458D01*
X17248Y17545D02*
X17459D01*
X17248Y17548D02*
X17343D01*
X17248Y17551D02*
X17343D01*
X17462D02*
X17462D01*
X17248Y17554D02*
X17343D01*
X17462D02*
X17464D01*
X17248Y17557D02*
X17343D01*
X17462D02*
X17466D01*
X17248Y17560D02*
X17343D01*
X17462D02*
X17469D01*
X17248Y17563D02*
X17343D01*
X17462D02*
X17473D01*
X17248Y17566D02*
X17343D01*
X17462D02*
X17477D01*
X17248Y17569D02*
X17343D01*
X17462D02*
X17482D01*
X17248Y17572D02*
X17343D01*
X17462D02*
X17489D01*
X17248Y17575D02*
X17343D01*
X17462D02*
X17503D01*
X17248Y17578D02*
X17343D01*
X17462D02*
X17493D01*
X17248Y17581D02*
X17343D01*
X17462D02*
X17493D01*
X17248Y17584D02*
X17343D01*
X17462D02*
X17493D01*
X17248Y17587D02*
X17343D01*
X17462D02*
X17493D01*
X17248Y17590D02*
X17343D01*
X17462D02*
X17493D01*
X17248Y17593D02*
X17343D01*
X17462D02*
X17493D01*
X17248Y17596D02*
X17343D01*
X17462D02*
X17493D01*
X17248Y17599D02*
X17343D01*
X17462D02*
X17493D01*
X17248Y17602D02*
X17343D01*
X17462D02*
X17493D01*
X17248Y17605D02*
X17343D01*
X17462D02*
X17493D01*
X17248Y17608D02*
X17343D01*
X17462D02*
X17493D01*
X17248Y17611D02*
X17343D01*
X17462D02*
X17493D01*
X17248Y17614D02*
X17343D01*
X17462D02*
X17493D01*
X17248Y17617D02*
X17343D01*
X17462D02*
X17493D01*
X17248Y17620D02*
X17343D01*
X17462D02*
X17493D01*
X17248Y17623D02*
X17343D01*
X17462D02*
X17493D01*
X17248Y17626D02*
X17343D01*
X17462D02*
X17493D01*
X17248Y17629D02*
X17343D01*
X17462D02*
X17493D01*
X17248Y17632D02*
X17343D01*
X17462D02*
X17493D01*
X17248Y17635D02*
X17343D01*
X17462D02*
X17493D01*
X17248Y17638D02*
X17343D01*
X17462D02*
X17493D01*
X17248Y17641D02*
X17343D01*
X17462D02*
X17493D01*
X17248Y17644D02*
X17343D01*
X17462D02*
X17493D01*
X17248Y17647D02*
X17343D01*
X17462D02*
X17493D01*
X17248Y17650D02*
X17343D01*
X17462D02*
X17493D01*
X17248Y17653D02*
X17343D01*
X17462D02*
X17493D01*
X17248Y17656D02*
X17343D01*
X17462D02*
X17493D01*
X17248Y17659D02*
X17343D01*
X17462D02*
X17493D01*
X17248Y17662D02*
X17343D01*
X17462D02*
X17493D01*
X17248Y17665D02*
X17343D01*
X17462D02*
X17493D01*
X17248Y17668D02*
X17343D01*
X17462D02*
X17493D01*
X17248Y17671D02*
X17343D01*
X17462D02*
X17474D01*
X17248Y17674D02*
X17343D01*
X17462D02*
X17474D01*
X17248Y17677D02*
X17474D01*
X17248Y17680D02*
X17474D01*
X17248Y17683D02*
X17474D01*
X17248Y17686D02*
X17474D01*
X17248Y17689D02*
X17474D01*
X17567D02*
X17611D01*
X17248Y17692D02*
X17474D01*
X17567D02*
X17611D01*
X17248Y17695D02*
X17474D01*
X17567D02*
X17611D01*
X17248Y17698D02*
X17474D01*
X17567D02*
X17611D01*
X17248Y17701D02*
X17474D01*
X17567D02*
X17611D01*
X17248Y17704D02*
X17474D01*
X17567D02*
X17611D01*
X17248Y17707D02*
X17474D01*
X17567D02*
X17611D01*
X17248Y17710D02*
X17474D01*
X17567D02*
X17611D01*
X17248Y17713D02*
X17474D01*
X17567D02*
X17611D01*
X17248Y17716D02*
X17474D01*
X17567D02*
X17611D01*
X17248Y17719D02*
X17474D01*
X17567D02*
X17611D01*
X17248Y17722D02*
X17474D01*
X17567D02*
X17611D01*
X17248Y17725D02*
X17474D01*
X17567D02*
X17611D01*
X17248Y17728D02*
X17474D01*
X17567D02*
X17611D01*
X17248Y17731D02*
X17474D01*
X17567D02*
X17611D01*
X17248Y17734D02*
X17474D01*
X17567D02*
X17611D01*
X17248Y17737D02*
X17474D01*
X17567D02*
X17611D01*
X17248Y17740D02*
X17474D01*
X17567D02*
X17611D01*
X17248Y17743D02*
X17474D01*
X17567D02*
X17611D01*
X17248Y17746D02*
X17474D01*
X17567D02*
X17611D01*
X17248Y17749D02*
X17474D01*
X17567D02*
X17611D01*
X17248Y17752D02*
X17474D01*
X17567D02*
X17611D01*
X17248Y17755D02*
X17474D01*
X17567D02*
X17611D01*
X17248Y17758D02*
X17474D01*
X17567D02*
X17611D01*
X17248Y17761D02*
X17474D01*
X17567D02*
X17611D01*
X17248Y17764D02*
X17474D01*
X17567D02*
X17611D01*
X17248Y17767D02*
X17474D01*
X17567D02*
X17611D01*
X17248Y17770D02*
X17474D01*
X17567D02*
X17611D01*
X17248Y17773D02*
X17474D01*
X17567D02*
X17611D01*
X17248Y17776D02*
X17474D01*
X17567D02*
X17611D01*
X17248Y17779D02*
X17604D01*
X17248Y17782D02*
X17604D01*
X17248Y17785D02*
X17604D01*
X17248Y17788D02*
X17604D01*
X17248Y17791D02*
X17604D01*
X17248Y17794D02*
X17604D01*
X17248Y17797D02*
X17604D01*
X17248Y17800D02*
X17604D01*
X17248Y17803D02*
X17604D01*
X17248Y17806D02*
X17604D01*
X17248Y17809D02*
X17604D01*
X17248Y17812D02*
X17604D01*
X17248Y17815D02*
X17604D01*
X17248Y17818D02*
X17604D01*
X17248Y17821D02*
X17604D01*
X17248Y17824D02*
X17604D01*
X17248Y17827D02*
X17604D01*
X17248Y17830D02*
X17604D01*
X17248Y17833D02*
X17604D01*
X17248Y17836D02*
X17604D01*
X17248Y17839D02*
X17604D01*
X17248Y17842D02*
X17604D01*
X17248Y17845D02*
X17604D01*
X17248Y17848D02*
X17604D01*
X17248Y17851D02*
X17604D01*
X17248Y17854D02*
X17604D01*
X17248Y17857D02*
X17604D01*
X17248Y17860D02*
X17604D01*
X17248Y17863D02*
X17604D01*
X17248Y17866D02*
X17604D01*
X17248Y17869D02*
X17604D01*
X17248Y17872D02*
X17604D01*
X17248Y17875D02*
X17604D01*
X17248Y17878D02*
X17604D01*
X17248Y17881D02*
X17604D01*
X17248Y17884D02*
X17604D01*
X17248Y17887D02*
X17604D01*
X17248Y17890D02*
X17604D01*
X17248Y17893D02*
X17604D01*
X17248Y17896D02*
X17488D01*
X17248Y17899D02*
X17488D01*
X17248Y17902D02*
X17488D01*
X17248Y17905D02*
X17488D01*
X17248Y17908D02*
X17488D01*
X17248Y17911D02*
X17488D01*
X17248Y17914D02*
X17488D01*
X17248Y17917D02*
X17488D01*
X17248Y17920D02*
X17488D01*
X17248Y17923D02*
X17488D01*
X17248Y17926D02*
X17488D01*
X17248Y17929D02*
X17488D01*
X17248Y17932D02*
X17488D01*
X17248Y17935D02*
X17488D01*
X17248Y17938D02*
X17488D01*
X17248Y17941D02*
X17488D01*
X17248Y17944D02*
X17488D01*
X17248Y17947D02*
X17488D01*
X17248Y17950D02*
X17488D01*
X17248Y17953D02*
X17488D01*
X17248Y17956D02*
X17488D01*
X17248Y17959D02*
X17488D01*
X17248Y17962D02*
X17488D01*
X17248Y17965D02*
X17488D01*
X17312Y17968D02*
X17488D01*
X17312Y17971D02*
X17488D01*
X17312Y17974D02*
X17488D01*
X17312Y17977D02*
X17488D01*
X17312Y17980D02*
X17488D01*
X17312Y17983D02*
X17488D01*
X17312Y17986D02*
X17488D01*
X17312Y17989D02*
X17488D01*
X17312Y17992D02*
X17488D01*
X17312Y17995D02*
X17488D01*
X17312Y17998D02*
X17488D01*
X17312Y18001D02*
X17488D01*
X17312Y18004D02*
X17488D01*
X17312Y18007D02*
X17488D01*
X17312Y18010D02*
X17488D01*
X17312Y18013D02*
X17488D01*
X17312Y18016D02*
X17488D01*
X17312Y18019D02*
X17488D01*
X17312Y18022D02*
X17488D01*
X17320Y18025D02*
X17488D01*
X17433Y18028D02*
X17488D01*
X17433Y18031D02*
X17488D01*
X17433Y18034D02*
X17488D01*
X17433Y18037D02*
X17488D01*
X17433Y18040D02*
X17488D01*
X17433Y18043D02*
X17488D01*
X17433Y18046D02*
X17488D01*
X17433Y18049D02*
X17488D01*
X17433Y18052D02*
X17488D01*
X17433Y18055D02*
X17488D01*
X17433Y18058D02*
X17488D01*
X17433Y18061D02*
X17488D01*
X17433Y18064D02*
X17488D01*
X17433Y18067D02*
X17488D01*
X17433Y18070D02*
X17488D01*
X17433Y18073D02*
X17488D01*
X17433Y18076D02*
X17488D01*
X17433Y18079D02*
X17488D01*
X17433Y18082D02*
X17488D01*
X17433Y18085D02*
X17488D01*
X17433Y18088D02*
X17486D01*
X17433Y18091D02*
X17483D01*
X17433Y18094D02*
X17480D01*
X17433Y18097D02*
X17477D01*
X17433Y18100D02*
X17474D01*
X17433Y18103D02*
X17471D01*
X17433Y18106D02*
X17468D01*
X17433Y18109D02*
X17465D01*
X17433Y18112D02*
X17462D01*
X17248Y18115D02*
X17249D01*
X17433D02*
X17459D01*
X17248Y18118D02*
X17251D01*
X17433D02*
X17456D01*
X17248Y18121D02*
X17254D01*
X17301D02*
X17304D01*
X17433D02*
X17453D01*
X17248Y18124D02*
X17257D01*
X17298D02*
X17450D01*
X17248Y18127D02*
X17262D01*
X17293D02*
X17447D01*
X17248Y18130D02*
X17271D01*
X17284D02*
X17444D01*
X17248Y18133D02*
X17441D01*
X17248Y18136D02*
X17438D01*
X17248Y18139D02*
X17435D01*
X17248Y18142D02*
X17432D01*
X17248Y18145D02*
X17304D01*
X17248Y18148D02*
X17304D01*
X17248Y18151D02*
X17304D01*
X17248Y18154D02*
X17304D01*
X17248Y18157D02*
X17304D01*
X17248Y18160D02*
X17304D01*
X17248Y18163D02*
X17304D01*
X17248Y18166D02*
X17304D01*
X17248Y18169D02*
X17304D01*
X17248Y18172D02*
X17304D01*
X17248Y18175D02*
X17304D01*
X17248Y18178D02*
X17304D01*
X17248Y18181D02*
X17304D01*
X17248Y18184D02*
X17304D01*
X17248Y18187D02*
X17304D01*
X17248Y18190D02*
X17304D01*
X17248Y18193D02*
X17304D01*
X17248Y18196D02*
X17304D01*
X17248Y18199D02*
X17304D01*
X17248Y18202D02*
X17304D01*
X17248Y18205D02*
X17304D01*
X17248Y18208D02*
X17304D01*
X17248Y18211D02*
X17304D01*
X17248Y18214D02*
X17304D01*
X17248Y18217D02*
X17304D01*
X17248Y18220D02*
X17304D01*
X17248Y18223D02*
X17304D01*
X17248Y18226D02*
X17304D01*
X17248Y18229D02*
X17304D01*
X17248Y18232D02*
X17304D01*
X17248Y18235D02*
X17304D01*
X17248Y18238D02*
X17304D01*
X17248Y18241D02*
X17304D01*
X17248Y18244D02*
X17304D01*
X17248Y18247D02*
X17304D01*
X17248Y18250D02*
X17304D01*
X17248Y18253D02*
X17304D01*
X17248Y18256D02*
X17304D01*
X17248Y18259D02*
X17304D01*
X17248Y18262D02*
X17304D01*
X17248Y18265D02*
X17304D01*
X17248Y18268D02*
X17304D01*
X17248Y18271D02*
X17304D01*
X17248Y18274D02*
X17304D01*
X17248Y18277D02*
X17304D01*
X17248Y18280D02*
X17304D01*
X17248Y18283D02*
X17304D01*
X17248Y18286D02*
X17304D01*
X17248Y18289D02*
X17304D01*
X17248Y18292D02*
X17304D01*
X17248Y18295D02*
X17304D01*
X17248Y18298D02*
X17304D01*
X17248Y18301D02*
X17304D01*
X17248Y18304D02*
X17304D01*
X17248Y18307D02*
X17304D01*
X17248Y18310D02*
X17304D01*
X17248Y18313D02*
X17304D01*
X17248Y18316D02*
X17304D01*
X17248Y18319D02*
X17304D01*
X17248Y18322D02*
X17304D01*
X17248Y18325D02*
X17304D01*
X17248Y18328D02*
X17304D01*
X17248Y18331D02*
X17304D01*
X17248Y18334D02*
X17304D01*
X17494Y18265D02*
X17496Y18257D01*
X17497Y18248*
X17495Y18240*
X17604*
Y18305*
X17595Y18304*
X17585Y18306*
X17577Y18311*
X17571Y18318*
X17567Y18327*
X17565Y18336*
X17566Y18345*
X17570Y18354*
X17576Y18361*
X17583Y18366*
X17592Y18368*
X17601Y18369*
X17609Y18367*
X17617Y18362*
X17624Y18356*
X17951*
Y18240*
X17970*
X17966Y18248*
X17965Y18256*
X17966Y18265*
X17969Y18272*
X17974Y18279*
X17981Y18284*
Y18343*
X17974Y18349*
X17969Y18355*
X17966Y18363*
X17965Y18371*
X17966Y18381*
X17970Y18389*
X17976Y18396*
X17984Y18401*
X17993Y18404*
X18002*
X18011Y18401*
X18019Y18396*
X18025Y18389*
X18029Y18381*
X18030Y18371*
X18029Y18363*
X18026Y18355*
X18021Y18349*
X18014Y18343*
Y18284*
X18021Y18279*
X18026Y18272*
X18029Y18265*
X18030Y18256*
X18029Y18248*
X18026Y18240*
X18052*
X18050Y18249*
X18051Y18258*
X18054Y18266*
X18059Y18274*
X18066Y18279*
Y18343*
X18059Y18349*
X18054Y18355*
X18051Y18363*
X18050Y18371*
X18051Y18381*
X18055Y18389*
X18061Y18396*
X18069Y18401*
X18078Y18404*
X18087*
X18096Y18401*
X18104Y18396*
X18110Y18389*
X18114Y18381*
X18115Y18371*
X18114Y18363*
X18111Y18355*
X18106Y18349*
X18099Y18343*
Y18279*
X18106Y18274*
Y18285*
X18111*
X18115Y18294*
X18121Y18301*
X18129Y18306*
X18138Y18309*
X18147*
X18156Y18306*
X18164Y18301*
X18170Y18294*
X18174Y18285*
X18185*
Y18186*
X18114*
X18109Y18178*
X18103Y18171*
X18095Y18166*
X18085Y18164*
X18076Y18165*
X18067Y18168*
Y18073*
X18074*
X18078Y18077*
Y18136*
X18100*
X18108Y18144*
X18113Y18147*
X18118Y18148*
X18303*
X18309Y18147*
X18314Y18144*
X18344Y18114*
X18346Y18110*
X18369*
Y18031*
X18270*
Y18105*
X18269Y18106*
X18260*
Y17997*
X18186*
Y18106*
X18167*
Y17977*
X18084*
Y17968*
X18089Y17963*
X18198*
X18204Y17962*
X18209Y17958*
X18231Y17936*
X18267*
Y17855*
X18270*
Y17877*
X18369*
Y17798*
X18270*
Y17818*
X18267*
Y17777*
X18178*
Y17930*
X18083*
X18082*
X18084Y17928*
X18088Y17923*
X18089Y17916*
Y17916*
X18160*
Y17797*
X18086*
X18084Y17795*
X18079Y17790*
X18074Y17786*
X18068Y17785*
X18037*
X18032Y17777*
X18024Y17772*
X18015Y17768*
X18006Y17767*
X17996Y17769*
X17988Y17774*
X17990Y17764*
X17989Y17755*
X17986Y17746*
X17980Y17738*
X17972Y17732*
X17963Y17729*
X17953Y17729*
X17944Y17732*
X17936Y17737*
X17930Y17745*
X17928*
X17921Y17746*
X17916Y17750*
X17896Y17770*
X17893Y17773*
X17892Y17777*
X17680*
Y17670*
X17650*
Y17577*
X17563*
X17603Y17537*
X17606Y17532*
X17608Y17526*
Y17481*
X17648*
X17640Y17488*
X17633Y17495*
X17627Y17504*
X17624Y17514*
X17623Y17525*
X17624Y17536*
X17629Y17548*
X17635Y17557*
X17644Y17565*
X17655Y17571*
X17666Y17574*
X17678*
X17690Y17571*
X17701Y17565*
X17709Y17557*
X17716Y17548*
X17720Y17536*
X17722Y17525*
X17720Y17512*
X17716Y17501*
X17722Y17507*
X17727Y17510*
X17733Y17511*
X17825*
Y17531*
X17826Y17537*
X17829Y17542*
X17832Y17545*
Y17589*
X17931*
Y17556*
X17936Y17551*
X17946*
Y17568*
X17996*
Y17576*
X17997Y17583*
X18001Y17588*
X18011Y17598*
X18015Y17601*
X18021Y17603*
Y17683*
X18080*
Y17594*
X18067*
Y17594*
X18065Y17588*
X18062Y17582*
X18054Y17575*
X18049Y17571*
X18042Y17570*
X18029*
X18029Y17570*
Y17568*
X18080*
Y17558*
X18092*
Y17589*
X18191*
Y17510*
X18162*
X18155Y17503*
X18247*
Y17381*
X18423*
Y17494*
X18347*
Y17603*
X18461*
Y17587*
X18600*
X18613Y17599*
Y17630*
X18531*
Y17709*
X18523*
X18517Y17710*
X18512Y17713*
X18491Y17735*
X18488Y17740*
X18487Y17745*
Y17858*
X18480*
Y17957*
X18509*
X18513Y17958*
X18517Y17959*
X18562*
X18570Y17967*
Y17982*
X18558*
Y18130*
X18351*
X18345Y18131*
X18340Y18134*
X18276Y18198*
X18273Y18203*
X18272Y18208*
Y18262*
X18269Y18271*
Y18282*
X18272Y18291*
Y18519*
X18240Y18551*
X18156*
Y18470*
X18057*
Y18506*
X18025Y18538*
X17855*
X17858Y18533*
X17860Y18527*
X17869*
Y18393*
X17529*
Y18306*
X17528Y18300*
X17524Y18295*
X17494Y18265*
X17934Y17610D02*
X17926Y17613D01*
X17920Y17619*
X17914Y17625*
X17911Y17633*
X17910Y17641*
X17911Y17650*
X17915Y17659*
X17921Y17665*
X17928Y17671*
X17937Y17673*
X17946Y17674*
Y17683*
X18005*
Y17594*
X17946*
Y17606*
X17944*
X17939Y17607*
X17934Y17610*
X18257Y17506D02*
Y17603D01*
X18326*
Y17494*
X18318*
Y17480*
X18316Y17475*
X18313Y17470*
X18306Y17462*
X18303Y17460*
X18299Y17458*
X18290Y17455*
X18280Y17454*
X18271Y17456*
X18262Y17461*
X18256Y17468*
X18252Y17477*
X18250Y17486*
X18251Y17493*
X18253Y17500*
X18257Y17506*
X18247Y17383D02*
X18423D01*
X18247Y17386D02*
X18423D01*
X18247Y17389D02*
X18423D01*
X18247Y17392D02*
X18423D01*
X18247Y17395D02*
X18423D01*
X18247Y17398D02*
X18423D01*
X18247Y17401D02*
X18423D01*
X18247Y17404D02*
X18423D01*
X18247Y17407D02*
X18423D01*
X18247Y17410D02*
X18423D01*
X18247Y17413D02*
X18423D01*
X18247Y17416D02*
X18423D01*
X18247Y17419D02*
X18423D01*
X18247Y17422D02*
X18423D01*
X18247Y17425D02*
X18423D01*
X18247Y17428D02*
X18423D01*
X18247Y17431D02*
X18423D01*
X18247Y17434D02*
X18423D01*
X18247Y17437D02*
X18423D01*
X18247Y17440D02*
X18423D01*
X18247Y17443D02*
X18423D01*
X18247Y17446D02*
X18423D01*
X18247Y17449D02*
X18423D01*
X18247Y17452D02*
X18423D01*
X18247Y17455D02*
X18276D01*
X18289D02*
X18423D01*
X18247Y17458D02*
X18268D01*
X18298D02*
X18423D01*
X18247Y17461D02*
X18263D01*
X18304D02*
X18423D01*
X18247Y17464D02*
X18260D01*
X18307D02*
X18423D01*
X18247Y17467D02*
X18257D01*
X18310D02*
X18423D01*
X18247Y17470D02*
X18255D01*
X18313D02*
X18423D01*
X18247Y17473D02*
X18253D01*
X18315D02*
X18423D01*
X18247Y17476D02*
X18252D01*
X18317D02*
X18423D01*
X18247Y17479D02*
X18251D01*
X18318D02*
X18423D01*
X17608Y17482D02*
X17648D01*
X18247D02*
X18250D01*
X18318D02*
X18423D01*
X17608Y17485D02*
X17643D01*
X18247D02*
X18250D01*
X18318D02*
X18423D01*
X17608Y17488D02*
X17640D01*
X18247D02*
X18250D01*
X18318D02*
X18423D01*
X17608Y17491D02*
X17636D01*
X18247D02*
X18250D01*
X18318D02*
X18423D01*
X17608Y17494D02*
X17634D01*
X18247D02*
X18251D01*
X18326D02*
X18347D01*
X17608Y17497D02*
X17632D01*
X18247D02*
X18252D01*
X18326D02*
X18347D01*
X17608Y17500D02*
X17630D01*
X18247D02*
X18253D01*
X18326D02*
X18347D01*
X17608Y17503D02*
X17628D01*
X17717D02*
X17718D01*
X18247D02*
X18254D01*
X18326D02*
X18347D01*
X17608Y17506D02*
X17627D01*
X17718D02*
X17721D01*
X18157D02*
X18256D01*
X18326D02*
X18347D01*
X17608Y17509D02*
X17626D01*
X17719D02*
X17724D01*
X18160D02*
X18257D01*
X18326D02*
X18347D01*
X17608Y17512D02*
X17625D01*
X17720D02*
X17825D01*
X18191D02*
X18257D01*
X18326D02*
X18347D01*
X17608Y17515D02*
X17624D01*
X17721D02*
X17825D01*
X18191D02*
X18257D01*
X18326D02*
X18347D01*
X17608Y17518D02*
X17623D01*
X17721D02*
X17825D01*
X18191D02*
X18257D01*
X18326D02*
X18347D01*
X17608Y17521D02*
X17623D01*
X17722D02*
X17825D01*
X18191D02*
X18257D01*
X18326D02*
X18347D01*
X17608Y17524D02*
X17623D01*
X17722D02*
X17825D01*
X18191D02*
X18257D01*
X18326D02*
X18347D01*
X17608Y17527D02*
X17623D01*
X17722D02*
X17825D01*
X18191D02*
X18257D01*
X18326D02*
X18347D01*
X17607Y17530D02*
X17623D01*
X17722D02*
X17825D01*
X18191D02*
X18257D01*
X18326D02*
X18347D01*
X17606Y17533D02*
X17624D01*
X17721D02*
X17825D01*
X18191D02*
X18257D01*
X18326D02*
X18347D01*
X17605Y17536D02*
X17624D01*
X17721D02*
X17826D01*
X18191D02*
X18257D01*
X18326D02*
X18347D01*
X17602Y17539D02*
X17625D01*
X17720D02*
X17827D01*
X18191D02*
X18257D01*
X18326D02*
X18347D01*
X17599Y17542D02*
X17626D01*
X17719D02*
X17829D01*
X18191D02*
X18257D01*
X18326D02*
X18347D01*
X17596Y17545D02*
X17627D01*
X17718D02*
X17832D01*
X18191D02*
X18257D01*
X18326D02*
X18347D01*
X17593Y17548D02*
X17629D01*
X17716D02*
X17832D01*
X18191D02*
X18257D01*
X18326D02*
X18347D01*
X17590Y17551D02*
X17630D01*
X17715D02*
X17832D01*
X18191D02*
X18257D01*
X18326D02*
X18347D01*
X17587Y17554D02*
X17632D01*
X17713D02*
X17832D01*
X17934D02*
X17946D01*
X18191D02*
X18257D01*
X18326D02*
X18347D01*
X17584Y17557D02*
X17635D01*
X17710D02*
X17832D01*
X17931D02*
X17946D01*
X18191D02*
X18257D01*
X18326D02*
X18347D01*
X17581Y17560D02*
X17637D01*
X17707D02*
X17832D01*
X17931D02*
X17946D01*
X18080D02*
X18092D01*
X18191D02*
X18257D01*
X18326D02*
X18347D01*
X17578Y17563D02*
X17641D01*
X17704D02*
X17832D01*
X17931D02*
X17946D01*
X18080D02*
X18092D01*
X18191D02*
X18257D01*
X18326D02*
X18347D01*
X17575Y17566D02*
X17645D01*
X17700D02*
X17832D01*
X17931D02*
X17946D01*
X18080D02*
X18092D01*
X18191D02*
X18257D01*
X18326D02*
X18347D01*
X17572Y17569D02*
X17650D01*
X17695D02*
X17832D01*
X17931D02*
X17996D01*
X18029D02*
X18092D01*
X18191D02*
X18257D01*
X18326D02*
X18347D01*
X17569Y17572D02*
X17657D01*
X17688D02*
X17832D01*
X17931D02*
X17996D01*
X18050D02*
X18092D01*
X18191D02*
X18257D01*
X18326D02*
X18347D01*
X17566Y17575D02*
X17832D01*
X17931D02*
X17996D01*
X18054D02*
X18092D01*
X18191D02*
X18257D01*
X18326D02*
X18347D01*
X17650Y17578D02*
X17832D01*
X17931D02*
X17996D01*
X18057D02*
X18092D01*
X18191D02*
X18257D01*
X18326D02*
X18347D01*
X17650Y17581D02*
X17832D01*
X17931D02*
X17997D01*
X18060D02*
X18092D01*
X18191D02*
X18257D01*
X18326D02*
X18347D01*
X17650Y17584D02*
X17832D01*
X17931D02*
X17998D01*
X18063D02*
X18092D01*
X18191D02*
X18257D01*
X18326D02*
X18347D01*
X17650Y17587D02*
X17832D01*
X17931D02*
X18000D01*
X18065D02*
X18092D01*
X18191D02*
X18257D01*
X18326D02*
X18347D01*
X17650Y17590D02*
X18002D01*
X18066D02*
X18257D01*
X18326D02*
X18347D01*
X18461D02*
X18603D01*
X17650Y17593D02*
X18005D01*
X18067D02*
X18257D01*
X18326D02*
X18347D01*
X18461D02*
X18606D01*
X17650Y17596D02*
X17946D01*
X18005D02*
X18008D01*
X18080D02*
X18257D01*
X18326D02*
X18347D01*
X18461D02*
X18609D01*
X17650Y17599D02*
X17946D01*
X18005D02*
X18011D01*
X18080D02*
X18257D01*
X18326D02*
X18347D01*
X18461D02*
X18612D01*
X17650Y17602D02*
X17946D01*
X18005D02*
X18016D01*
X18080D02*
X18257D01*
X18326D02*
X18347D01*
X18461D02*
X18613D01*
X17650Y17605D02*
X17946D01*
X18005D02*
X18021D01*
X18080D02*
X18613D01*
X17650Y17608D02*
X17938D01*
X18005D02*
X18021D01*
X18080D02*
X18613D01*
X17650Y17611D02*
X17933D01*
X18005D02*
X18021D01*
X18080D02*
X18613D01*
X17650Y17614D02*
X17926D01*
X18005D02*
X18021D01*
X18080D02*
X18613D01*
X17650Y17617D02*
X17922D01*
X18005D02*
X18021D01*
X18080D02*
X18613D01*
X17650Y17620D02*
X17919D01*
X18005D02*
X18021D01*
X18080D02*
X18613D01*
X17650Y17623D02*
X17916D01*
X18005D02*
X18021D01*
X18080D02*
X18613D01*
X17650Y17626D02*
X17914D01*
X18005D02*
X18021D01*
X18080D02*
X18613D01*
X17650Y17629D02*
X17913D01*
X18005D02*
X18021D01*
X18080D02*
X18613D01*
X17650Y17632D02*
X17912D01*
X18005D02*
X18021D01*
X18080D02*
X18531D01*
X17650Y17635D02*
X17911D01*
X18005D02*
X18021D01*
X18080D02*
X18531D01*
X17650Y17638D02*
X17910D01*
X18005D02*
X18021D01*
X18080D02*
X18531D01*
X17650Y17641D02*
X17910D01*
X18005D02*
X18021D01*
X18080D02*
X18531D01*
X17650Y17644D02*
X17910D01*
X18005D02*
X18021D01*
X18080D02*
X18531D01*
X17650Y17647D02*
X17911D01*
X18005D02*
X18021D01*
X18080D02*
X18531D01*
X17650Y17650D02*
X17911D01*
X18005D02*
X18021D01*
X18080D02*
X18531D01*
X17650Y17653D02*
X17912D01*
X18005D02*
X18021D01*
X18080D02*
X18531D01*
X17650Y17656D02*
X17913D01*
X18005D02*
X18021D01*
X18080D02*
X18531D01*
X17650Y17659D02*
X17915D01*
X18005D02*
X18021D01*
X18080D02*
X18531D01*
X17650Y17662D02*
X17917D01*
X18005D02*
X18021D01*
X18080D02*
X18531D01*
X17650Y17665D02*
X17920D01*
X18005D02*
X18021D01*
X18080D02*
X18531D01*
X17650Y17668D02*
X17923D01*
X18005D02*
X18021D01*
X18080D02*
X18531D01*
X17680Y17671D02*
X17928D01*
X18005D02*
X18021D01*
X18080D02*
X18531D01*
X17680Y17674D02*
X17938D01*
X18005D02*
X18021D01*
X18080D02*
X18531D01*
X17680Y17677D02*
X17946D01*
X18005D02*
X18021D01*
X18080D02*
X18531D01*
X17680Y17680D02*
X17946D01*
X18005D02*
X18021D01*
X18080D02*
X18531D01*
X17680Y17683D02*
X17946D01*
X18005D02*
X18021D01*
X18080D02*
X18531D01*
X17680Y17686D02*
X18531D01*
X17680Y17689D02*
X18531D01*
X17680Y17692D02*
X18531D01*
X17680Y17695D02*
X18531D01*
X17680Y17698D02*
X18531D01*
X17680Y17701D02*
X18531D01*
X17680Y17704D02*
X18531D01*
X17680Y17707D02*
X18531D01*
X17680Y17710D02*
X18519D01*
X17680Y17713D02*
X18513D01*
X17680Y17716D02*
X18510D01*
X17680Y17719D02*
X18507D01*
X17680Y17722D02*
X18504D01*
X17680Y17725D02*
X18501D01*
X17680Y17728D02*
X18498D01*
X17680Y17731D02*
X17948D01*
X17968D02*
X18495D01*
X17680Y17734D02*
X17941D01*
X17974D02*
X18492D01*
X17680Y17737D02*
X17937D01*
X17979D02*
X18489D01*
X17680Y17740D02*
X17934D01*
X17982D02*
X18488D01*
X17680Y17743D02*
X17931D01*
X17984D02*
X18487D01*
X17680Y17746D02*
X17923D01*
X17986D02*
X18487D01*
X17680Y17749D02*
X17917D01*
X17987D02*
X18487D01*
X17680Y17752D02*
X17914D01*
X17989D02*
X18487D01*
X17680Y17755D02*
X17911D01*
X17989D02*
X18487D01*
X17680Y17758D02*
X17908D01*
X17990D02*
X18487D01*
X17680Y17761D02*
X17905D01*
X17990D02*
X18487D01*
X17680Y17764D02*
X17902D01*
X17990D02*
X18487D01*
X17680Y17767D02*
X17899D01*
X17990D02*
X18487D01*
X17680Y17770D02*
X17896D01*
X17989D02*
X17996D01*
X18020D02*
X18487D01*
X17680Y17773D02*
X17894D01*
X17988D02*
X17990D01*
X18026D02*
X18487D01*
X17680Y17776D02*
X17892D01*
X18030D02*
X18487D01*
X18033Y17779D02*
X18178D01*
X18267D02*
X18487D01*
X18035Y17782D02*
X18178D01*
X18267D02*
X18487D01*
X18037Y17785D02*
X18178D01*
X18267D02*
X18487D01*
X18077Y17788D02*
X18178D01*
X18267D02*
X18487D01*
X18080Y17791D02*
X18178D01*
X18267D02*
X18487D01*
X18083Y17794D02*
X18178D01*
X18267D02*
X18487D01*
X18086Y17797D02*
X18178D01*
X18267D02*
X18487D01*
X18160Y17800D02*
X18178D01*
X18267D02*
X18270D01*
X18369D02*
X18487D01*
X18160Y17803D02*
X18178D01*
X18267D02*
X18270D01*
X18369D02*
X18487D01*
X18160Y17806D02*
X18178D01*
X18267D02*
X18270D01*
X18369D02*
X18487D01*
X18160Y17809D02*
X18178D01*
X18267D02*
X18270D01*
X18369D02*
X18487D01*
X18160Y17812D02*
X18178D01*
X18267D02*
X18270D01*
X18369D02*
X18487D01*
X18160Y17815D02*
X18178D01*
X18267D02*
X18270D01*
X18369D02*
X18487D01*
X18160Y17818D02*
X18178D01*
X18267D02*
X18270D01*
X18369D02*
X18487D01*
X18160Y17821D02*
X18178D01*
X18369D02*
X18487D01*
X18160Y17824D02*
X18178D01*
X18369D02*
X18487D01*
X18160Y17827D02*
X18178D01*
X18369D02*
X18487D01*
X18160Y17830D02*
X18178D01*
X18369D02*
X18487D01*
X18160Y17833D02*
X18178D01*
X18369D02*
X18487D01*
X18160Y17836D02*
X18178D01*
X18369D02*
X18487D01*
X18160Y17839D02*
X18178D01*
X18369D02*
X18487D01*
X18160Y17842D02*
X18178D01*
X18369D02*
X18487D01*
X18160Y17845D02*
X18178D01*
X18369D02*
X18487D01*
X18160Y17848D02*
X18178D01*
X18369D02*
X18487D01*
X18160Y17851D02*
X18178D01*
X18369D02*
X18487D01*
X18160Y17854D02*
X18178D01*
X18369D02*
X18487D01*
X18160Y17857D02*
X18178D01*
X18267D02*
X18270D01*
X18369D02*
X18487D01*
X18160Y17860D02*
X18178D01*
X18267D02*
X18270D01*
X18369D02*
X18480D01*
X18160Y17863D02*
X18178D01*
X18267D02*
X18270D01*
X18369D02*
X18480D01*
X18160Y17866D02*
X18178D01*
X18267D02*
X18270D01*
X18369D02*
X18480D01*
X18160Y17869D02*
X18178D01*
X18267D02*
X18270D01*
X18369D02*
X18480D01*
X18160Y17872D02*
X18178D01*
X18267D02*
X18270D01*
X18369D02*
X18480D01*
X18160Y17875D02*
X18178D01*
X18267D02*
X18270D01*
X18369D02*
X18480D01*
X18160Y17878D02*
X18178D01*
X18267D02*
X18480D01*
X18160Y17881D02*
X18178D01*
X18267D02*
X18480D01*
X18160Y17884D02*
X18178D01*
X18267D02*
X18480D01*
X18160Y17887D02*
X18178D01*
X18267D02*
X18480D01*
X18160Y17890D02*
X18178D01*
X18267D02*
X18480D01*
X18160Y17893D02*
X18178D01*
X18267D02*
X18480D01*
X18160Y17896D02*
X18178D01*
X18267D02*
X18480D01*
X18160Y17899D02*
X18178D01*
X18267D02*
X18480D01*
X18160Y17902D02*
X18178D01*
X18267D02*
X18480D01*
X18160Y17905D02*
X18178D01*
X18267D02*
X18480D01*
X18160Y17908D02*
X18178D01*
X18267D02*
X18480D01*
X18160Y17911D02*
X18178D01*
X18267D02*
X18480D01*
X18160Y17914D02*
X18178D01*
X18267D02*
X18480D01*
X18089Y17917D02*
X18178D01*
X18267D02*
X18480D01*
X18089Y17920D02*
X18178D01*
X18267D02*
X18480D01*
X18088Y17923D02*
X18178D01*
X18267D02*
X18480D01*
X18086Y17926D02*
X18178D01*
X18267D02*
X18480D01*
X18084Y17929D02*
X18178D01*
X18267D02*
X18480D01*
X18267Y17932D02*
X18480D01*
X18267Y17935D02*
X18480D01*
X18230Y17938D02*
X18480D01*
X18227Y17941D02*
X18480D01*
X18224Y17944D02*
X18480D01*
X18221Y17947D02*
X18480D01*
X18218Y17950D02*
X18480D01*
X18215Y17953D02*
X18480D01*
X18212Y17956D02*
X18480D01*
X18209Y17959D02*
X18514D01*
X18204Y17962D02*
X18564D01*
X18088Y17965D02*
X18567D01*
X18085Y17968D02*
X18570D01*
X18084Y17971D02*
X18570D01*
X18084Y17974D02*
X18570D01*
X18084Y17977D02*
X18570D01*
X18167Y17980D02*
X18570D01*
X18167Y17983D02*
X18558D01*
X18167Y17986D02*
X18558D01*
X18167Y17989D02*
X18558D01*
X18167Y17992D02*
X18558D01*
X18167Y17995D02*
X18558D01*
X18167Y17998D02*
X18186D01*
X18260D02*
X18558D01*
X18167Y18001D02*
X18186D01*
X18260D02*
X18558D01*
X18167Y18004D02*
X18186D01*
X18260D02*
X18558D01*
X18167Y18007D02*
X18186D01*
X18260D02*
X18558D01*
X18167Y18010D02*
X18186D01*
X18260D02*
X18558D01*
X18167Y18013D02*
X18186D01*
X18260D02*
X18558D01*
X18167Y18016D02*
X18186D01*
X18260D02*
X18558D01*
X18167Y18019D02*
X18186D01*
X18260D02*
X18558D01*
X18167Y18022D02*
X18186D01*
X18260D02*
X18558D01*
X18167Y18025D02*
X18186D01*
X18260D02*
X18558D01*
X18167Y18028D02*
X18186D01*
X18260D02*
X18558D01*
X18167Y18031D02*
X18186D01*
X18260D02*
X18558D01*
X18167Y18034D02*
X18186D01*
X18260D02*
X18270D01*
X18369D02*
X18558D01*
X18167Y18037D02*
X18186D01*
X18260D02*
X18270D01*
X18369D02*
X18558D01*
X18167Y18040D02*
X18186D01*
X18260D02*
X18270D01*
X18369D02*
X18558D01*
X18167Y18043D02*
X18186D01*
X18260D02*
X18270D01*
X18369D02*
X18558D01*
X18167Y18046D02*
X18186D01*
X18260D02*
X18270D01*
X18369D02*
X18558D01*
X18167Y18049D02*
X18186D01*
X18260D02*
X18270D01*
X18369D02*
X18558D01*
X18167Y18052D02*
X18186D01*
X18260D02*
X18270D01*
X18369D02*
X18558D01*
X18167Y18055D02*
X18186D01*
X18260D02*
X18270D01*
X18369D02*
X18558D01*
X18167Y18058D02*
X18186D01*
X18260D02*
X18270D01*
X18369D02*
X18558D01*
X18167Y18061D02*
X18186D01*
X18260D02*
X18270D01*
X18369D02*
X18558D01*
X18167Y18064D02*
X18186D01*
X18260D02*
X18270D01*
X18369D02*
X18558D01*
X18167Y18067D02*
X18186D01*
X18260D02*
X18270D01*
X18369D02*
X18558D01*
X18167Y18070D02*
X18186D01*
X18260D02*
X18270D01*
X18369D02*
X18558D01*
X18167Y18073D02*
X18186D01*
X18260D02*
X18270D01*
X18369D02*
X18558D01*
X18067Y18076D02*
X18077D01*
X18167D02*
X18186D01*
X18260D02*
X18270D01*
X18369D02*
X18558D01*
X18067Y18079D02*
X18078D01*
X18167D02*
X18186D01*
X18260D02*
X18270D01*
X18369D02*
X18558D01*
X18067Y18082D02*
X18078D01*
X18167D02*
X18186D01*
X18260D02*
X18270D01*
X18369D02*
X18558D01*
X18067Y18085D02*
X18078D01*
X18167D02*
X18186D01*
X18260D02*
X18270D01*
X18369D02*
X18558D01*
X18067Y18088D02*
X18078D01*
X18167D02*
X18186D01*
X18260D02*
X18270D01*
X18369D02*
X18558D01*
X18067Y18091D02*
X18078D01*
X18167D02*
X18186D01*
X18260D02*
X18270D01*
X18369D02*
X18558D01*
X18067Y18094D02*
X18078D01*
X18167D02*
X18186D01*
X18260D02*
X18270D01*
X18369D02*
X18558D01*
X18067Y18097D02*
X18078D01*
X18167D02*
X18186D01*
X18260D02*
X18270D01*
X18369D02*
X18558D01*
X18067Y18100D02*
X18078D01*
X18167D02*
X18186D01*
X18260D02*
X18270D01*
X18369D02*
X18558D01*
X18067Y18103D02*
X18078D01*
X18167D02*
X18186D01*
X18260D02*
X18270D01*
X18369D02*
X18558D01*
X18067Y18106D02*
X18078D01*
X18167D02*
X18186D01*
X18260D02*
X18270D01*
X18369D02*
X18558D01*
X18067Y18109D02*
X18078D01*
X18369D02*
X18558D01*
X18067Y18112D02*
X18078D01*
X18346D02*
X18558D01*
X18067Y18115D02*
X18078D01*
X18343D02*
X18558D01*
X18067Y18118D02*
X18078D01*
X18340D02*
X18558D01*
X18067Y18121D02*
X18078D01*
X18337D02*
X18558D01*
X18067Y18124D02*
X18078D01*
X18334D02*
X18558D01*
X18067Y18127D02*
X18078D01*
X18331D02*
X18558D01*
X18067Y18130D02*
X18078D01*
X18328D02*
X18558D01*
X18067Y18133D02*
X18078D01*
X18325D02*
X18342D01*
X18067Y18136D02*
X18078D01*
X18322D02*
X18338D01*
X18067Y18139D02*
X18102D01*
X18319D02*
X18335D01*
X18067Y18142D02*
X18105D01*
X18316D02*
X18332D01*
X18067Y18145D02*
X18108D01*
X18313D02*
X18329D01*
X18067Y18148D02*
X18113D01*
X18308D02*
X18326D01*
X18067Y18151D02*
X18323D01*
X18067Y18154D02*
X18320D01*
X18067Y18157D02*
X18317D01*
X18067Y18160D02*
X18314D01*
X18067Y18163D02*
X18311D01*
X18067Y18166D02*
X18073D01*
X18093D02*
X18308D01*
X18099Y18169D02*
X18305D01*
X18104Y18172D02*
X18302D01*
X18107Y18175D02*
X18299D01*
X18109Y18178D02*
X18296D01*
X18111Y18181D02*
X18293D01*
X18112Y18184D02*
X18290D01*
X18185Y18187D02*
X18287D01*
X18185Y18190D02*
X18284D01*
X18185Y18193D02*
X18281D01*
X18185Y18196D02*
X18278D01*
X18185Y18199D02*
X18275D01*
X18185Y18202D02*
X18274D01*
X18185Y18205D02*
X18272D01*
X18185Y18208D02*
X18272D01*
X18185Y18211D02*
X18272D01*
X18185Y18214D02*
X18272D01*
X18185Y18217D02*
X18272D01*
X18185Y18220D02*
X18272D01*
X18185Y18223D02*
X18272D01*
X18185Y18226D02*
X18272D01*
X18185Y18229D02*
X18272D01*
X18185Y18232D02*
X18272D01*
X18185Y18235D02*
X18272D01*
X18185Y18238D02*
X18272D01*
X17495Y18241D02*
X17604D01*
X17951D02*
X17969D01*
X18026D02*
X18052D01*
X18185D02*
X18272D01*
X17496Y18244D02*
X17604D01*
X17951D02*
X17968D01*
X18027D02*
X18051D01*
X18185D02*
X18272D01*
X17496Y18247D02*
X17604D01*
X17951D02*
X17967D01*
X18029D02*
X18050D01*
X18185D02*
X18272D01*
X17497Y18250D02*
X17604D01*
X17951D02*
X17966D01*
X18029D02*
X18050D01*
X18185D02*
X18272D01*
X17497Y18253D02*
X17604D01*
X17951D02*
X17965D01*
X18030D02*
X18050D01*
X18185D02*
X18272D01*
X17496Y18256D02*
X17604D01*
X17951D02*
X17965D01*
X18030D02*
X18050D01*
X18185D02*
X18272D01*
X17496Y18259D02*
X17604D01*
X17951D02*
X17965D01*
X18030D02*
X18051D01*
X18185D02*
X18272D01*
X17495Y18262D02*
X17604D01*
X17951D02*
X17966D01*
X18030D02*
X18052D01*
X18185D02*
X18272D01*
X17494Y18265D02*
X17604D01*
X17951D02*
X17966D01*
X18029D02*
X18053D01*
X18185D02*
X18271D01*
X17497Y18268D02*
X17604D01*
X17951D02*
X17967D01*
X18028D02*
X18054D01*
X18185D02*
X18270D01*
X17500Y18271D02*
X17604D01*
X17951D02*
X17968D01*
X18027D02*
X18056D01*
X18185D02*
X18269D01*
X17503Y18274D02*
X17604D01*
X17951D02*
X17970D01*
X18025D02*
X18059D01*
X18185D02*
X18269D01*
X17506Y18277D02*
X17604D01*
X17951D02*
X17972D01*
X18023D02*
X18062D01*
X18103D02*
X18106D01*
X18185D02*
X18269D01*
X17509Y18280D02*
X17604D01*
X17951D02*
X17975D01*
X18020D02*
X18066D01*
X18099D02*
X18106D01*
X18185D02*
X18269D01*
X17512Y18283D02*
X17604D01*
X17951D02*
X17978D01*
X18017D02*
X18066D01*
X18099D02*
X18106D01*
X18185D02*
X18269D01*
X17515Y18286D02*
X17604D01*
X17951D02*
X17981D01*
X18014D02*
X18066D01*
X18099D02*
X18111D01*
X18174D02*
X18270D01*
X17518Y18289D02*
X17604D01*
X17951D02*
X17981D01*
X18014D02*
X18066D01*
X18099D02*
X18112D01*
X18173D02*
X18271D01*
X17521Y18292D02*
X17604D01*
X17951D02*
X17981D01*
X18014D02*
X18066D01*
X18099D02*
X18114D01*
X18171D02*
X18272D01*
X17524Y18295D02*
X17604D01*
X17951D02*
X17981D01*
X18014D02*
X18066D01*
X18099D02*
X18116D01*
X18170D02*
X18272D01*
X17527Y18298D02*
X17604D01*
X17951D02*
X17981D01*
X18014D02*
X18066D01*
X18099D02*
X18118D01*
X18167D02*
X18272D01*
X17528Y18301D02*
X17604D01*
X17951D02*
X17981D01*
X18014D02*
X18066D01*
X18099D02*
X18121D01*
X18164D02*
X18272D01*
X17529Y18304D02*
X17604D01*
X17951D02*
X17981D01*
X18014D02*
X18066D01*
X18099D02*
X18125D01*
X18161D02*
X18272D01*
X17529Y18307D02*
X17585D01*
X17951D02*
X17981D01*
X18014D02*
X18066D01*
X18099D02*
X18130D01*
X18155D02*
X18272D01*
X17529Y18310D02*
X17579D01*
X17951D02*
X17981D01*
X18014D02*
X18066D01*
X18099D02*
X18272D01*
X17529Y18313D02*
X17576D01*
X17951D02*
X17981D01*
X18014D02*
X18066D01*
X18099D02*
X18272D01*
X17529Y18316D02*
X17573D01*
X17951D02*
X17981D01*
X18014D02*
X18066D01*
X18099D02*
X18272D01*
X17529Y18319D02*
X17570D01*
X17951D02*
X17981D01*
X18014D02*
X18066D01*
X18099D02*
X18272D01*
X17529Y18322D02*
X17569D01*
X17951D02*
X17981D01*
X18014D02*
X18066D01*
X18099D02*
X18272D01*
X17529Y18325D02*
X17567D01*
X17951D02*
X17981D01*
X18014D02*
X18066D01*
X18099D02*
X18272D01*
X17529Y18328D02*
X17566D01*
X17951D02*
X17981D01*
X18014D02*
X18066D01*
X18099D02*
X18272D01*
X17529Y18331D02*
X17566D01*
X17951D02*
X17981D01*
X18014D02*
X18066D01*
X18099D02*
X18272D01*
X17529Y18334D02*
X17565D01*
X17951D02*
X17981D01*
X18014D02*
X18066D01*
X18099D02*
X18272D01*
X17529Y18337D02*
X17565D01*
X17951D02*
X17981D01*
X18014D02*
X18066D01*
X18099D02*
X18272D01*
X17529Y18340D02*
X17565D01*
X17951D02*
X17981D01*
X18014D02*
X18066D01*
X18099D02*
X18272D01*
X17529Y18343D02*
X17566D01*
X17951D02*
X17981D01*
X18014D02*
X18066D01*
X18099D02*
X18272D01*
X17529Y18346D02*
X17566D01*
X17951D02*
X17978D01*
X18017D02*
X18063D01*
X18102D02*
X18272D01*
X17529Y18349D02*
X17567D01*
X17951D02*
X17975D01*
X18021D02*
X18060D01*
X18106D02*
X18272D01*
X17529Y18352D02*
X17569D01*
X17951D02*
X17972D01*
X18023D02*
X18057D01*
X18108D02*
X18272D01*
X17529Y18355D02*
X17571D01*
X17951D02*
X17970D01*
X18025D02*
X18055D01*
X18110D02*
X18272D01*
X17529Y18358D02*
X17573D01*
X17622D02*
X17968D01*
X18027D02*
X18053D01*
X18112D02*
X18272D01*
X17529Y18361D02*
X17576D01*
X17619D02*
X17967D01*
X18028D02*
X18052D01*
X18113D02*
X18272D01*
X17529Y18364D02*
X17580D01*
X17616D02*
X17966D01*
X18029D02*
X18051D01*
X18114D02*
X18272D01*
X17529Y18367D02*
X17585D01*
X17610D02*
X17965D01*
X18030D02*
X18050D01*
X18115D02*
X18272D01*
X17529Y18370D02*
X17965D01*
X18030D02*
X18050D01*
X18115D02*
X18272D01*
X17529Y18373D02*
X17965D01*
X18030D02*
X18050D01*
X18115D02*
X18272D01*
X17529Y18376D02*
X17965D01*
X18030D02*
X18050D01*
X18115D02*
X18272D01*
X17529Y18379D02*
X17966D01*
X18029D02*
X18051D01*
X18114D02*
X18272D01*
X17529Y18382D02*
X17967D01*
X18029D02*
X18052D01*
X18114D02*
X18272D01*
X17529Y18385D02*
X17968D01*
X18027D02*
X18053D01*
X18112D02*
X18272D01*
X17529Y18388D02*
X17969D01*
X18026D02*
X18054D01*
X18111D02*
X18272D01*
X17529Y18391D02*
X17971D01*
X18024D02*
X18056D01*
X18109D02*
X18272D01*
X17869Y18394D02*
X17974D01*
X18021D02*
X18059D01*
X18106D02*
X18272D01*
X17869Y18397D02*
X17977D01*
X18018D02*
X18062D01*
X18103D02*
X18272D01*
X17869Y18400D02*
X17981D01*
X18014D02*
X18066D01*
X18099D02*
X18272D01*
X17869Y18403D02*
X17988D01*
X18007D02*
X18073D01*
X18092D02*
X18272D01*
X17869Y18406D02*
X18272D01*
X17869Y18409D02*
X18272D01*
X17869Y18412D02*
X18272D01*
X17869Y18415D02*
X18272D01*
X17869Y18418D02*
X18272D01*
X17869Y18421D02*
X18272D01*
X17869Y18424D02*
X18272D01*
X17869Y18427D02*
X18272D01*
X17869Y18430D02*
X18272D01*
X17869Y18433D02*
X18272D01*
X17869Y18436D02*
X18272D01*
X17869Y18439D02*
X18272D01*
X17869Y18442D02*
X18272D01*
X17869Y18445D02*
X18272D01*
X17869Y18448D02*
X18272D01*
X17869Y18451D02*
X18272D01*
X17869Y18454D02*
X18272D01*
X17869Y18457D02*
X18272D01*
X17869Y18460D02*
X18272D01*
X17869Y18463D02*
X18272D01*
X17869Y18466D02*
X18272D01*
X17869Y18469D02*
X18272D01*
X17869Y18472D02*
X18057D01*
X18156D02*
X18272D01*
X17869Y18475D02*
X18057D01*
X18156D02*
X18272D01*
X17869Y18478D02*
X18057D01*
X18156D02*
X18272D01*
X17869Y18481D02*
X18057D01*
X18156D02*
X18272D01*
X17869Y18484D02*
X18057D01*
X18156D02*
X18272D01*
X17869Y18487D02*
X18057D01*
X18156D02*
X18272D01*
X17869Y18490D02*
X18057D01*
X18156D02*
X18272D01*
X17869Y18493D02*
X18057D01*
X18156D02*
X18272D01*
X17869Y18496D02*
X18057D01*
X18156D02*
X18272D01*
X17869Y18499D02*
X18057D01*
X18156D02*
X18272D01*
X17869Y18502D02*
X18057D01*
X18156D02*
X18272D01*
X17869Y18505D02*
X18057D01*
X18156D02*
X18272D01*
X17869Y18508D02*
X18056D01*
X18156D02*
X18272D01*
X17869Y18511D02*
X18053D01*
X18156D02*
X18272D01*
X17869Y18514D02*
X18050D01*
X18156D02*
X18272D01*
X17869Y18517D02*
X18047D01*
X18156D02*
X18272D01*
X17869Y18520D02*
X18044D01*
X18156D02*
X18271D01*
X17869Y18523D02*
X18041D01*
X18156D02*
X18268D01*
X17869Y18526D02*
X18038D01*
X18156D02*
X18265D01*
X17859Y18529D02*
X18035D01*
X18156D02*
X18262D01*
X17859Y18532D02*
X18032D01*
X18156D02*
X18259D01*
X17857Y18535D02*
X18029D01*
X18156D02*
X18256D01*
X17856Y18538D02*
X18026D01*
X18156D02*
X18253D01*
X18156Y18541D02*
X18250D01*
X18156Y18544D02*
X18247D01*
X18156Y18547D02*
X18244D01*
X18156Y18550D02*
X18241D01*
X17534Y17710D02*
X17521Y17714D01*
X17518Y17711*
Y17576*
X17572Y17522*
Y17462*
X17583Y17451*
X17713*
X17738Y17476*
X17833*
X17859Y17450*
Y17395*
X17865Y17389*
X17882*
X17894Y17400*
Y17478*
X17925Y17509*
X17976*
X17977Y17510*
Y17530*
X17971Y17536*
X17930*
X17916Y17550*
X17859*
X17840Y17531*
Y17504*
X17833Y17496*
X17733*
X17703Y17466*
X17598*
X17593Y17471*
Y17526*
X17534Y17585*
Y17710*
X17862Y17392D02*
X17885D01*
X17859Y17395D02*
X17888D01*
X17859Y17398D02*
X17891D01*
X17859Y17401D02*
X17894D01*
X17859Y17404D02*
X17894D01*
X17859Y17407D02*
X17894D01*
X17859Y17410D02*
X17894D01*
X17859Y17413D02*
X17894D01*
X17859Y17416D02*
X17894D01*
X17859Y17419D02*
X17894D01*
X17859Y17422D02*
X17894D01*
X17859Y17425D02*
X17894D01*
X17859Y17428D02*
X17894D01*
X17859Y17431D02*
X17894D01*
X17859Y17434D02*
X17894D01*
X17859Y17437D02*
X17894D01*
X17859Y17440D02*
X17894D01*
X17859Y17443D02*
X17894D01*
X17859Y17446D02*
X17894D01*
X17859Y17449D02*
X17894D01*
X17582Y17452D02*
X17713D01*
X17857D02*
X17894D01*
X17579Y17455D02*
X17716D01*
X17854D02*
X17894D01*
X17576Y17458D02*
X17719D01*
X17851D02*
X17894D01*
X17573Y17461D02*
X17722D01*
X17848D02*
X17894D01*
X17572Y17464D02*
X17725D01*
X17845D02*
X17894D01*
X17572Y17467D02*
X17597D01*
X17703D02*
X17728D01*
X17842D02*
X17894D01*
X17572Y17470D02*
X17594D01*
X17706D02*
X17731D01*
X17839D02*
X17894D01*
X17572Y17473D02*
X17593D01*
X17709D02*
X17734D01*
X17836D02*
X17894D01*
X17572Y17476D02*
X17593D01*
X17712D02*
X17737D01*
X17833D02*
X17894D01*
X17572Y17479D02*
X17593D01*
X17715D02*
X17895D01*
X17572Y17482D02*
X17593D01*
X17718D02*
X17898D01*
X17572Y17485D02*
X17593D01*
X17721D02*
X17901D01*
X17572Y17488D02*
X17593D01*
X17724D02*
X17904D01*
X17572Y17491D02*
X17593D01*
X17727D02*
X17907D01*
X17572Y17494D02*
X17593D01*
X17730D02*
X17910D01*
X17572Y17497D02*
X17593D01*
X17833D02*
X17913D01*
X17572Y17500D02*
X17593D01*
X17836D02*
X17916D01*
X17572Y17503D02*
X17593D01*
X17839D02*
X17919D01*
X17572Y17506D02*
X17593D01*
X17840D02*
X17922D01*
X17572Y17509D02*
X17593D01*
X17840D02*
X17925D01*
X17572Y17512D02*
X17593D01*
X17840D02*
X17977D01*
X17572Y17515D02*
X17593D01*
X17840D02*
X17977D01*
X17572Y17518D02*
X17593D01*
X17840D02*
X17977D01*
X17572Y17521D02*
X17593D01*
X17840D02*
X17977D01*
X17570Y17524D02*
X17593D01*
X17840D02*
X17977D01*
X17567Y17527D02*
X17592D01*
X17840D02*
X17977D01*
X17564Y17530D02*
X17589D01*
X17840D02*
X17977D01*
X17561Y17533D02*
X17586D01*
X17842D02*
X17975D01*
X17558Y17536D02*
X17583D01*
X17845D02*
X17972D01*
X17555Y17539D02*
X17580D01*
X17848D02*
X17927D01*
X17552Y17542D02*
X17577D01*
X17851D02*
X17924D01*
X17549Y17545D02*
X17574D01*
X17854D02*
X17921D01*
X17546Y17548D02*
X17571D01*
X17857D02*
X17918D01*
X17543Y17551D02*
X17568D01*
X17540Y17554D02*
X17565D01*
X17537Y17557D02*
X17562D01*
X17534Y17560D02*
X17559D01*
X17531Y17563D02*
X17556D01*
X17528Y17566D02*
X17553D01*
X17525Y17569D02*
X17550D01*
X17522Y17572D02*
X17547D01*
X17519Y17575D02*
X17544D01*
X17518Y17578D02*
X17541D01*
X17518Y17581D02*
X17538D01*
X17518Y17584D02*
X17535D01*
X17518Y17587D02*
X17534D01*
X17518Y17590D02*
X17534D01*
X17518Y17593D02*
X17534D01*
X17518Y17596D02*
X17534D01*
X17518Y17599D02*
X17534D01*
X17518Y17602D02*
X17534D01*
X17518Y17605D02*
X17534D01*
X17518Y17608D02*
X17534D01*
X17518Y17611D02*
X17534D01*
X17518Y17614D02*
X17534D01*
X17518Y17617D02*
X17534D01*
X17518Y17620D02*
X17534D01*
X17518Y17623D02*
X17534D01*
X17518Y17626D02*
X17534D01*
X17518Y17629D02*
X17534D01*
X17518Y17632D02*
X17534D01*
X17518Y17635D02*
X17534D01*
X17518Y17638D02*
X17534D01*
X17518Y17641D02*
X17534D01*
X17518Y17644D02*
X17534D01*
X17518Y17647D02*
X17534D01*
X17518Y17650D02*
X17534D01*
X17518Y17653D02*
X17534D01*
X17518Y17656D02*
X17534D01*
X17518Y17659D02*
X17534D01*
X17518Y17662D02*
X17534D01*
X17518Y17665D02*
X17534D01*
X17518Y17668D02*
X17534D01*
X17518Y17671D02*
X17534D01*
X17518Y17674D02*
X17534D01*
X17518Y17677D02*
X17534D01*
X17518Y17680D02*
X17534D01*
X17518Y17683D02*
X17534D01*
X17518Y17686D02*
X17534D01*
X17518Y17689D02*
X17534D01*
X17518Y17692D02*
X17534D01*
X17518Y17695D02*
X17534D01*
X17518Y17698D02*
X17534D01*
X17518Y17701D02*
X17534D01*
X17518Y17704D02*
X17534D01*
X17518Y17707D02*
X17534D01*
X17518Y17710D02*
X17534D01*
X17520Y17713D02*
X17523D01*
X17942Y17422D02*
X18009D01*
X18020Y17410*
Y17388*
X18016Y17384*
X17952*
X17946Y17390*
X17942Y17422*
X17951Y17386D02*
X18017D01*
X17948Y17389D02*
X18020D01*
X17946Y17392D02*
X18020D01*
X17946Y17395D02*
X18020D01*
X17945Y17398D02*
X18020D01*
X17945Y17401D02*
X18020D01*
X17945Y17404D02*
X18020D01*
X17944Y17407D02*
X18020D01*
X17944Y17410D02*
X18020D01*
X17943Y17413D02*
X18018D01*
X17943Y17416D02*
X18015D01*
X17943Y17419D02*
X18012D01*
X17973Y17621D02*
X17944D01*
X17940Y17625*
Y17650*
X17944Y17654*
X17971*
X17973Y17653*
Y17621*
X17944D02*
X17973D01*
X17941Y17624D02*
X17973D01*
X17940Y17627D02*
X17973D01*
X17940Y17630D02*
X17973D01*
X17940Y17633D02*
X17973D01*
X17940Y17636D02*
X17973D01*
X17940Y17639D02*
X17973D01*
X17940Y17642D02*
X17973D01*
X17940Y17645D02*
X17973D01*
X17940Y17648D02*
X17973D01*
X17941Y17651D02*
X17973D01*
X18158Y17554D02*
Y17528D01*
X18137Y17506*
X18051*
X18046Y17511*
Y17536*
X18052Y17543*
X18122*
X18130Y17550*
X18158Y17554*
X18049Y17509D02*
X18140D01*
X18046Y17512D02*
X18143D01*
X18046Y17515D02*
X18146D01*
X18046Y17518D02*
X18149D01*
X18046Y17521D02*
X18152D01*
X18046Y17524D02*
X18155D01*
X18046Y17527D02*
X18158D01*
X18046Y17530D02*
X18158D01*
X18046Y17533D02*
X18158D01*
X18046Y17536D02*
X18158D01*
X18048Y17539D02*
X18158D01*
X18051Y17542D02*
X18158D01*
X18124Y17545D02*
X18158D01*
X18127Y17548D02*
X18158D01*
X18135Y17551D02*
X18158D01*
X18303Y17536D02*
Y17480D01*
X18295Y17473*
X18283*
X18276Y17479*
Y17540*
X18283Y17546*
X18303Y17536*
X18282Y17473D02*
X18296D01*
X18279Y17476D02*
X18299D01*
X18276Y17479D02*
X18302D01*
X18276Y17482D02*
X18303D01*
X18276Y17485D02*
X18303D01*
X18276Y17488D02*
X18303D01*
X18276Y17491D02*
X18303D01*
X18276Y17494D02*
X18303D01*
X18276Y17497D02*
X18303D01*
X18276Y17500D02*
X18303D01*
X18276Y17503D02*
X18303D01*
X18276Y17506D02*
X18303D01*
X18276Y17509D02*
X18303D01*
X18276Y17512D02*
X18303D01*
X18276Y17515D02*
X18303D01*
X18276Y17518D02*
X18303D01*
X18276Y17521D02*
X18303D01*
X18276Y17524D02*
X18303D01*
X18276Y17527D02*
X18303D01*
X18276Y17530D02*
X18303D01*
X18276Y17533D02*
X18303D01*
X18276Y17536D02*
X18303D01*
X18276Y17539D02*
X18297D01*
X18279Y17542D02*
X18291D01*
X18282Y17545D02*
X18285D01*
X18333Y18062D02*
Y18103D01*
X18303Y18133*
X18118*
X18103Y18118*
Y18081*
X18082Y18060*
Y18056*
X18101Y18037*
X18127*
X18133Y18044*
Y18100*
X18155Y18121*
X18276*
X18303Y18093*
Y18071*
X18311Y18064*
X18333Y18062*
X18100Y18038D02*
X18128D01*
X18097Y18041D02*
X18131D01*
X18094Y18044D02*
X18133D01*
X18091Y18047D02*
X18133D01*
X18088Y18050D02*
X18133D01*
X18085Y18053D02*
X18133D01*
X18082Y18056D02*
X18133D01*
X18082Y18059D02*
X18133D01*
X18085Y18062D02*
X18133D01*
X18088Y18065D02*
X18133D01*
X18309D02*
X18333D01*
X18091Y18068D02*
X18133D01*
X18306D02*
X18333D01*
X18094Y18071D02*
X18133D01*
X18303D02*
X18333D01*
X18097Y18074D02*
X18133D01*
X18303D02*
X18333D01*
X18100Y18077D02*
X18133D01*
X18303D02*
X18333D01*
X18103Y18080D02*
X18133D01*
X18303D02*
X18333D01*
X18103Y18083D02*
X18133D01*
X18303D02*
X18333D01*
X18103Y18086D02*
X18133D01*
X18303D02*
X18333D01*
X18103Y18089D02*
X18133D01*
X18303D02*
X18333D01*
X18103Y18092D02*
X18133D01*
X18303D02*
X18333D01*
X18103Y18095D02*
X18133D01*
X18301D02*
X18333D01*
X18103Y18098D02*
X18133D01*
X18298D02*
X18333D01*
X18103Y18101D02*
X18135D01*
X18295D02*
X18333D01*
X18103Y18104D02*
X18138D01*
X18292D02*
X18332D01*
X18103Y18107D02*
X18141D01*
X18289D02*
X18329D01*
X18103Y18110D02*
X18144D01*
X18286D02*
X18326D01*
X18103Y18113D02*
X18147D01*
X18283D02*
X18323D01*
X18103Y18116D02*
X18150D01*
X18280D02*
X18320D01*
X18104Y18119D02*
X18153D01*
X18277D02*
X18317D01*
X18107Y18122D02*
X18314D01*
X18110Y18125D02*
X18311D01*
X18113Y18128D02*
X18308D01*
X18116Y18131D02*
X18305D01*
X18362Y18681D02*
X18381Y18662D01*
X18384Y18657*
X18386Y18651*
Y18224*
X18405Y18204*
X18659*
Y18267*
X18662*
X18660Y18276*
X18661Y18284*
X18664Y18292*
X18669Y18299*
X18676Y18304*
Y18405*
X18659*
Y18484*
X18688*
Y18681*
X18362*
X18389Y18534D02*
Y18544D01*
Y18613*
X18422*
Y18622*
X18423Y18628*
X18427Y18634*
X18436Y18643*
X18441Y18647*
X18448Y18648*
X18561*
Y18667*
X18640*
Y18568*
X18570*
X18571Y18567*
X18640*
Y18468*
X18566*
Y18465*
X18539*
Y18339*
X18546Y18334*
X18551Y18328*
X18554Y18320*
X18555Y18311*
X18554Y18302*
X18550Y18294*
X18544Y18287*
X18536Y18282*
X18527Y18279*
X18518*
X18509Y18282*
X18501Y18287*
X18495Y18294*
X18491Y18302*
X18490Y18311*
X18491Y18320*
X18494Y18328*
X18499Y18334*
X18506Y18339*
Y18465*
X18467*
Y18465*
X18454*
Y18384*
X18461Y18379*
X18466Y18373*
X18469Y18365*
X18470Y18356*
X18469Y18347*
X18465Y18339*
X18459Y18332*
X18451Y18327*
X18442Y18324*
X18433*
X18424Y18327*
X18416Y18332*
X18410Y18339*
X18406Y18347*
X18405Y18356*
X18406Y18365*
X18409Y18373*
X18414Y18379*
X18421Y18384*
Y18465*
X18389*
Y18534*
X18405Y18204D02*
X18659D01*
X18402Y18207D02*
X18659D01*
X18399Y18210D02*
X18659D01*
X18396Y18213D02*
X18659D01*
X18393Y18216D02*
X18659D01*
X18390Y18219D02*
X18659D01*
X18387Y18222D02*
X18659D01*
X18386Y18225D02*
X18659D01*
X18386Y18228D02*
X18659D01*
X18386Y18231D02*
X18659D01*
X18386Y18234D02*
X18659D01*
X18386Y18237D02*
X18659D01*
X18386Y18240D02*
X18659D01*
X18386Y18243D02*
X18659D01*
X18386Y18246D02*
X18659D01*
X18386Y18249D02*
X18659D01*
X18386Y18252D02*
X18659D01*
X18386Y18255D02*
X18659D01*
X18386Y18258D02*
X18659D01*
X18386Y18261D02*
X18659D01*
X18386Y18264D02*
X18659D01*
X18386Y18267D02*
X18661D01*
X18386Y18270D02*
X18661D01*
X18386Y18273D02*
X18660D01*
X18386Y18276D02*
X18660D01*
X18386Y18279D02*
X18517D01*
X18528D02*
X18660D01*
X18386Y18282D02*
X18508D01*
X18537D02*
X18661D01*
X18386Y18285D02*
X18503D01*
X18542D02*
X18661D01*
X18386Y18288D02*
X18500D01*
X18546D02*
X18662D01*
X18386Y18291D02*
X18497D01*
X18548D02*
X18664D01*
X18386Y18294D02*
X18495D01*
X18550D02*
X18666D01*
X18386Y18297D02*
X18493D01*
X18552D02*
X18668D01*
X18386Y18300D02*
X18492D01*
X18553D02*
X18671D01*
X18386Y18303D02*
X18491D01*
X18554D02*
X18675D01*
X18386Y18306D02*
X18491D01*
X18555D02*
X18676D01*
X18386Y18309D02*
X18490D01*
X18555D02*
X18676D01*
X18386Y18312D02*
X18490D01*
X18555D02*
X18676D01*
X18386Y18315D02*
X18490D01*
X18555D02*
X18676D01*
X18386Y18318D02*
X18491D01*
X18554D02*
X18676D01*
X18386Y18321D02*
X18492D01*
X18554D02*
X18676D01*
X18386Y18324D02*
X18432D01*
X18443D02*
X18493D01*
X18552D02*
X18676D01*
X18386Y18327D02*
X18423D01*
X18452D02*
X18494D01*
X18551D02*
X18676D01*
X18386Y18330D02*
X18418D01*
X18457D02*
X18496D01*
X18549D02*
X18676D01*
X18386Y18333D02*
X18415D01*
X18461D02*
X18499D01*
X18547D02*
X18676D01*
X18386Y18336D02*
X18412D01*
X18463D02*
X18502D01*
X18543D02*
X18676D01*
X18386Y18339D02*
X18410D01*
X18465D02*
X18506D01*
X18539D02*
X18676D01*
X18386Y18342D02*
X18408D01*
X18467D02*
X18506D01*
X18539D02*
X18676D01*
X18386Y18345D02*
X18407D01*
X18468D02*
X18506D01*
X18539D02*
X18676D01*
X18386Y18348D02*
X18406D01*
X18469D02*
X18506D01*
X18539D02*
X18676D01*
X18386Y18351D02*
X18406D01*
X18470D02*
X18506D01*
X18539D02*
X18676D01*
X18386Y18354D02*
X18405D01*
X18470D02*
X18506D01*
X18539D02*
X18676D01*
X18386Y18357D02*
X18405D01*
X18470D02*
X18506D01*
X18539D02*
X18676D01*
X18386Y18360D02*
X18405D01*
X18470D02*
X18506D01*
X18539D02*
X18676D01*
X18386Y18363D02*
X18406D01*
X18469D02*
X18506D01*
X18539D02*
X18676D01*
X18386Y18366D02*
X18407D01*
X18469D02*
X18506D01*
X18539D02*
X18676D01*
X18386Y18369D02*
X18408D01*
X18467D02*
X18506D01*
X18539D02*
X18676D01*
X18386Y18372D02*
X18409D01*
X18466D02*
X18506D01*
X18539D02*
X18676D01*
X18386Y18375D02*
X18411D01*
X18464D02*
X18506D01*
X18539D02*
X18676D01*
X18386Y18378D02*
X18414D01*
X18462D02*
X18506D01*
X18539D02*
X18676D01*
X18386Y18381D02*
X18417D01*
X18458D02*
X18506D01*
X18539D02*
X18676D01*
X18386Y18384D02*
X18421D01*
X18454D02*
X18506D01*
X18539D02*
X18676D01*
X18386Y18387D02*
X18421D01*
X18454D02*
X18506D01*
X18539D02*
X18676D01*
X18386Y18390D02*
X18421D01*
X18454D02*
X18506D01*
X18539D02*
X18676D01*
X18386Y18393D02*
X18421D01*
X18454D02*
X18506D01*
X18539D02*
X18676D01*
X18386Y18396D02*
X18421D01*
X18454D02*
X18506D01*
X18539D02*
X18676D01*
X18386Y18399D02*
X18421D01*
X18454D02*
X18506D01*
X18539D02*
X18676D01*
X18386Y18402D02*
X18421D01*
X18454D02*
X18506D01*
X18539D02*
X18676D01*
X18386Y18405D02*
X18421D01*
X18454D02*
X18506D01*
X18539D02*
X18659D01*
X18386Y18408D02*
X18421D01*
X18454D02*
X18506D01*
X18539D02*
X18659D01*
X18386Y18411D02*
X18421D01*
X18454D02*
X18506D01*
X18539D02*
X18659D01*
X18386Y18414D02*
X18421D01*
X18454D02*
X18506D01*
X18539D02*
X18659D01*
X18386Y18417D02*
X18421D01*
X18454D02*
X18506D01*
X18539D02*
X18659D01*
X18386Y18420D02*
X18421D01*
X18454D02*
X18506D01*
X18539D02*
X18659D01*
X18386Y18423D02*
X18421D01*
X18454D02*
X18506D01*
X18539D02*
X18659D01*
X18386Y18426D02*
X18421D01*
X18454D02*
X18506D01*
X18539D02*
X18659D01*
X18386Y18429D02*
X18421D01*
X18454D02*
X18506D01*
X18539D02*
X18659D01*
X18386Y18432D02*
X18421D01*
X18454D02*
X18506D01*
X18539D02*
X18659D01*
X18386Y18435D02*
X18421D01*
X18454D02*
X18506D01*
X18539D02*
X18659D01*
X18386Y18438D02*
X18421D01*
X18454D02*
X18506D01*
X18539D02*
X18659D01*
X18386Y18441D02*
X18421D01*
X18454D02*
X18506D01*
X18539D02*
X18659D01*
X18386Y18444D02*
X18421D01*
X18454D02*
X18506D01*
X18539D02*
X18659D01*
X18386Y18447D02*
X18421D01*
X18454D02*
X18506D01*
X18539D02*
X18659D01*
X18386Y18450D02*
X18421D01*
X18454D02*
X18506D01*
X18539D02*
X18659D01*
X18386Y18453D02*
X18421D01*
X18454D02*
X18506D01*
X18539D02*
X18659D01*
X18386Y18456D02*
X18421D01*
X18454D02*
X18506D01*
X18539D02*
X18659D01*
X18386Y18459D02*
X18421D01*
X18454D02*
X18506D01*
X18539D02*
X18659D01*
X18386Y18462D02*
X18421D01*
X18454D02*
X18506D01*
X18539D02*
X18659D01*
X18386Y18465D02*
X18389D01*
X18566D02*
X18659D01*
X18386Y18468D02*
X18389D01*
X18640D02*
X18659D01*
X18386Y18471D02*
X18389D01*
X18640D02*
X18659D01*
X18386Y18474D02*
X18389D01*
X18640D02*
X18659D01*
X18386Y18477D02*
X18389D01*
X18640D02*
X18659D01*
X18386Y18480D02*
X18389D01*
X18640D02*
X18659D01*
X18386Y18483D02*
X18389D01*
X18640D02*
X18659D01*
X18386Y18486D02*
X18389D01*
X18640D02*
X18688D01*
X18386Y18489D02*
X18389D01*
X18640D02*
X18688D01*
X18386Y18492D02*
X18389D01*
X18640D02*
X18688D01*
X18386Y18495D02*
X18389D01*
X18640D02*
X18688D01*
X18386Y18498D02*
X18389D01*
X18640D02*
X18688D01*
X18386Y18501D02*
X18389D01*
X18640D02*
X18688D01*
X18386Y18504D02*
X18389D01*
X18640D02*
X18688D01*
X18386Y18507D02*
X18389D01*
X18640D02*
X18688D01*
X18386Y18510D02*
X18389D01*
X18640D02*
X18688D01*
X18386Y18513D02*
X18389D01*
X18640D02*
X18688D01*
X18386Y18516D02*
X18389D01*
X18640D02*
X18688D01*
X18386Y18519D02*
X18389D01*
X18640D02*
X18688D01*
X18386Y18522D02*
X18389D01*
X18640D02*
X18688D01*
X18386Y18525D02*
X18389D01*
X18640D02*
X18688D01*
X18386Y18528D02*
X18389D01*
X18640D02*
X18688D01*
X18386Y18531D02*
X18389D01*
X18640D02*
X18688D01*
X18386Y18534D02*
X18389D01*
X18640D02*
X18688D01*
X18386Y18537D02*
X18389D01*
X18640D02*
X18688D01*
X18386Y18540D02*
X18389D01*
X18640D02*
X18688D01*
X18386Y18543D02*
X18389D01*
X18640D02*
X18688D01*
X18386Y18546D02*
X18389D01*
X18640D02*
X18688D01*
X18386Y18549D02*
X18389D01*
X18640D02*
X18688D01*
X18386Y18552D02*
X18389D01*
X18640D02*
X18688D01*
X18386Y18555D02*
X18389D01*
X18640D02*
X18688D01*
X18386Y18558D02*
X18389D01*
X18640D02*
X18688D01*
X18386Y18561D02*
X18389D01*
X18640D02*
X18688D01*
X18386Y18564D02*
X18389D01*
X18640D02*
X18688D01*
X18386Y18567D02*
X18389D01*
X18570D02*
X18688D01*
X18386Y18570D02*
X18389D01*
X18640D02*
X18688D01*
X18386Y18573D02*
X18389D01*
X18640D02*
X18688D01*
X18386Y18576D02*
X18389D01*
X18640D02*
X18688D01*
X18386Y18579D02*
X18389D01*
X18640D02*
X18688D01*
X18386Y18582D02*
X18389D01*
X18640D02*
X18688D01*
X18386Y18585D02*
X18389D01*
X18640D02*
X18688D01*
X18386Y18588D02*
X18389D01*
X18640D02*
X18688D01*
X18386Y18591D02*
X18389D01*
X18640D02*
X18688D01*
X18386Y18594D02*
X18389D01*
X18640D02*
X18688D01*
X18386Y18597D02*
X18389D01*
X18640D02*
X18688D01*
X18386Y18600D02*
X18389D01*
X18640D02*
X18688D01*
X18386Y18603D02*
X18389D01*
X18640D02*
X18688D01*
X18386Y18606D02*
X18389D01*
X18640D02*
X18688D01*
X18386Y18609D02*
X18389D01*
X18640D02*
X18688D01*
X18386Y18612D02*
X18389D01*
X18640D02*
X18688D01*
X18386Y18615D02*
X18422D01*
X18640D02*
X18688D01*
X18386Y18618D02*
X18422D01*
X18640D02*
X18688D01*
X18386Y18621D02*
X18422D01*
X18640D02*
X18688D01*
X18386Y18624D02*
X18422D01*
X18640D02*
X18688D01*
X18386Y18627D02*
X18423D01*
X18640D02*
X18688D01*
X18386Y18630D02*
X18424D01*
X18640D02*
X18688D01*
X18386Y18633D02*
X18426D01*
X18640D02*
X18688D01*
X18386Y18636D02*
X18429D01*
X18640D02*
X18688D01*
X18386Y18639D02*
X18432D01*
X18640D02*
X18688D01*
X18386Y18642D02*
X18435D01*
X18640D02*
X18688D01*
X18386Y18645D02*
X18439D01*
X18640D02*
X18688D01*
X18386Y18648D02*
X18561D01*
X18640D02*
X18688D01*
X18386Y18651D02*
X18561D01*
X18640D02*
X18688D01*
X18385Y18654D02*
X18561D01*
X18640D02*
X18688D01*
X18384Y18657D02*
X18561D01*
X18640D02*
X18688D01*
X18382Y18660D02*
X18561D01*
X18640D02*
X18688D01*
X18380Y18663D02*
X18561D01*
X18640D02*
X18688D01*
X18377Y18666D02*
X18561D01*
X18640D02*
X18688D01*
X18374Y18669D02*
X18688D01*
X18371Y18672D02*
X18688D01*
X18368Y18675D02*
X18688D01*
X18365Y18678D02*
X18688D01*
X18430Y17572D02*
X18606D01*
X18628Y17593*
Y17784*
X18619Y17793*
X18579*
X18571Y17800*
Y17838*
X18574Y17840*
X18630*
X18660Y17810*
Y17566*
X18621Y17527*
X18439*
X18428Y17538*
X18430Y17572*
X18436Y17530D02*
X18624D01*
X18433Y17533D02*
X18627D01*
X18430Y17536D02*
X18630D01*
X18428Y17539D02*
X18633D01*
X18428Y17542D02*
X18636D01*
X18428Y17545D02*
X18639D01*
X18429Y17548D02*
X18642D01*
X18429Y17551D02*
X18645D01*
X18429Y17554D02*
X18648D01*
X18429Y17557D02*
X18651D01*
X18430Y17560D02*
X18654D01*
X18430Y17563D02*
X18657D01*
X18430Y17566D02*
X18660D01*
X18430Y17569D02*
X18660D01*
X18606Y17572D02*
X18660D01*
X18609Y17575D02*
X18660D01*
X18612Y17578D02*
X18660D01*
X18615Y17581D02*
X18660D01*
X18618Y17584D02*
X18660D01*
X18621Y17587D02*
X18660D01*
X18624Y17590D02*
X18660D01*
X18627Y17593D02*
X18660D01*
X18628Y17596D02*
X18660D01*
X18628Y17599D02*
X18660D01*
X18628Y17602D02*
X18660D01*
X18628Y17605D02*
X18660D01*
X18628Y17608D02*
X18660D01*
X18628Y17611D02*
X18660D01*
X18628Y17614D02*
X18660D01*
X18628Y17617D02*
X18660D01*
X18628Y17620D02*
X18660D01*
X18628Y17623D02*
X18660D01*
X18628Y17626D02*
X18660D01*
X18628Y17629D02*
X18660D01*
X18628Y17632D02*
X18660D01*
X18628Y17635D02*
X18660D01*
X18628Y17638D02*
X18660D01*
X18628Y17641D02*
X18660D01*
X18628Y17644D02*
X18660D01*
X18628Y17647D02*
X18660D01*
X18628Y17650D02*
X18660D01*
X18628Y17653D02*
X18660D01*
X18628Y17656D02*
X18660D01*
X18628Y17659D02*
X18660D01*
X18628Y17662D02*
X18660D01*
X18628Y17665D02*
X18660D01*
X18628Y17668D02*
X18660D01*
X18628Y17671D02*
X18660D01*
X18628Y17674D02*
X18660D01*
X18628Y17677D02*
X18660D01*
X18628Y17680D02*
X18660D01*
X18628Y17683D02*
X18660D01*
X18628Y17686D02*
X18660D01*
X18628Y17689D02*
X18660D01*
X18628Y17692D02*
X18660D01*
X18628Y17695D02*
X18660D01*
X18628Y17698D02*
X18660D01*
X18628Y17701D02*
X18660D01*
X18628Y17704D02*
X18660D01*
X18628Y17707D02*
X18660D01*
X18628Y17710D02*
X18660D01*
X18628Y17713D02*
X18660D01*
X18628Y17716D02*
X18660D01*
X18628Y17719D02*
X18660D01*
X18628Y17722D02*
X18660D01*
X18628Y17725D02*
X18660D01*
X18628Y17728D02*
X18660D01*
X18628Y17731D02*
X18660D01*
X18628Y17734D02*
X18660D01*
X18628Y17737D02*
X18660D01*
X18628Y17740D02*
X18660D01*
X18628Y17743D02*
X18660D01*
X18628Y17746D02*
X18660D01*
X18628Y17749D02*
X18660D01*
X18628Y17752D02*
X18660D01*
X18628Y17755D02*
X18660D01*
X18628Y17758D02*
X18660D01*
X18628Y17761D02*
X18660D01*
X18628Y17764D02*
X18660D01*
X18628Y17767D02*
X18660D01*
X18628Y17770D02*
X18660D01*
X18628Y17773D02*
X18660D01*
X18628Y17776D02*
X18660D01*
X18628Y17779D02*
X18660D01*
X18628Y17782D02*
X18660D01*
X18627Y17785D02*
X18660D01*
X18624Y17788D02*
X18660D01*
X18621Y17791D02*
X18660D01*
X18578Y17794D02*
X18660D01*
X18575Y17797D02*
X18660D01*
X18572Y17800D02*
X18660D01*
X18571Y17803D02*
X18660D01*
X18571Y17806D02*
X18660D01*
X18571Y17809D02*
X18660D01*
X18571Y17812D02*
X18658D01*
X18571Y17815D02*
X18655D01*
X18571Y17818D02*
X18652D01*
X18571Y17821D02*
X18649D01*
X18571Y17824D02*
X18646D01*
X18571Y17827D02*
X18643D01*
X18571Y17830D02*
X18640D01*
X18571Y17833D02*
X18637D01*
X18571Y17836D02*
X18634D01*
X18573Y17839D02*
X18631D01*
X18574Y17724D02*
X18523D01*
X18502Y17745*
Y17929*
X18517Y17944*
X18568*
X18585Y17961*
Y18132*
X18573Y18145*
X18351*
X18287Y18208*
Y18525*
X18246Y18566*
X18095*
X18081Y18580*
Y18606*
X18069Y18619*
X17908*
X17894Y18633*
Y18693*
X17898Y18696*
X18326*
X18371Y18651*
Y18218*
X18399Y18189*
X18680*
X18693Y18176*
Y17910*
X18660Y17878*
X18556*
X18538Y17859*
Y17771*
X18550Y17759*
X18581*
X18583Y17760*
X18574Y17724*
X18523D02*
X18574D01*
X18520Y17727D02*
X18575D01*
X18517Y17730D02*
X18575D01*
X18514Y17733D02*
X18576D01*
X18511Y17736D02*
X18577D01*
X18508Y17739D02*
X18578D01*
X18505Y17742D02*
X18578D01*
X18502Y17745D02*
X18579D01*
X18502Y17748D02*
X18580D01*
X18502Y17751D02*
X18580D01*
X18502Y17754D02*
X18581D01*
X18502Y17757D02*
X18582D01*
X18502Y17760D02*
X18549D01*
X18582D02*
X18583D01*
X18502Y17763D02*
X18546D01*
X18502Y17766D02*
X18543D01*
X18502Y17769D02*
X18540D01*
X18502Y17772D02*
X18538D01*
X18502Y17775D02*
X18538D01*
X18502Y17778D02*
X18538D01*
X18502Y17781D02*
X18538D01*
X18502Y17784D02*
X18538D01*
X18502Y17787D02*
X18538D01*
X18502Y17790D02*
X18538D01*
X18502Y17793D02*
X18538D01*
X18502Y17796D02*
X18538D01*
X18502Y17799D02*
X18538D01*
X18502Y17802D02*
X18538D01*
X18502Y17805D02*
X18538D01*
X18502Y17808D02*
X18538D01*
X18502Y17811D02*
X18538D01*
X18502Y17814D02*
X18538D01*
X18502Y17817D02*
X18538D01*
X18502Y17820D02*
X18538D01*
X18502Y17823D02*
X18538D01*
X18502Y17826D02*
X18538D01*
X18502Y17829D02*
X18538D01*
X18502Y17832D02*
X18538D01*
X18502Y17835D02*
X18538D01*
X18502Y17838D02*
X18538D01*
X18502Y17841D02*
X18538D01*
X18502Y17844D02*
X18538D01*
X18502Y17847D02*
X18538D01*
X18502Y17850D02*
X18538D01*
X18502Y17853D02*
X18538D01*
X18502Y17856D02*
X18538D01*
X18502Y17859D02*
X18538D01*
X18502Y17862D02*
X18541D01*
X18502Y17865D02*
X18544D01*
X18502Y17868D02*
X18547D01*
X18502Y17871D02*
X18550D01*
X18502Y17874D02*
X18553D01*
X18502Y17877D02*
X18556D01*
X18502Y17880D02*
X18663D01*
X18502Y17883D02*
X18666D01*
X18502Y17886D02*
X18669D01*
X18502Y17889D02*
X18672D01*
X18502Y17892D02*
X18675D01*
X18502Y17895D02*
X18678D01*
X18502Y17898D02*
X18681D01*
X18502Y17901D02*
X18684D01*
X18502Y17904D02*
X18687D01*
X18502Y17907D02*
X18690D01*
X18502Y17910D02*
X18693D01*
X18502Y17913D02*
X18693D01*
X18502Y17916D02*
X18693D01*
X18502Y17919D02*
X18693D01*
X18502Y17922D02*
X18693D01*
X18502Y17925D02*
X18693D01*
X18502Y17928D02*
X18693D01*
X18504Y17931D02*
X18693D01*
X18507Y17934D02*
X18693D01*
X18510Y17937D02*
X18693D01*
X18513Y17940D02*
X18693D01*
X18516Y17943D02*
X18693D01*
X18570Y17946D02*
X18693D01*
X18573Y17949D02*
X18693D01*
X18576Y17952D02*
X18693D01*
X18579Y17955D02*
X18693D01*
X18582Y17958D02*
X18693D01*
X18585Y17961D02*
X18693D01*
X18585Y17964D02*
X18693D01*
X18585Y17967D02*
X18693D01*
X18585Y17970D02*
X18693D01*
X18585Y17973D02*
X18693D01*
X18585Y17976D02*
X18693D01*
X18585Y17979D02*
X18693D01*
X18585Y17982D02*
X18693D01*
X18585Y17985D02*
X18693D01*
X18585Y17988D02*
X18693D01*
X18585Y17991D02*
X18693D01*
X18585Y17994D02*
X18693D01*
X18585Y17997D02*
X18693D01*
X18585Y18000D02*
X18693D01*
X18585Y18003D02*
X18693D01*
X18585Y18006D02*
X18693D01*
X18585Y18009D02*
X18693D01*
X18585Y18012D02*
X18693D01*
X18585Y18015D02*
X18693D01*
X18585Y18018D02*
X18693D01*
X18585Y18021D02*
X18693D01*
X18585Y18024D02*
X18693D01*
X18585Y18027D02*
X18693D01*
X18585Y18030D02*
X18693D01*
X18585Y18033D02*
X18693D01*
X18585Y18036D02*
X18693D01*
X18585Y18039D02*
X18693D01*
X18585Y18042D02*
X18693D01*
X18585Y18045D02*
X18693D01*
X18585Y18048D02*
X18693D01*
X18585Y18051D02*
X18693D01*
X18585Y18054D02*
X18693D01*
X18585Y18057D02*
X18693D01*
X18585Y18060D02*
X18693D01*
X18585Y18063D02*
X18693D01*
X18585Y18066D02*
X18693D01*
X18585Y18069D02*
X18693D01*
X18585Y18072D02*
X18693D01*
X18585Y18075D02*
X18693D01*
X18585Y18078D02*
X18693D01*
X18585Y18081D02*
X18693D01*
X18585Y18084D02*
X18693D01*
X18585Y18087D02*
X18693D01*
X18585Y18090D02*
X18693D01*
X18585Y18093D02*
X18693D01*
X18585Y18096D02*
X18693D01*
X18585Y18099D02*
X18693D01*
X18585Y18102D02*
X18693D01*
X18585Y18105D02*
X18693D01*
X18585Y18108D02*
X18693D01*
X18585Y18111D02*
X18693D01*
X18585Y18114D02*
X18693D01*
X18585Y18117D02*
X18693D01*
X18585Y18120D02*
X18693D01*
X18585Y18123D02*
X18693D01*
X18585Y18126D02*
X18693D01*
X18585Y18129D02*
X18693D01*
X18585Y18132D02*
X18693D01*
X18582Y18135D02*
X18693D01*
X18579Y18138D02*
X18693D01*
X18576Y18141D02*
X18693D01*
X18573Y18144D02*
X18693D01*
X18348Y18147D02*
X18693D01*
X18345Y18150D02*
X18693D01*
X18342Y18153D02*
X18693D01*
X18339Y18156D02*
X18693D01*
X18336Y18159D02*
X18693D01*
X18333Y18162D02*
X18693D01*
X18330Y18165D02*
X18693D01*
X18327Y18168D02*
X18693D01*
X18324Y18171D02*
X18693D01*
X18321Y18174D02*
X18693D01*
X18318Y18177D02*
X18692D01*
X18315Y18180D02*
X18689D01*
X18312Y18183D02*
X18686D01*
X18309Y18186D02*
X18683D01*
X18306Y18189D02*
X18399D01*
X18303Y18192D02*
X18396D01*
X18300Y18195D02*
X18393D01*
X18297Y18198D02*
X18390D01*
X18294Y18201D02*
X18387D01*
X18291Y18204D02*
X18384D01*
X18288Y18207D02*
X18381D01*
X18287Y18210D02*
X18378D01*
X18287Y18213D02*
X18375D01*
X18287Y18216D02*
X18372D01*
X18287Y18219D02*
X18371D01*
X18287Y18222D02*
X18371D01*
X18287Y18225D02*
X18371D01*
X18287Y18228D02*
X18371D01*
X18287Y18231D02*
X18371D01*
X18287Y18234D02*
X18371D01*
X18287Y18237D02*
X18371D01*
X18287Y18240D02*
X18371D01*
X18287Y18243D02*
X18371D01*
X18287Y18246D02*
X18371D01*
X18287Y18249D02*
X18371D01*
X18287Y18252D02*
X18371D01*
X18287Y18255D02*
X18371D01*
X18287Y18258D02*
X18371D01*
X18287Y18261D02*
X18371D01*
X18287Y18264D02*
X18371D01*
X18287Y18267D02*
X18371D01*
X18287Y18270D02*
X18371D01*
X18287Y18273D02*
X18371D01*
X18287Y18276D02*
X18371D01*
X18287Y18279D02*
X18371D01*
X18287Y18282D02*
X18371D01*
X18287Y18285D02*
X18371D01*
X18287Y18288D02*
X18371D01*
X18287Y18291D02*
X18371D01*
X18287Y18294D02*
X18371D01*
X18287Y18297D02*
X18371D01*
X18287Y18300D02*
X18371D01*
X18287Y18303D02*
X18371D01*
X18287Y18306D02*
X18371D01*
X18287Y18309D02*
X18371D01*
X18287Y18312D02*
X18371D01*
X18287Y18315D02*
X18371D01*
X18287Y18318D02*
X18371D01*
X18287Y18321D02*
X18371D01*
X18287Y18324D02*
X18371D01*
X18287Y18327D02*
X18371D01*
X18287Y18330D02*
X18371D01*
X18287Y18333D02*
X18371D01*
X18287Y18336D02*
X18371D01*
X18287Y18339D02*
X18371D01*
X18287Y18342D02*
X18371D01*
X18287Y18345D02*
X18371D01*
X18287Y18348D02*
X18371D01*
X18287Y18351D02*
X18371D01*
X18287Y18354D02*
X18371D01*
X18287Y18357D02*
X18371D01*
X18287Y18360D02*
X18371D01*
X18287Y18363D02*
X18371D01*
X18287Y18366D02*
X18371D01*
X18287Y18369D02*
X18371D01*
X18287Y18372D02*
X18371D01*
X18287Y18375D02*
X18371D01*
X18287Y18378D02*
X18371D01*
X18287Y18381D02*
X18371D01*
X18287Y18384D02*
X18371D01*
X18287Y18387D02*
X18371D01*
X18287Y18390D02*
X18371D01*
X18287Y18393D02*
X18371D01*
X18287Y18396D02*
X18371D01*
X18287Y18399D02*
X18371D01*
X18287Y18402D02*
X18371D01*
X18287Y18405D02*
X18371D01*
X18287Y18408D02*
X18371D01*
X18287Y18411D02*
X18371D01*
X18287Y18414D02*
X18371D01*
X18287Y18417D02*
X18371D01*
X18287Y18420D02*
X18371D01*
X18287Y18423D02*
X18371D01*
X18287Y18426D02*
X18371D01*
X18287Y18429D02*
X18371D01*
X18287Y18432D02*
X18371D01*
X18287Y18435D02*
X18371D01*
X18287Y18438D02*
X18371D01*
X18287Y18441D02*
X18371D01*
X18287Y18444D02*
X18371D01*
X18287Y18447D02*
X18371D01*
X18287Y18450D02*
X18371D01*
X18287Y18453D02*
X18371D01*
X18287Y18456D02*
X18371D01*
X18287Y18459D02*
X18371D01*
X18287Y18462D02*
X18371D01*
X18287Y18465D02*
X18371D01*
X18287Y18468D02*
X18371D01*
X18287Y18471D02*
X18371D01*
X18287Y18474D02*
X18371D01*
X18287Y18477D02*
X18371D01*
X18287Y18480D02*
X18371D01*
X18287Y18483D02*
X18371D01*
X18287Y18486D02*
X18371D01*
X18287Y18489D02*
X18371D01*
X18287Y18492D02*
X18371D01*
X18287Y18495D02*
X18371D01*
X18287Y18498D02*
X18371D01*
X18287Y18501D02*
X18371D01*
X18287Y18504D02*
X18371D01*
X18287Y18507D02*
X18371D01*
X18287Y18510D02*
X18371D01*
X18287Y18513D02*
X18371D01*
X18287Y18516D02*
X18371D01*
X18287Y18519D02*
X18371D01*
X18287Y18522D02*
X18371D01*
X18287Y18525D02*
X18371D01*
X18284Y18528D02*
X18371D01*
X18281Y18531D02*
X18371D01*
X18278Y18534D02*
X18371D01*
X18275Y18537D02*
X18371D01*
X18272Y18540D02*
X18371D01*
X18269Y18543D02*
X18371D01*
X18266Y18546D02*
X18371D01*
X18263Y18549D02*
X18371D01*
X18260Y18552D02*
X18371D01*
X18257Y18555D02*
X18371D01*
X18254Y18558D02*
X18371D01*
X18251Y18561D02*
X18371D01*
X18248Y18564D02*
X18371D01*
X18094Y18567D02*
X18371D01*
X18091Y18570D02*
X18371D01*
X18088Y18573D02*
X18371D01*
X18085Y18576D02*
X18371D01*
X18082Y18579D02*
X18371D01*
X18081Y18582D02*
X18371D01*
X18081Y18585D02*
X18371D01*
X18081Y18588D02*
X18371D01*
X18081Y18591D02*
X18371D01*
X18081Y18594D02*
X18371D01*
X18081Y18597D02*
X18371D01*
X18081Y18600D02*
X18371D01*
X18081Y18603D02*
X18371D01*
X18081Y18606D02*
X18371D01*
X18078Y18609D02*
X18371D01*
X18075Y18612D02*
X18371D01*
X18072Y18615D02*
X18371D01*
X18069Y18618D02*
X18371D01*
X17905Y18621D02*
X18371D01*
X17902Y18624D02*
X18371D01*
X17899Y18627D02*
X18371D01*
X17896Y18630D02*
X18371D01*
X17894Y18633D02*
X18371D01*
X17894Y18636D02*
X18371D01*
X17894Y18639D02*
X18371D01*
X17894Y18642D02*
X18371D01*
X17894Y18645D02*
X18371D01*
X17894Y18648D02*
X18371D01*
X17894Y18651D02*
X18371D01*
X17894Y18654D02*
X18368D01*
X17894Y18657D02*
X18365D01*
X17894Y18660D02*
X18362D01*
X17894Y18663D02*
X18359D01*
X17894Y18666D02*
X18356D01*
X17894Y18669D02*
X18353D01*
X17894Y18672D02*
X18350D01*
X17894Y18675D02*
X18347D01*
X17894Y18678D02*
X18344D01*
X17894Y18681D02*
X18341D01*
X17894Y18684D02*
X18338D01*
X17894Y18687D02*
X18335D01*
X17894Y18690D02*
X18332D01*
X17894Y18693D02*
X18329D01*
X17897Y18696D02*
X18326D01*
D02*
D76*
X17303Y17436D03*
X18638Y17431D03*
D02*
D79*
X17882Y17550D03*
Y17618D03*
X18107Y18510D03*
Y18578D03*
X18142Y17550D03*
Y17618D03*
X18319Y17837D03*
Y17906D03*
Y18002D03*
Y18071D03*
X18438Y18505D03*
Y18573D03*
X18517Y18505D03*
Y18573D03*
D02*
D90*
X17876Y17404D03*
X17945D03*
X18146Y18236D03*
X18215D03*
X18451Y17907D03*
X18519D03*
X18601Y18517D03*
Y18617D03*
X18669Y18517D03*
Y18617D03*
D02*
D91*
X17276Y18460D03*
Y18656D03*
X17355Y18460D03*
Y18656D03*
X17434Y18460D03*
Y18656D03*
X17513Y18460D03*
Y18656D03*
X17591Y18460D03*
Y18656D03*
X17670Y18460D03*
Y18656D03*
X17749Y18460D03*
Y18656D03*
X17828Y18460D03*
Y18656D03*
X17906Y18460D03*
Y18656D03*
X17985Y18460D03*
Y18656D03*
D02*
D92*
X17223Y18606D02*
Y18706D01*
X17323Y18706*
Y17356D02*
X17223D01*
X17223Y17456*
X18613Y18706D02*
X18713D01*
Y18606*
Y17456D02*
Y17356D01*
X18613Y17356*
D02*
D95*
X17278Y18610D02*
Y18636D01*
X17283Y18641*
X17276Y18656*
X17369Y18055D02*
X17322D01*
X17369Y18094D02*
X17291D01*
X17409Y18331D02*
X17383D01*
X17369Y18328*
X17513Y18460D02*
Y18306D01*
X17470Y18264*
X17523Y17632D02*
X17523Y17622D01*
Y17581*
X17581Y17523*
Y17478*
X17598Y17461*
X17713*
X17738Y17486*
X17863*
X17888Y17511*
Y17521*
X17882Y17550*
X17523Y17632D02*
X17524Y17698D01*
X17538Y17711*
X17533Y17724*
X17548Y18036D02*
X17633D01*
Y18035*
X17548Y18056D02*
X17493D01*
X17418Y18131*
X17393*
X17369Y18133*
X17548Y18056D02*
X17493D01*
X17483Y18046*
Y17801*
X17503Y17781*
X17788*
Y17836*
X17548Y18096D02*
X17503D01*
X17428Y18171*
X17369Y18172*
X17548Y18176D02*
X17483D01*
X17448Y18211*
X17369*
X17620Y17724D02*
X17780D01*
X17788Y17716*
Y17836*
X17620Y17724D02*
X17645D01*
X17653Y17716*
X17651Y17632*
X17628Y17836D02*
Y17916D01*
X17673Y17961*
Y18117*
X17628Y18296D02*
Y18336D01*
X17612*
X17648Y18296D02*
Y18240D01*
X17673Y18507D02*
Y18451D01*
X17670Y18460*
X17713Y17925D02*
Y18152D01*
X17748Y18507D02*
Y18461D01*
X17749Y18460*
X17753Y17960D02*
Y18196D01*
X17743Y18207*
X17768Y18296D02*
Y18201D01*
X17798Y18171*
X17777Y17612D02*
X17783Y17606D01*
Y17721*
X17653*
X17651Y17632*
X17788Y18296D02*
Y18361D01*
X17808Y18381*
X17888*
X17908Y18401*
Y18451*
X17906Y18460*
X17808Y17836D02*
Y18007D01*
X17828Y18507D02*
X17828Y18460D01*
X17882Y17550D02*
Y17426D01*
X17878Y17421*
X17876Y17404*
X17882Y17550D02*
Y17521D01*
X17965*
X17973Y17530*
Y17541*
X17975Y17524*
X17882Y17618D02*
Y17711D01*
X17784*
X17783Y17710*
Y17616*
X17777Y17612*
X17906Y18460D02*
Y18428D01*
X17908Y18426*
X17983*
Y18446*
X17988Y18451*
X17985Y18460*
X17908Y17836D02*
Y17781D01*
X17928Y17761*
X17944*
X17928Y17836D02*
Y17901D01*
X17918Y17911*
X17917*
X17945Y17404D02*
X18015D01*
X18018Y17406*
X18016Y17404*
X17957Y17641D02*
X17973D01*
X17975Y17639*
X17985Y18460D02*
Y18429D01*
X17988Y18426*
X18193*
X18223Y18396*
Y18236*
X18218Y18231*
Y18226*
X18215Y18236*
X17985Y18656D02*
X17906D01*
X17998Y18357D02*
Y18270D01*
X18008Y17916D02*
X18033D01*
Y17885*
X18008Y17936D02*
X18053D01*
X18073Y17916*
Y17806*
X18068Y17801*
X18022*
X18008Y17996D02*
X17948D01*
X17936Y17985*
X18008Y18016D02*
X17821D01*
X18008Y18036D02*
X18058D01*
X18068Y18026*
Y17961*
X18083Y17946*
X18198*
X18223Y17921*
Y17856*
X18008Y18076D02*
X18053D01*
X18063Y18086*
Y18141*
X18078Y18156*
X18213*
Y18231*
X18215Y18236*
X18008Y18096D02*
X17898D01*
X17883Y18081*
Y18070*
X18008Y18196D02*
X18069D01*
X18012Y17639D02*
Y17710D01*
X18013Y17711*
X18143*
X18142Y17618*
X18012Y17639D02*
Y17711D01*
X17883*
Y17616*
X17882Y17618*
X18050Y17639D02*
Y17594D01*
X18043Y17586*
X18023*
X18013Y17576*
Y17476*
X18028Y17461*
X18078*
X18088Y17451*
Y17406*
X18083Y17401*
X18085Y17404*
X18083Y18357D02*
Y18265D01*
X18107Y18510D02*
X18080D01*
X18033Y18556*
X17548*
X17513Y18521*
Y18516*
X17513Y18460*
X18107Y18578D02*
X18261D01*
X18303Y18536*
Y18290*
X18107Y18578D02*
Y18642D01*
X18093Y18656*
X17985*
X18123Y18056D02*
X18008D01*
X18142Y17550D02*
Y17536D01*
X18128Y17521*
X18058*
X18053Y17516*
X18050Y17524*
X18142Y17618D02*
Y17626D01*
X18316*
X18338Y17605*
Y17596*
X18336Y17548*
X18144Y18263D02*
X18146Y18236D01*
X18215D02*
Y18158D01*
X18213Y18156*
X18318*
X18398Y18076*
X18400Y18065*
X18453Y18056*
X18223Y17856D02*
Y17841D01*
X18228Y17836*
X18319Y17837*
X18291Y17548D02*
Y17498D01*
X18319Y17906D02*
Y18000D01*
X18318Y18001*
X18319Y18002*
X18343*
X18398Y18056*
X18453*
X18319Y18071D02*
Y18095D01*
X18288Y18126*
X18133*
X18123Y18116*
Y18056*
X18336Y17548D02*
Y17625D01*
X18388Y17676*
Y17906*
X18318*
X18319Y17906*
X18336Y17548D02*
Y17603D01*
X18313Y17626*
X18158*
X18148Y17636*
Y17691*
X18128Y17711*
X18033*
X18013Y17691*
Y17681*
X18012Y17639*
X18438Y18370D02*
Y18501D01*
X18433Y18506*
X18438Y18505*
Y18573D02*
Y18622D01*
X18448Y18631*
X18593*
X18598Y18626*
X18601Y18617*
X18451Y17907D02*
X18448D01*
X18448Y17906*
X18319Y17906*
X18453Y18097D02*
Y18056D01*
X18519Y17907D02*
X18623D01*
X18643Y17926*
Y18056*
X18519Y17907D02*
Y17770D01*
X18543Y17746*
X18559Y17747*
X18523Y18325D02*
Y18496D01*
X18517Y18505*
X18597Y17817D02*
X18633D01*
X18653Y17796*
Y17586*
X18623Y17556*
X18428*
X18425Y17554*
X18421Y17558*
X18426*
Y17548*
X18601Y18517D02*
X18597D01*
X18538Y18576*
X18517Y18573*
X18623Y18228D02*
Y18226D01*
X18469*
X18623Y18228D02*
Y18446D01*
X18618Y18451*
X18623Y18444*
X18643Y18056D02*
Y18126D01*
X18613Y18156*
X18348*
X18303Y18201*
Y18536*
X18263Y18576*
X18098*
X18107Y18578*
X18669Y18517D02*
Y18608D01*
X18673Y18611*
X18669Y18617*
Y18517D02*
X18668D01*
Y18501*
X18621Y18455*
X18623Y18444*
X18693Y18262D02*
X18694Y18228D01*
Y18425*
X18693Y18426*
Y18421*
X18694Y18423*
Y18444*
D02*
D96*
X17508Y17724D03*
X17533Y17724D03*
X17620D03*
X17645Y17724D03*
X18291Y17548D03*
X18336D03*
D03*
X18381D03*
X18426D03*
D02*
D97*
X17628Y17836D03*
Y18296D03*
X17648Y17836D03*
Y18296D03*
X17668Y17836D03*
Y18296D03*
X17688Y17836D03*
Y18296D03*
X17708Y17836D03*
Y18296D03*
X17728Y17836D03*
Y18296D03*
X17748Y17836D03*
Y18296D03*
X17768Y17836D03*
Y18296D03*
X17788Y17836D03*
Y18296D03*
X17808Y17836D03*
Y18296D03*
X17828Y17836D03*
Y18296D03*
X17848Y17836D03*
Y18296D03*
X17868Y17836D03*
Y18296D03*
X17888Y17836D03*
Y18296D03*
X17908Y17836D03*
Y18296D03*
X17928Y17836D03*
Y18296D03*
D02*
D98*
X17548Y17916D03*
Y17936D03*
Y17956D03*
Y17976D03*
Y17996D03*
Y18016D03*
Y18036D03*
Y18056D03*
Y18076D03*
Y18096D03*
Y18116D03*
Y18136D03*
Y18156D03*
Y18176D03*
Y18196D03*
Y18216D03*
X18008Y17916D03*
Y17936D03*
Y17956D03*
Y17976D03*
Y17996D03*
Y18016D03*
Y18036D03*
Y18056D03*
Y18076D03*
Y18096D03*
Y18116D03*
Y18136D03*
Y18156D03*
Y18176D03*
Y18196D03*
Y18216D03*
D02*
D99*
X18123Y17856D03*
X18223Y18056D03*
D02*
D100*
X18123D03*
X18223Y17856D03*
D02*
D101*
X17369Y18055D03*
Y18094D03*
Y18133D03*
Y18172D03*
Y18211D03*
Y18250D03*
Y18289D03*
Y18328D03*
D02*
D102*
X17258Y18005D03*
Y18376D03*
D02*
D103*
X18623Y18228D03*
Y18444D03*
X18694Y18228D03*
Y18444D03*
D02*
D104*
X18578Y17677D03*
Y17747D03*
Y17817D03*
D02*
D105*
X18718Y17677D03*
Y17747D03*
Y17817D03*
D02*
D106*
X18453Y18056D03*
X18643D03*
D02*
D107*
X17523Y17632D03*
X17555D03*
X17587D03*
X17619D03*
X17651D03*
D02*
D108*
X17402Y17612D03*
X17777D03*
D02*
D109*
X17403Y17408D03*
X17778D03*
D02*
D110*
X17504Y17525D03*
X17672D03*
D02*
D111*
X18016Y17404D03*
X18085D03*
D02*
D112*
X17975Y17524D03*
Y17639D03*
X18012Y17639D03*
X18050Y17524D03*
Y17639D03*
D02*
D113*
X18163Y17434D03*
X18208D03*
X18463D03*
D02*
D114*
X18553Y17434D03*
D02*
D115*
X17278Y18096D03*
Y18596D03*
X17308Y18056D03*
X17423Y18331D03*
X17463Y18251D03*
X17598Y18336D03*
X17633Y18021D03*
X17648Y18226D03*
X17673Y18131D03*
Y18521D03*
X17713Y17911D03*
Y18166D03*
X17733Y18216D03*
X17748Y18521D03*
X17753Y17946D03*
X17808Y18021D03*
Y18161D03*
X17828Y18521D03*
X17883Y18056D03*
X17903Y17911D03*
X17923Y17981D03*
X17943Y17641D03*
X17958Y17761D03*
X17998Y18256D03*
Y18371D03*
X18008Y17801D03*
X18033Y17871D03*
X18083Y18196D03*
Y18251D03*
Y18371D03*
X18143Y18276D03*
X18283Y17486D03*
X18303Y18276D03*
X18384Y17465D03*
X18438Y18356D03*
X18453Y18111D03*
X18455Y18226D03*
X18523Y18311D03*
X18693Y18276D03*
D02*
D116*
X17768Y18296D02*
Y18201D01*
X17808Y18161*
Y18036*
X0Y0D02*
M02*
