%FSLAX23Y23*%
%MOIN*%
G04 EasyPC Gerber Version 13.0.2 Build 2807 *
%ADD105R,0.00100X0.00100*%
%ADD145R,0.03000X0.05500*%
%ADD104R,0.05500X0.05500*%
%ADD146R,0.07000X0.11000*%
%ADD75C,0.00500*%
%ADD95C,0.00800*%
%ADD92C,0.01000*%
%ADD147C,0.01500*%
%ADD115C,0.04000*%
%ADD110C,0.06000*%
%ADD76C,0.12000*%
X0Y0D02*
D02*
D75*
X17248Y17494D02*
X17260Y17503D01*
X17273Y17510*
X17288Y17515*
X17303Y17516*
X17319Y17514*
X17333Y17510*
X17347Y17502*
X17359Y17493*
X17369Y17481*
X17376Y17467*
X17380Y17453*
X17382Y17437*
X17381Y17422*
X17377Y17407*
X17370Y17394*
X17360Y17381*
X17443*
Y17439*
X17444Y17444*
X17446Y17448*
X17450Y17451*
X17455Y17451*
X17710*
X17715Y17451*
X17719Y17448*
X17722Y17444*
X17723Y17439*
Y17381*
X18172*
Y17422*
X18173Y17426*
X18176Y17430*
X18180Y17433*
X18184Y17434*
X18231*
Y17478*
X18223Y17485*
X17973*
X17967Y17487*
X17962Y17490*
X17922Y17530*
X17919Y17535*
X17918Y17540*
Y17621*
X17914Y17627*
X17911Y17634*
X17910Y17641*
X17912Y17651*
X17916Y17660*
X17922Y17667*
X17930Y17672*
X17940Y17674*
X17949Y17673*
X17958Y17670*
X17966Y17664*
X17972Y17656*
X17976Y17652*
X17979Y17647*
X17980Y17641*
Y17608*
X17993Y17595*
X18604*
X18609Y17600*
Y17630*
X18531*
Y17864*
X18625*
Y17855*
X18635*
X18641Y17854*
X18646Y17851*
X18663Y17834*
Y17864*
X18688*
Y18244*
X18679Y18247*
X18671Y18253*
X18665Y18260*
X18379*
X18304Y18185*
X18299Y18181*
X18293Y18180*
X18111*
X18105Y18173*
X18097Y18167*
X18088Y18164*
X18079Y18164*
X18070Y18167*
X18062Y18172*
X18055Y18179*
X18051Y18187*
X18050Y18196*
X18051Y18205*
X18054Y18212*
X18059Y18219*
X18065Y18224*
X18059Y18229*
X18049Y18220*
Y17899*
X18056Y17894*
X18061Y17888*
X18064Y17880*
X18065Y17871*
X18064Y17862*
X18059Y17853*
X18052Y17845*
X18043Y17841*
X18033Y17839*
X18023Y17840*
X18014Y17845*
Y17843*
X18019Y17838*
X18022Y17834*
X18024Y17830*
X18031Y17824*
X18036Y17818*
X18039Y17810*
X18040Y17801*
X18039Y17792*
X18035Y17784*
X18029Y17777*
X18021Y17772*
X18012Y17769*
X18003Y17769*
X17994Y17772*
X17986Y17777*
X17989Y17770*
X17990Y17761*
X17989Y17752*
X17985Y17744*
X17979Y17737*
X17971Y17732*
X17962Y17729*
X17953*
X17944Y17732*
X17936Y17737*
X17930Y17744*
X17926Y17752*
X17925Y17761*
X17926Y17770*
X17929Y17778*
X17934Y17784*
X17941Y17789*
Y17930*
X17941Y17930*
X17929*
X17934Y17921*
X17935Y17911*
X17934Y17902*
X17930Y17894*
X17924Y17887*
X17916Y17882*
X17907Y17879*
X17897Y17879*
X17888Y17882*
X17881Y17888*
X17875Y17895*
X17741*
X17735Y17888*
X17727Y17882*
X17718Y17879*
X17709Y17879*
X17700Y17882*
X17692Y17887*
X17685Y17894*
X17681Y17902*
X17680Y17911*
X17682Y17921*
X17686Y17930*
X17693Y17937*
X17701Y17942*
X17711Y17944*
X17720Y17943*
X17721Y17953*
X17724Y17962*
X17730Y17970*
X17738Y17975*
X17747Y17979*
X17757Y17979*
X17766Y17976*
X17774Y17971*
X17781Y17963*
X17896*
X17892Y17971*
X17890Y17980*
X17891Y17988*
X17894Y17997*
X17899Y18004*
X17906Y18009*
Y18034*
X17898Y18028*
X17889Y18025*
X17879Y18024*
X17869Y18027*
X17861Y18032*
X17855Y18040*
X17834*
X17839Y18031*
X17840Y18021*
X17839Y18012*
X17835Y18004*
X17829Y17997*
X17821Y17992*
X17812Y17989*
X17802Y17989*
X17793Y17992*
X17786Y17998*
X17780Y18005*
X17661*
X17655Y17997*
X17647Y17992*
X17637Y17989*
X17628*
X17619Y17992*
X17611Y17997*
X17605Y18005*
X17263*
X17256Y18006*
X17251Y18010*
X17248Y18013*
Y17494*
X17454Y17525D02*
X17456Y17536D01*
X17460Y17548*
X17467Y17557*
X17476Y17565*
X17486Y17571*
X17498Y17574*
X17510*
X17521Y17571*
X17532Y17565*
X17541Y17557*
X17548Y17548*
X17552Y17536*
X17553Y17525*
X17552Y17513*
X17548Y17502*
X17541Y17492*
X17532Y17484*
X17521Y17478*
X17510Y17475*
X17498*
X17486Y17478*
X17476Y17484*
X17467Y17492*
X17460Y17502*
X17456Y17513*
X17454Y17525*
X17623D02*
X17624Y17536D01*
X17629Y17548*
X17635Y17557*
X17644Y17565*
X17655Y17571*
X17666Y17574*
X17678*
X17690Y17571*
X17701Y17565*
X17709Y17557*
X17716Y17548*
X17720Y17536*
X17722Y17525*
X17720Y17513*
X17716Y17502*
X17709Y17492*
X17701Y17484*
X17690Y17478*
X17678Y17475*
X17666*
X17655Y17478*
X17644Y17484*
X17635Y17492*
X17629Y17502*
X17624Y17513*
X17623Y17525*
X17361Y17383D02*
X17443D01*
X17723D02*
X18172D01*
X17364Y17386D02*
X17443D01*
X17723D02*
X18172D01*
X17366Y17389D02*
X17443D01*
X17723D02*
X18172D01*
X17368Y17392D02*
X17443D01*
X17723D02*
X18172D01*
X17370Y17395D02*
X17443D01*
X17723D02*
X18172D01*
X17372Y17398D02*
X17443D01*
X17723D02*
X18172D01*
X17374Y17401D02*
X17443D01*
X17723D02*
X18172D01*
X17375Y17404D02*
X17443D01*
X17723D02*
X18172D01*
X17376Y17407D02*
X17443D01*
X17723D02*
X18172D01*
X17378Y17410D02*
X17443D01*
X17723D02*
X18172D01*
X17379Y17413D02*
X17443D01*
X17723D02*
X18172D01*
X17379Y17416D02*
X17443D01*
X17723D02*
X18172D01*
X17380Y17419D02*
X17443D01*
X17723D02*
X18172D01*
X17381Y17422D02*
X17443D01*
X17723D02*
X18172D01*
X17381Y17425D02*
X17443D01*
X17723D02*
X18172D01*
X17382Y17428D02*
X17443D01*
X17723D02*
X18174D01*
X17382Y17431D02*
X17443D01*
X17723D02*
X18176D01*
X17382Y17434D02*
X17443D01*
X17723D02*
X18182D01*
X17382Y17437D02*
X17443D01*
X17723D02*
X18231D01*
X17382Y17440D02*
X17443D01*
X17723D02*
X18231D01*
X17382Y17443D02*
X17443D01*
X17722D02*
X18231D01*
X17382Y17446D02*
X17445D01*
X17721D02*
X18231D01*
X17381Y17449D02*
X17448D01*
X17718D02*
X18231D01*
X17381Y17452D02*
X18231D01*
X17380Y17455D02*
X18231D01*
X17379Y17458D02*
X18231D01*
X17378Y17461D02*
X18231D01*
X17377Y17464D02*
X18231D01*
X17376Y17467D02*
X18231D01*
X17375Y17470D02*
X18231D01*
X17373Y17473D02*
X18231D01*
X17372Y17476D02*
X17495D01*
X17513D02*
X17664D01*
X17681D02*
X18231D01*
X17370Y17479D02*
X17485D01*
X17523D02*
X17653D01*
X17691D02*
X18230D01*
X17368Y17482D02*
X17479D01*
X17529D02*
X17647D01*
X17697D02*
X18227D01*
X17366Y17485D02*
X17474D01*
X17534D02*
X17643D01*
X17702D02*
X18224D01*
X17363Y17488D02*
X17471D01*
X17537D02*
X17639D01*
X17706D02*
X17964D01*
X17361Y17491D02*
X17468D01*
X17540D02*
X17636D01*
X17709D02*
X17961D01*
X17358Y17494D02*
X17465D01*
X17543D02*
X17634D01*
X17711D02*
X17958D01*
X17248Y17497D02*
X17251D01*
X17354D02*
X17463D01*
X17545D02*
X17631D01*
X17713D02*
X17955D01*
X17248Y17500D02*
X17255D01*
X17351D02*
X17461D01*
X17547D02*
X17630D01*
X17715D02*
X17952D01*
X17248Y17503D02*
X17259D01*
X17346D02*
X17459D01*
X17548D02*
X17628D01*
X17717D02*
X17949D01*
X17248Y17506D02*
X17264D01*
X17341D02*
X17458D01*
X17550D02*
X17627D01*
X17718D02*
X17946D01*
X17248Y17509D02*
X17270D01*
X17335D02*
X17457D01*
X17551D02*
X17625D01*
X17719D02*
X17943D01*
X17248Y17512D02*
X17277D01*
X17328D02*
X17456D01*
X17552D02*
X17625D01*
X17720D02*
X17940D01*
X17248Y17515D02*
X17289D01*
X17316D02*
X17455D01*
X17552D02*
X17624D01*
X17721D02*
X17937D01*
X17248Y17518D02*
X17455D01*
X17553D02*
X17623D01*
X17721D02*
X17934D01*
X17248Y17521D02*
X17455D01*
X17553D02*
X17623D01*
X17722D02*
X17931D01*
X17248Y17524D02*
X17454D01*
X17553D02*
X17623D01*
X17722D02*
X17928D01*
X17248Y17527D02*
X17454D01*
X17553D02*
X17623D01*
X17722D02*
X17925D01*
X17248Y17530D02*
X17455D01*
X17553D02*
X17623D01*
X17722D02*
X17922D01*
X17248Y17533D02*
X17455D01*
X17553D02*
X17624D01*
X17721D02*
X17920D01*
X17248Y17536D02*
X17456D01*
X17552D02*
X17624D01*
X17721D02*
X17918D01*
X17248Y17539D02*
X17457D01*
X17551D02*
X17625D01*
X17720D02*
X17918D01*
X17248Y17542D02*
X17458D01*
X17550D02*
X17626D01*
X17719D02*
X17918D01*
X17248Y17545D02*
X17459D01*
X17549D02*
X17627D01*
X17718D02*
X17918D01*
X17248Y17548D02*
X17460D01*
X17548D02*
X17629D01*
X17716D02*
X17918D01*
X17248Y17551D02*
X17462D01*
X17546D02*
X17630D01*
X17714D02*
X17918D01*
X17248Y17554D02*
X17464D01*
X17544D02*
X17633D01*
X17712D02*
X17918D01*
X17248Y17557D02*
X17466D01*
X17541D02*
X17635D01*
X17710D02*
X17918D01*
X17248Y17560D02*
X17469D01*
X17539D02*
X17638D01*
X17707D02*
X17918D01*
X17248Y17563D02*
X17473D01*
X17535D02*
X17641D01*
X17704D02*
X17918D01*
X17248Y17566D02*
X17477D01*
X17531D02*
X17645D01*
X17700D02*
X17918D01*
X17248Y17569D02*
X17482D01*
X17526D02*
X17650D01*
X17694D02*
X17918D01*
X17248Y17572D02*
X17489D01*
X17519D02*
X17658D01*
X17687D02*
X17918D01*
X17248Y17575D02*
X17918D01*
X17248Y17578D02*
X17918D01*
X17248Y17581D02*
X17918D01*
X17248Y17584D02*
X17918D01*
X17248Y17587D02*
X17918D01*
X17248Y17590D02*
X17918D01*
X17248Y17593D02*
X17918D01*
X17248Y17596D02*
X17918D01*
X17992D02*
X18605D01*
X17248Y17599D02*
X17918D01*
X17989D02*
X18608D01*
X17248Y17602D02*
X17918D01*
X17986D02*
X18609D01*
X17248Y17605D02*
X17918D01*
X17983D02*
X18609D01*
X17248Y17608D02*
X17918D01*
X17980D02*
X18609D01*
X17248Y17611D02*
X17918D01*
X17980D02*
X18609D01*
X17248Y17614D02*
X17918D01*
X17980D02*
X18609D01*
X17248Y17617D02*
X17918D01*
X17980D02*
X18609D01*
X17248Y17620D02*
X17918D01*
X17980D02*
X18609D01*
X17248Y17623D02*
X17916D01*
X17980D02*
X18609D01*
X17248Y17626D02*
X17914D01*
X17980D02*
X18609D01*
X17248Y17629D02*
X17913D01*
X17980D02*
X18609D01*
X17248Y17632D02*
X17912D01*
X17980D02*
X18531D01*
X17248Y17635D02*
X17911D01*
X17980D02*
X18531D01*
X17248Y17638D02*
X17910D01*
X17980D02*
X18531D01*
X17248Y17641D02*
X17910D01*
X17980D02*
X18531D01*
X17248Y17644D02*
X17910D01*
X17980D02*
X18531D01*
X17248Y17647D02*
X17911D01*
X17979D02*
X18531D01*
X17248Y17650D02*
X17911D01*
X17978D02*
X18531D01*
X17248Y17653D02*
X17912D01*
X17975D02*
X18531D01*
X17248Y17656D02*
X17913D01*
X17972D02*
X18531D01*
X17248Y17659D02*
X17915D01*
X17970D02*
X18531D01*
X17248Y17662D02*
X17917D01*
X17968D02*
X18531D01*
X17248Y17665D02*
X17920D01*
X17965D02*
X18531D01*
X17248Y17668D02*
X17924D01*
X17962D02*
X18531D01*
X17248Y17671D02*
X17929D01*
X17956D02*
X18531D01*
X17248Y17674D02*
X17940D01*
X17945D02*
X18531D01*
X17248Y17677D02*
X18531D01*
X17248Y17680D02*
X18531D01*
X17248Y17683D02*
X18531D01*
X17248Y17686D02*
X18531D01*
X17248Y17689D02*
X18531D01*
X17248Y17692D02*
X18531D01*
X17248Y17695D02*
X18531D01*
X17248Y17698D02*
X18531D01*
X17248Y17701D02*
X18531D01*
X17248Y17704D02*
X18531D01*
X17248Y17707D02*
X18531D01*
X17248Y17710D02*
X18531D01*
X17248Y17713D02*
X18531D01*
X17248Y17716D02*
X18531D01*
X17248Y17719D02*
X18531D01*
X17248Y17722D02*
X18531D01*
X17248Y17725D02*
X18531D01*
X17248Y17728D02*
X18531D01*
X17248Y17731D02*
X17947D01*
X17969D02*
X18531D01*
X17248Y17734D02*
X17940D01*
X17975D02*
X18531D01*
X17248Y17737D02*
X17936D01*
X17979D02*
X18531D01*
X17248Y17740D02*
X17933D01*
X17982D02*
X18531D01*
X17248Y17743D02*
X17931D01*
X17984D02*
X18531D01*
X17248Y17746D02*
X17929D01*
X17986D02*
X18531D01*
X17248Y17749D02*
X17928D01*
X17988D02*
X18531D01*
X17248Y17752D02*
X17927D01*
X17989D02*
X18531D01*
X17248Y17755D02*
X17926D01*
X17989D02*
X18531D01*
X17248Y17758D02*
X17925D01*
X17990D02*
X18531D01*
X17248Y17761D02*
X17925D01*
X17990D02*
X18531D01*
X17248Y17764D02*
X17925D01*
X17990D02*
X18531D01*
X17248Y17767D02*
X17926D01*
X17990D02*
X18531D01*
X17248Y17770D02*
X17926D01*
X17989D02*
X18000D01*
X18015D02*
X18531D01*
X17248Y17773D02*
X17927D01*
X17988D02*
X17992D01*
X18023D02*
X18531D01*
X17248Y17776D02*
X17928D01*
X17987D02*
X17988D01*
X18028D02*
X18531D01*
X17248Y17779D02*
X17930D01*
X18031D02*
X18531D01*
X17248Y17782D02*
X17932D01*
X18034D02*
X18531D01*
X17248Y17785D02*
X17935D01*
X18036D02*
X18531D01*
X17248Y17788D02*
X17939D01*
X18037D02*
X18531D01*
X17248Y17791D02*
X17941D01*
X18038D02*
X18531D01*
X17248Y17794D02*
X17941D01*
X18039D02*
X18531D01*
X17248Y17797D02*
X17941D01*
X18040D02*
X18531D01*
X17248Y17800D02*
X17941D01*
X18040D02*
X18531D01*
X17248Y17803D02*
X17941D01*
X18040D02*
X18531D01*
X17248Y17806D02*
X17941D01*
X18040D02*
X18531D01*
X17248Y17809D02*
X17941D01*
X18039D02*
X18531D01*
X17248Y17812D02*
X17941D01*
X18038D02*
X18531D01*
X17248Y17815D02*
X17941D01*
X18037D02*
X18531D01*
X17248Y17818D02*
X17941D01*
X18036D02*
X18531D01*
X17248Y17821D02*
X17941D01*
X18034D02*
X18531D01*
X17248Y17824D02*
X17941D01*
X18031D02*
X18531D01*
X17248Y17827D02*
X17941D01*
X18028D02*
X18531D01*
X17248Y17830D02*
X17941D01*
X18024D02*
X18531D01*
X17248Y17833D02*
X17941D01*
X18023D02*
X18531D01*
X17248Y17836D02*
X17941D01*
X18021D02*
X18531D01*
X18661D02*
X18663D01*
X17248Y17839D02*
X17941D01*
X18019D02*
X18531D01*
X18658D02*
X18663D01*
X17248Y17842D02*
X17941D01*
X18016D02*
X18019D01*
X18046D02*
X18531D01*
X18655D02*
X18663D01*
X17248Y17845D02*
X17941D01*
X18051D02*
X18531D01*
X18652D02*
X18663D01*
X17248Y17848D02*
X17941D01*
X18055D02*
X18531D01*
X18649D02*
X18663D01*
X17248Y17851D02*
X17941D01*
X18058D02*
X18531D01*
X18646D02*
X18663D01*
X17248Y17854D02*
X17941D01*
X18060D02*
X18531D01*
X18641D02*
X18663D01*
X17248Y17857D02*
X17941D01*
X18062D02*
X18531D01*
X18625D02*
X18663D01*
X17248Y17860D02*
X17941D01*
X18063D02*
X18531D01*
X18625D02*
X18663D01*
X17248Y17863D02*
X17941D01*
X18064D02*
X18531D01*
X18625D02*
X18663D01*
X17248Y17866D02*
X17941D01*
X18065D02*
X18688D01*
X17248Y17869D02*
X17941D01*
X18065D02*
X18688D01*
X17248Y17872D02*
X17941D01*
X18065D02*
X18688D01*
X17248Y17875D02*
X17941D01*
X18065D02*
X18688D01*
X17248Y17878D02*
X17941D01*
X18064D02*
X18688D01*
X17248Y17881D02*
X17702D01*
X17724D02*
X17892D01*
X17914D02*
X17941D01*
X18064D02*
X18688D01*
X17248Y17884D02*
X17695D01*
X17730D02*
X17885D01*
X17920D02*
X17941D01*
X18063D02*
X18688D01*
X17248Y17887D02*
X17691D01*
X17734D02*
X17881D01*
X17924D02*
X17941D01*
X18061D02*
X18688D01*
X17248Y17890D02*
X17688D01*
X17737D02*
X17878D01*
X17927D02*
X17941D01*
X18059D02*
X18688D01*
X17248Y17893D02*
X17686D01*
X17739D02*
X17876D01*
X17929D02*
X17941D01*
X18057D02*
X18688D01*
X17248Y17896D02*
X17684D01*
X17931D02*
X17941D01*
X18054D02*
X18688D01*
X17248Y17899D02*
X17683D01*
X17933D02*
X17941D01*
X18050D02*
X18688D01*
X17248Y17902D02*
X17682D01*
X17934D02*
X17941D01*
X18049D02*
X18688D01*
X17248Y17905D02*
X17681D01*
X17934D02*
X17941D01*
X18049D02*
X18688D01*
X17248Y17908D02*
X17680D01*
X17935D02*
X17941D01*
X18049D02*
X18688D01*
X17248Y17911D02*
X17680D01*
X17935D02*
X17941D01*
X18049D02*
X18688D01*
X17248Y17914D02*
X17680D01*
X17935D02*
X17941D01*
X18049D02*
X18688D01*
X17248Y17917D02*
X17681D01*
X17935D02*
X17941D01*
X18049D02*
X18688D01*
X17248Y17920D02*
X17681D01*
X17934D02*
X17941D01*
X18049D02*
X18688D01*
X17248Y17923D02*
X17682D01*
X17933D02*
X17941D01*
X18049D02*
X18688D01*
X17248Y17926D02*
X17683D01*
X17932D02*
X17941D01*
X18049D02*
X18688D01*
X17248Y17929D02*
X17685D01*
X17930D02*
X17941D01*
X18049D02*
X18688D01*
X17248Y17932D02*
X17687D01*
X18049D02*
X18688D01*
X17248Y17935D02*
X17690D01*
X18049D02*
X18688D01*
X17248Y17938D02*
X17694D01*
X18049D02*
X18688D01*
X17248Y17941D02*
X17699D01*
X18049D02*
X18688D01*
X17248Y17944D02*
X17710D01*
X17715D02*
X17720D01*
X18049D02*
X18688D01*
X17248Y17947D02*
X17720D01*
X18049D02*
X18688D01*
X17248Y17950D02*
X17720D01*
X18049D02*
X18688D01*
X17248Y17953D02*
X17721D01*
X18049D02*
X18688D01*
X17248Y17956D02*
X17722D01*
X18049D02*
X18688D01*
X17248Y17959D02*
X17723D01*
X18049D02*
X18688D01*
X17248Y17962D02*
X17724D01*
X18049D02*
X18688D01*
X17248Y17965D02*
X17726D01*
X17779D02*
X17895D01*
X18049D02*
X18688D01*
X17248Y17968D02*
X17728D01*
X17777D02*
X17893D01*
X18049D02*
X18688D01*
X17248Y17971D02*
X17731D01*
X17774D02*
X17892D01*
X18049D02*
X18688D01*
X17248Y17974D02*
X17735D01*
X17770D02*
X17891D01*
X18049D02*
X18688D01*
X17248Y17977D02*
X17741D01*
X17764D02*
X17890D01*
X18049D02*
X18688D01*
X17248Y17980D02*
X17890D01*
X18049D02*
X18688D01*
X17248Y17983D02*
X17890D01*
X18049D02*
X18688D01*
X17248Y17986D02*
X17890D01*
X18049D02*
X18688D01*
X17248Y17989D02*
X17891D01*
X18049D02*
X18688D01*
X17248Y17992D02*
X17619D01*
X17646D02*
X17794D01*
X17821D02*
X17892D01*
X18049D02*
X18688D01*
X17248Y17995D02*
X17614D01*
X17651D02*
X17789D01*
X17826D02*
X17893D01*
X18049D02*
X18688D01*
X17248Y17998D02*
X17610D01*
X17655D02*
X17785D01*
X17830D02*
X17895D01*
X18049D02*
X18688D01*
X17248Y18001D02*
X17607D01*
X17658D02*
X17782D01*
X17833D02*
X17897D01*
X18049D02*
X18688D01*
X17248Y18004D02*
X17605D01*
X17660D02*
X17780D01*
X17835D02*
X17899D01*
X18049D02*
X18688D01*
X17248Y18007D02*
X17255D01*
X17837D02*
X17902D01*
X18049D02*
X18688D01*
X17248Y18010D02*
X17251D01*
X17838D02*
X17906D01*
X18049D02*
X18688D01*
X17248Y18013D02*
X17248D01*
X17839D02*
X17906D01*
X18049D02*
X18688D01*
X17840Y18016D02*
X17906D01*
X18049D02*
X18688D01*
X17840Y18019D02*
X17906D01*
X18049D02*
X18688D01*
X17840Y18022D02*
X17906D01*
X18049D02*
X18688D01*
X17840Y18025D02*
X17875D01*
X17890D02*
X17906D01*
X18049D02*
X18688D01*
X17839Y18028D02*
X17867D01*
X17898D02*
X17906D01*
X18049D02*
X18688D01*
X17839Y18031D02*
X17863D01*
X17903D02*
X17906D01*
X18049D02*
X18688D01*
X17838Y18034D02*
X17859D01*
X17906D02*
X17906D01*
X18049D02*
X18688D01*
X17836Y18037D02*
X17857D01*
X18049D02*
X18688D01*
X17834Y18040D02*
X17855D01*
X18049D02*
X18688D01*
X18049Y18043D02*
X18688D01*
X18049Y18046D02*
X18688D01*
X18049Y18049D02*
X18688D01*
X18049Y18052D02*
X18688D01*
X18049Y18055D02*
X18688D01*
X18049Y18058D02*
X18688D01*
X18049Y18061D02*
X18688D01*
X18049Y18064D02*
X18688D01*
X18049Y18067D02*
X18688D01*
X18049Y18070D02*
X18688D01*
X18049Y18073D02*
X18688D01*
X18049Y18076D02*
X18688D01*
X18049Y18079D02*
X18688D01*
X18049Y18082D02*
X18688D01*
X18049Y18085D02*
X18688D01*
X18049Y18088D02*
X18688D01*
X18049Y18091D02*
X18688D01*
X18049Y18094D02*
X18688D01*
X18049Y18097D02*
X18688D01*
X18049Y18100D02*
X18688D01*
X18049Y18103D02*
X18688D01*
X18049Y18106D02*
X18688D01*
X18049Y18109D02*
X18688D01*
X18049Y18112D02*
X18688D01*
X18049Y18115D02*
X18688D01*
X18049Y18118D02*
X18688D01*
X18049Y18121D02*
X18688D01*
X18049Y18124D02*
X18688D01*
X18049Y18127D02*
X18688D01*
X18049Y18130D02*
X18688D01*
X18049Y18133D02*
X18688D01*
X18049Y18136D02*
X18688D01*
X18049Y18139D02*
X18688D01*
X18049Y18142D02*
X18688D01*
X18049Y18145D02*
X18688D01*
X18049Y18148D02*
X18688D01*
X18049Y18151D02*
X18688D01*
X18049Y18154D02*
X18688D01*
X18049Y18157D02*
X18688D01*
X18049Y18160D02*
X18688D01*
X18049Y18163D02*
X18688D01*
X18049Y18166D02*
X18072D01*
X18094D02*
X18688D01*
X18049Y18169D02*
X18065D01*
X18100D02*
X18688D01*
X18049Y18172D02*
X18061D01*
X18104D02*
X18688D01*
X18049Y18175D02*
X18058D01*
X18107D02*
X18688D01*
X18049Y18178D02*
X18056D01*
X18109D02*
X18688D01*
X18049Y18181D02*
X18054D01*
X18298D02*
X18688D01*
X18049Y18184D02*
X18053D01*
X18303D02*
X18688D01*
X18049Y18187D02*
X18052D01*
X18306D02*
X18688D01*
X18049Y18190D02*
X18051D01*
X18309D02*
X18688D01*
X18049Y18193D02*
X18050D01*
X18312D02*
X18688D01*
X18049Y18196D02*
X18050D01*
X18315D02*
X18688D01*
X18049Y18199D02*
X18050D01*
X18318D02*
X18688D01*
X18049Y18202D02*
X18051D01*
X18321D02*
X18688D01*
X18049Y18205D02*
X18051D01*
X18324D02*
X18688D01*
X18049Y18208D02*
X18052D01*
X18327D02*
X18688D01*
X18049Y18211D02*
X18053D01*
X18330D02*
X18688D01*
X18049Y18214D02*
X18055D01*
X18333D02*
X18688D01*
X18049Y18217D02*
X18057D01*
X18336D02*
X18688D01*
X18049Y18220D02*
X18060D01*
X18339D02*
X18688D01*
X18052Y18223D02*
X18064D01*
X18342D02*
X18688D01*
X18055Y18226D02*
X18063D01*
X18345D02*
X18688D01*
X18058Y18229D02*
X18059D01*
X18348D02*
X18688D01*
X18351Y18232D02*
X18688D01*
X18354Y18235D02*
X18688D01*
X18357Y18238D02*
X18688D01*
X18360Y18241D02*
X18688D01*
X18363Y18244D02*
X18688D01*
X18366Y18247D02*
X18679D01*
X18369Y18250D02*
X18674D01*
X18372Y18253D02*
X18670D01*
X18375Y18256D02*
X18667D01*
X18378Y18259D02*
X18665D01*
X17708Y17395D02*
X17705Y17389D01*
X17698Y17386*
X17686*
X17680Y17389*
X17676Y17395*
X17680Y17401*
X17686Y17405*
X17698*
X17705Y17408*
X17708Y17414*
X17705Y17420*
X17698Y17423*
X17686*
X17680Y17420*
X17676Y17414*
X17655Y17389D02*
X17648Y17386D01*
X17642*
X17636Y17389*
X17633Y17395*
Y17414*
X17636Y17420*
X17642Y17423*
X17648*
X17655Y17420*
X17658Y17414*
Y17395*
X17655Y17389*
X17636Y17420*
X17598Y17386D02*
X17592Y17389D01*
X17586Y17395*
X17583Y17405*
Y17414*
X17586Y17420*
X17592Y17423*
X17598*
X17605Y17420*
X17608Y17414*
X17605Y17408*
X17598Y17405*
X17592*
X17586Y17408*
X17583Y17414*
X17555Y17389D02*
X17548Y17386D01*
X17542*
X17536Y17389*
X17533Y17395*
Y17414*
X17536Y17420*
X17542Y17423*
X17548*
X17555Y17420*
X17558Y17414*
Y17395*
X17555Y17389*
X17536Y17420*
X17498Y17405D02*
X17492D01*
X17486Y17408*
X17483Y17414*
X17486Y17420*
X17492Y17423*
X17498*
X17505Y17420*
X17508Y17414*
X17505Y17408*
X17498Y17405*
X17505Y17401*
X17508Y17395*
X17505Y17389*
X17498Y17386*
X17492*
X17486Y17389*
X17483Y17395*
X17486Y17401*
X17492Y17405*
X17933Y17646D02*
Y17540D01*
X17973Y17500*
X18230*
X18256Y17474*
Y17423*
X18268Y17411*
X18308*
X18316Y17418*
Y17479*
X18348Y17512*
X18620*
X18659Y17550*
Y17816*
X18635Y17840*
X18580*
X18574Y17834*
Y17802*
X18587Y17790*
X18615*
X18624Y17781*
Y17594*
X18610Y17580*
X17986*
X17965Y17602*
Y17641*
X17960Y17646*
X17933*
X18266Y17412D02*
X18310D01*
X18263Y17415D02*
X18313D01*
X18260Y17418D02*
X18316D01*
X18257Y17421D02*
X18316D01*
X18256Y17424D02*
X18316D01*
X18256Y17427D02*
X18316D01*
X18256Y17430D02*
X18316D01*
X18256Y17433D02*
X18316D01*
X18256Y17436D02*
X18316D01*
X18256Y17439D02*
X18316D01*
X18256Y17442D02*
X18316D01*
X18256Y17445D02*
X18316D01*
X18256Y17448D02*
X18316D01*
X18256Y17451D02*
X18316D01*
X18256Y17454D02*
X18316D01*
X18256Y17457D02*
X18316D01*
X18256Y17460D02*
X18316D01*
X18256Y17463D02*
X18316D01*
X18256Y17466D02*
X18316D01*
X18256Y17469D02*
X18316D01*
X18256Y17472D02*
X18316D01*
X18255Y17475D02*
X18316D01*
X18252Y17478D02*
X18316D01*
X18249Y17481D02*
X18318D01*
X18246Y17484D02*
X18321D01*
X18243Y17487D02*
X18324D01*
X18240Y17490D02*
X18327D01*
X18237Y17493D02*
X18330D01*
X18234Y17496D02*
X18333D01*
X18231Y17499D02*
X18336D01*
X17971Y17502D02*
X18339D01*
X17968Y17505D02*
X18342D01*
X17965Y17508D02*
X18345D01*
X17962Y17511D02*
X18348D01*
X17959Y17514D02*
X18623D01*
X17956Y17517D02*
X18626D01*
X17953Y17520D02*
X18629D01*
X17950Y17523D02*
X18632D01*
X17947Y17526D02*
X18635D01*
X17944Y17529D02*
X18638D01*
X17941Y17532D02*
X18641D01*
X17938Y17535D02*
X18644D01*
X17935Y17538D02*
X18647D01*
X17933Y17541D02*
X18650D01*
X17933Y17544D02*
X18653D01*
X17933Y17547D02*
X18656D01*
X17933Y17550D02*
X18659D01*
X17933Y17553D02*
X18659D01*
X17933Y17556D02*
X18659D01*
X17933Y17559D02*
X18659D01*
X17933Y17562D02*
X18659D01*
X17933Y17565D02*
X18659D01*
X17933Y17568D02*
X18659D01*
X17933Y17571D02*
X18659D01*
X17933Y17574D02*
X18659D01*
X17933Y17577D02*
X18659D01*
X17933Y17580D02*
X17986D01*
X18610D02*
X18659D01*
X17933Y17583D02*
X17983D01*
X18613D02*
X18659D01*
X17933Y17586D02*
X17980D01*
X18616D02*
X18659D01*
X17933Y17589D02*
X17977D01*
X18619D02*
X18659D01*
X17933Y17592D02*
X17974D01*
X18622D02*
X18659D01*
X17933Y17595D02*
X17971D01*
X18624D02*
X18659D01*
X17933Y17598D02*
X17968D01*
X18624D02*
X18659D01*
X17933Y17601D02*
X17965D01*
X18624D02*
X18659D01*
X17933Y17604D02*
X17965D01*
X18624D02*
X18659D01*
X17933Y17607D02*
X17965D01*
X18624D02*
X18659D01*
X17933Y17610D02*
X17965D01*
X18624D02*
X18659D01*
X17933Y17613D02*
X17965D01*
X18624D02*
X18659D01*
X17933Y17616D02*
X17965D01*
X18624D02*
X18659D01*
X17933Y17619D02*
X17965D01*
X18624D02*
X18659D01*
X17933Y17622D02*
X17965D01*
X18624D02*
X18659D01*
X17933Y17625D02*
X17965D01*
X18624D02*
X18659D01*
X17933Y17628D02*
X17965D01*
X18624D02*
X18659D01*
X17933Y17631D02*
X17965D01*
X18624D02*
X18659D01*
X17933Y17634D02*
X17965D01*
X18624D02*
X18659D01*
X17933Y17637D02*
X17965D01*
X18624D02*
X18659D01*
X17933Y17640D02*
X17965D01*
X18624D02*
X18659D01*
X17933Y17643D02*
X17963D01*
X18624D02*
X18659D01*
X18624Y17646D02*
X18659D01*
X18624Y17649D02*
X18659D01*
X18624Y17652D02*
X18659D01*
X18624Y17655D02*
X18659D01*
X18624Y17658D02*
X18659D01*
X18624Y17661D02*
X18659D01*
X18624Y17664D02*
X18659D01*
X18624Y17667D02*
X18659D01*
X18624Y17670D02*
X18659D01*
X18624Y17673D02*
X18659D01*
X18624Y17676D02*
X18659D01*
X18624Y17679D02*
X18659D01*
X18624Y17682D02*
X18659D01*
X18624Y17685D02*
X18659D01*
X18624Y17688D02*
X18659D01*
X18624Y17691D02*
X18659D01*
X18624Y17694D02*
X18659D01*
X18624Y17697D02*
X18659D01*
X18624Y17700D02*
X18659D01*
X18624Y17703D02*
X18659D01*
X18624Y17706D02*
X18659D01*
X18624Y17709D02*
X18659D01*
X18624Y17712D02*
X18659D01*
X18624Y17715D02*
X18659D01*
X18624Y17718D02*
X18659D01*
X18624Y17721D02*
X18659D01*
X18624Y17724D02*
X18659D01*
X18624Y17727D02*
X18659D01*
X18624Y17730D02*
X18659D01*
X18624Y17733D02*
X18659D01*
X18624Y17736D02*
X18659D01*
X18624Y17739D02*
X18659D01*
X18624Y17742D02*
X18659D01*
X18624Y17745D02*
X18659D01*
X18624Y17748D02*
X18659D01*
X18624Y17751D02*
X18659D01*
X18624Y17754D02*
X18659D01*
X18624Y17757D02*
X18659D01*
X18624Y17760D02*
X18659D01*
X18624Y17763D02*
X18659D01*
X18624Y17766D02*
X18659D01*
X18624Y17769D02*
X18659D01*
X18624Y17772D02*
X18659D01*
X18624Y17775D02*
X18659D01*
X18624Y17778D02*
X18659D01*
X18624Y17781D02*
X18659D01*
X18621Y17784D02*
X18659D01*
X18618Y17787D02*
X18659D01*
X18586Y17790D02*
X18659D01*
X18583Y17793D02*
X18659D01*
X18580Y17796D02*
X18659D01*
X18577Y17799D02*
X18659D01*
X18574Y17802D02*
X18659D01*
X18574Y17805D02*
X18659D01*
X18574Y17808D02*
X18659D01*
X18574Y17811D02*
X18659D01*
X18574Y17814D02*
X18659D01*
X18574Y17817D02*
X18658D01*
X18574Y17820D02*
X18655D01*
X18574Y17823D02*
X18652D01*
X18574Y17826D02*
X18649D01*
X18574Y17829D02*
X18646D01*
X18574Y17832D02*
X18643D01*
X18576Y17835D02*
X18640D01*
X18579Y17838D02*
X18637D01*
X18237Y17381D02*
X18212D01*
X18224Y17368D02*
Y17393D01*
X18340Y17381D02*
X18408D01*
Y17422*
X18409Y17426*
X18411Y17430*
X18416Y17433*
X18420Y17434*
X18475*
X18480Y17433*
X18484Y17430*
X18487Y17426*
X18488Y17422*
Y17381*
X18576*
X18568Y17394*
X18562Y17407*
X18559Y17421*
X18558Y17435*
X18560Y17450*
X18565Y17463*
X18572Y17476*
X18581Y17487*
X18592Y17497*
X18354*
X18340Y17482*
Y17381*
X18408*
X18488D02*
X18576D01*
X18340Y17384D02*
X18408D01*
X18488D02*
X18574D01*
X18340Y17387D02*
X18408D01*
X18488D02*
X18571D01*
X18340Y17390D02*
X18408D01*
X18488D02*
X18570D01*
X18340Y17393D02*
X18408D01*
X18488D02*
X18568D01*
X18340Y17396D02*
X18408D01*
X18488D02*
X18566D01*
X18340Y17399D02*
X18408D01*
X18488D02*
X18565D01*
X18340Y17402D02*
X18408D01*
X18488D02*
X18564D01*
X18340Y17405D02*
X18408D01*
X18488D02*
X18563D01*
X18340Y17408D02*
X18408D01*
X18488D02*
X18562D01*
X18340Y17411D02*
X18408D01*
X18488D02*
X18561D01*
X18340Y17414D02*
X18408D01*
X18488D02*
X18560D01*
X18340Y17417D02*
X18408D01*
X18488D02*
X18559D01*
X18340Y17420D02*
X18408D01*
X18488D02*
X18559D01*
X18340Y17423D02*
X18408D01*
X18488D02*
X18559D01*
X18340Y17426D02*
X18409D01*
X18487D02*
X18558D01*
X18340Y17429D02*
X18411D01*
X18485D02*
X18558D01*
X18340Y17432D02*
X18414D01*
X18482D02*
X18558D01*
X18340Y17435D02*
X18558D01*
X18340Y17438D02*
X18558D01*
X18340Y17441D02*
X18559D01*
X18340Y17444D02*
X18559D01*
X18340Y17447D02*
X18560D01*
X18340Y17450D02*
X18560D01*
X18340Y17453D02*
X18561D01*
X18340Y17456D02*
X18562D01*
X18340Y17459D02*
X18563D01*
X18340Y17462D02*
X18564D01*
X18340Y17465D02*
X18566D01*
X18340Y17468D02*
X18567D01*
X18340Y17471D02*
X18569D01*
X18340Y17474D02*
X18571D01*
X18340Y17477D02*
X18573D01*
X18340Y17480D02*
X18575D01*
X18341Y17483D02*
X18577D01*
X18344Y17486D02*
X18580D01*
X18347Y17489D02*
X18583D01*
X18350Y17492D02*
X18587D01*
X18353Y17495D02*
X18590D01*
X18473Y17381D02*
X18448D01*
D02*
D76*
X17303Y17436D03*
X18638Y17431D03*
D02*
D92*
X17223Y18606D02*
Y18706D01*
X17323Y18706*
Y17356D02*
X17223D01*
X17223Y17456*
X18613Y18706D02*
X18713D01*
X18713Y18606*
Y17456D02*
Y17356D01*
X18613Y17356*
D02*
D95*
X17322Y18056D02*
X17869D01*
X17612Y18336D02*
X18418D01*
X18428Y18347*
X17619Y18021D02*
X17263D01*
X17238Y18046*
Y18311*
X17258Y18331*
X17409*
X17659Y18131D02*
X17503D01*
X17463Y18171*
Y18237*
X17699Y18166D02*
X17543D01*
X17528Y18181*
Y18506*
X17558Y18536*
X17658*
X17663Y18531*
X17719Y18216D02*
X17703D01*
X17678Y18191*
X17558*
X17548Y18201*
Y18441*
X17568Y18461*
X17688*
X17738Y18512*
X17794Y18021D02*
X17647D01*
X17889Y17911D02*
X17727D01*
X17923Y17995D02*
Y18081D01*
X17908Y18096*
X17292*
X17958Y17775D02*
Y17936D01*
X17948Y17946*
X17767*
X17984Y18371D02*
X17853D01*
X17828Y18396*
Y18507*
X18008Y17815D02*
Y17826D01*
X17998Y17836*
Y18242*
X18033Y17885D02*
Y18226D01*
X18058Y18251*
X18069*
X18083Y18385D02*
Y18526D01*
X18038Y18571*
X17303*
X17288Y18587*
X18283Y17500D02*
Y17546D01*
X18598*
X18633Y17581*
Y17801*
X18618Y17816*
X18598*
X18597Y17816*
X18283Y17500D02*
Y17546D01*
X17963*
X17943Y17566*
Y17627*
X18286Y17415D02*
Y17473D01*
X18384Y17451D02*
X18385Y17415D01*
X18455Y18212D02*
Y18125D01*
X18509Y18311D02*
X17668D01*
X17648Y18291*
Y18240*
X18679Y18276D02*
X18373D01*
X18293Y18196*
X18097*
D02*
D104*
X18578Y17677D03*
Y17747D03*
Y17817D03*
D02*
D105*
X18718Y17677D03*
Y17747D03*
Y17817D03*
D02*
D110*
X17504Y17525D03*
X17672D03*
D02*
D115*
X17278Y18096D03*
Y18596D03*
X17308Y18056D03*
X17423Y18331D03*
X17463Y18251D03*
X17598Y18336D03*
X17633Y18021D03*
X17648Y18226D03*
X17673Y18131D03*
Y18521D03*
X17713Y17911D03*
Y18166D03*
X17733Y18216D03*
X17748Y18521D03*
X17753Y17946D03*
X17808Y18021D03*
Y18161D03*
X17828Y18521D03*
X17883Y18056D03*
X17903Y17911D03*
X17923Y17981D03*
X17943Y17641D03*
X17958Y17761D03*
X17998Y18256D03*
Y18371D03*
X18008Y17801D03*
X18033Y17871D03*
X18083Y18196D03*
Y18251D03*
Y18371D03*
X18143Y18276D03*
X18283Y17486D03*
X18303Y18276D03*
X18384Y17465D03*
X18438Y18356D03*
X18453Y18111D03*
X18455Y18226D03*
X18523Y18311D03*
X18693Y18276D03*
D02*
D145*
X18697Y17817D03*
X18698Y17676D03*
X18698Y17747D03*
D02*
D146*
X18286Y17415D03*
X18385D03*
D02*
D147*
X17825Y18161D02*
X17918D01*
X17943Y18186*
Y18276*
X17958Y18291*
X18128*
X18130Y18289*
X18285Y18276D02*
X18160D01*
X0Y0D02*
M02*
