%FSLAX23Y23*%
%MOIN*%
G04 EasyPC Gerber Version 13.0.2 Build 2807 *
%ADD86R,0.04362X0.08299*%
%ADD85R,0.08299X0.04362*%
%ADD71C,0.06500*%
%ADD14C,0.11900*%
%ADD13C,0.12000*%
%ADD10C,0.14000*%
%ADD15R,0.08000X0.06000*%
%ADD84R,0.07000X0.06500*%
X0Y0D02*
D02*
D10*
X17335Y17420D03*
X18670Y17415D03*
D02*
D13*
X18414Y18182D03*
D02*
D14*
X17602Y17625D03*
D02*
D15*
X18664Y18583D03*
Y18652D03*
X18666Y18448D03*
Y18517D03*
X18696Y18268D03*
Y18337D03*
X18706Y17608D03*
Y17677D03*
D02*
D71*
X17290Y17520D03*
X17310Y17970D03*
X17355Y18225D03*
X17375Y18570D03*
X17430Y17555D03*
X17448Y17402D03*
X17455Y18570D03*
X17465Y18395D03*
X17505Y17990D03*
X17510Y17400D03*
X17560Y18570D03*
X17580Y18105D03*
X17585Y17450D03*
X17625Y18635D03*
X17660Y18350D03*
X17710Y17465D03*
X17741Y18347D03*
X17823Y17465D03*
Y18327D03*
X17865Y18030D03*
Y18285D03*
X17910Y18115D03*
X17960Y17560D03*
Y17990D03*
X17985Y18210D03*
X18010Y17480D03*
X18020Y18270D03*
X18065Y18170D03*
X18095Y17465D03*
X18105Y18345D03*
X18155Y17520D03*
X18175Y17725D03*
X18340Y18080D03*
X18375Y18640D03*
X18380Y18430D03*
X18410Y18030D03*
X18435Y17675D03*
Y17925D03*
X18470Y17990D03*
X18475Y17395D03*
X18515Y17520D03*
X18705Y17570D03*
X18715Y18645D03*
D02*
D84*
X17780Y18640D03*
X17845D03*
D02*
D85*
X17426Y17596D03*
Y17636D03*
Y17675D03*
Y17714D03*
Y17754D03*
Y17793D03*
Y17833D03*
Y17872D03*
Y17911D03*
Y17951D03*
Y17990D03*
Y18029D03*
Y18069D03*
Y18108D03*
Y18148D03*
Y18187D03*
Y18226D03*
Y18266D03*
Y18305D03*
Y18344D03*
X18598Y17872D03*
Y17911D03*
X18598Y17596D03*
Y17636D03*
Y17675D03*
Y17714D03*
Y17754D03*
Y17793D03*
Y17833D03*
Y17951D03*
Y17990D03*
Y18029D03*
Y18069D03*
Y18108D03*
Y18148D03*
Y18187D03*
Y18226D03*
Y18266D03*
Y18305D03*
Y18344D03*
D02*
D86*
X17633Y17380D03*
Y18561D03*
X17672D03*
X17672Y17380D03*
X17712D03*
Y18561D03*
X17751Y17380D03*
Y18561D03*
X17790Y17380D03*
Y18561D03*
X17830D03*
X17830Y17380D03*
X17869D03*
Y18561D03*
X17909Y17380D03*
Y18561D03*
X17948Y17380D03*
X17948Y18561D03*
X17987Y17380D03*
X17987Y18561D03*
X18027Y17380D03*
Y18561D03*
X18066Y17380D03*
Y18561D03*
X18105D03*
X18105Y17380D03*
X18145Y18561D03*
X18145Y17380D03*
X18184D03*
Y18561D03*
X18224Y17380D03*
Y18561D03*
X18263Y17380D03*
X18263Y18561D03*
X18302Y17380D03*
Y18561D03*
X18342Y17380D03*
Y18561D03*
X18381Y17380D03*
Y18561D03*
X0Y0D02*
M02*
