%FSLAX23Y23*%
%MOIN*%
G04 EasyPC Gerber Version 13.0.2 Build 2807 *
%ADD11R,0.05500X0.06000*%
%ADD70R,0.05700X0.11500*%
%ADD17R,0.06000X0.06800*%
%ADD18R,0.06000X0.08000*%
%ADD19R,0.06300X0.11500*%
%ADD16R,0.13000X0.15000*%
%ADD71C,0.06500*%
%ADD14C,0.11900*%
%ADD13C,0.12000*%
%ADD10C,0.14000*%
%ADD15R,0.08000X0.06000*%
%ADD12R,0.17000X0.07000*%
X0Y0D02*
D02*
D10*
X17335Y17420D03*
X18670Y17415D03*
D02*
D11*
X17880Y18345D03*
X17930D03*
D02*
D12*
X17628Y17725D03*
Y17825D03*
Y17925D03*
Y18025D03*
X18665Y17725D03*
Y17825D03*
Y17925D03*
Y18025D03*
D02*
D13*
X18414Y18182D03*
D02*
D14*
X17602Y17625D03*
D02*
D15*
X18141Y18493D03*
Y18562D03*
X18234Y17393D03*
Y17462D03*
X18314Y17393D03*
Y17462D03*
X18434Y17393D03*
Y17462D03*
X18514Y17393D03*
Y17462D03*
D02*
D16*
X18280Y18430D03*
Y18620D03*
X18480Y18430D03*
Y18620D03*
D02*
D17*
X17290Y17608D03*
Y17857D03*
X17330Y17521D03*
Y17944D03*
X17370Y17608D03*
Y17857D03*
D02*
D18*
X17288Y17689D03*
X17288Y17770D03*
X17291Y18038D03*
Y18118D03*
X17357Y17689D03*
X17357Y17770D03*
X17360Y18038D03*
Y18118D03*
D02*
D19*
X17309Y18440D03*
Y18637D03*
X17387Y18440D03*
Y18637D03*
X17466Y18440D03*
Y18637D03*
X17545Y18440D03*
Y18637D03*
X17624D03*
X17702D03*
X17781D03*
X17860D03*
X17939Y18440D03*
Y18637D03*
X18017Y18440D03*
Y18637D03*
D02*
D70*
X17624Y18440D03*
X17702D03*
X17781D03*
X17860D03*
D02*
D71*
X17290Y17520D03*
X17310Y17970D03*
X17355Y18225D03*
X17375Y18570D03*
X17430Y17555D03*
X17448Y17402D03*
X17455Y18570D03*
X17465Y18395D03*
X17505Y17990D03*
X17510Y17400D03*
X17560Y18570D03*
X17580Y18105D03*
X17585Y17450D03*
X17625Y18635D03*
X17660Y18350D03*
X17710Y17465D03*
X17741Y18347D03*
X17823Y17465D03*
Y18327D03*
X17865Y18030D03*
Y18285D03*
X17910Y18115D03*
X17960Y17560D03*
Y17990D03*
X17985Y18210D03*
X18010Y17480D03*
X18020Y18270D03*
X18065Y18170D03*
X18095Y17465D03*
X18105Y18345D03*
X18155Y17520D03*
X18175Y17725D03*
X18340Y18080D03*
X18375Y18640D03*
X18380Y18430D03*
X18410Y18030D03*
X18435Y17675D03*
Y17925D03*
X18470Y17990D03*
X18475Y17395D03*
X18515Y17520D03*
X18705Y17570D03*
X18715Y18645D03*
X0Y0D02*
M02*
